<svg width="90" height="106" viewBox="0 0 90 106" fill="none" xmlns="http://www.w3.org/2000/svg">
<path d="M90 93.5781C90 95.865 88.1346 97.7188 85.8333 97.7188H81.6667V101.859C81.6667 104.146 79.8012 106 77.5 106C75.1987 106 73.3333 104.146 73.3333 101.859V97.7188H69.1667C66.8654 97.7188 65 95.865 65 93.5781C65 91.2913 66.8654 89.4375 69.1667 89.4375H73.3333V85.2969C73.3333 83.01 75.1987 81.1562 77.5 81.1562C79.8012 81.1562 81.6667 83.01 81.6667 85.2969V89.4375H85.8333C88.1346 89.4375 90 91.2913 90 93.5781ZM90 28.9844V68.7344C90 71.0212 88.1346 72.875 85.8333 72.875C83.5321 72.875 81.6667 71.0212 81.6667 68.7344V33.125H73.3333V45.5469C73.3333 47.8337 71.4679 49.6875 69.1667 49.6875C66.8654 49.6875 65 47.8337 65 45.5469V33.125H25V45.5469C25 47.8337 23.1346 49.6875 20.8333 49.6875C18.5321 49.6875 16.6667 47.8337 16.6667 45.5469V33.125H8.33333V97.7188H52.5C54.8013 97.7188 56.6667 99.5725 56.6667 101.859C56.6667 104.146 54.8013 106 52.5 106H4.16667C1.86542 106 0 104.146 0 101.859V28.9844C0 26.6975 1.86542 24.8438 4.16667 24.8438H16.8637C18.519 10.8739 30.5048 0 45 0C59.4952 0 71.481 10.8739 73.1362 24.8438H85.8333C88.1346 24.8438 90 26.6975 90 28.9844ZM64.7206 24.8438C63.129 15.4559 54.8923 8.28125 45 8.28125C35.1077 8.28125 26.871 15.4559 25.2794 24.8438H64.7206Z" fill="#D2D2D2"/>
</svg>
