<svg width="57" height="56" viewBox="0 0 57 56" fill="none" xmlns="http://www.w3.org/2000/svg">
<path d="M48.5763 25.1539L46.5623 22.5264C46.5272 22.2951 46.5329 21.8379 46.5365 21.5504C46.5381 21.4247 46.5396 21.3018 46.5396 21.1842V17.8603C46.5396 15.6886 45.0671 13.9142 42.6968 13.2298L39.3839 12.273C39.0617 12.1801 38.7807 11.9778 38.5927 11.7036L36.6507 8.8726C35.3793 7.01956 33.0111 6.25305 30.8918 7.00847L27.6343 8.16974C27.3171 8.28268 26.968 8.28268 26.6511 8.16974L23.3937 7.00865C21.2743 6.25322 18.9061 7.01965 17.6348 8.87278L15.6927 11.7038C15.5144 11.9638 15.2525 12.159 14.9511 12.2579L11.5001 12.9849C11.458 12.9938 11.4164 13.0042 11.3751 13.016C9.17875 13.6503 7.6901 15.652 7.74577 17.8903V21.3029C7.74577 21.4216 7.74823 21.5459 7.75086 21.6737C7.75613 21.9268 7.76456 22.3403 7.72136 22.5095L5.70697 25.1564C4.31842 26.9434 4.31903 29.4332 5.70881 31.2196L7.72645 33.8544C7.76342 34.0146 7.75639 34.4194 7.75112 34.7201C7.7484 34.8741 7.74577 35.0317 7.74577 35.1923V38.6108C7.69528 40.7089 9.16505 42.4443 11.5886 43.1441L14.9015 44.1008C15.2237 44.1938 15.5046 44.3959 15.6927 44.6702L17.6347 47.5011C18.5783 48.8768 20.1262 49.6536 21.7286 49.6535C22.2846 49.6535 22.8475 49.5599 23.3936 49.3652L26.6509 48.2041C26.9681 48.0912 27.3172 48.0912 27.6342 48.2041L30.8915 49.3652C31.4377 49.56 32.0004 49.6535 32.5566 49.6535C34.1587 49.6535 35.7068 48.8766 36.6504 47.5011L38.5925 44.6701C38.7806 44.396 39.0616 44.1938 39.3837 44.1008L42.6966 43.1441C44.8507 42.5221 46.6102 40.0514 46.5386 37.7491C46.5084 36.7773 45.6949 36.0114 44.7289 36.0442C43.7597 36.0745 42.9983 36.8868 43.0285 37.8588C43.0496 38.5369 42.3306 39.5856 41.7246 39.7605L38.4118 40.7172C37.3102 41.0353 36.3468 41.7304 35.6991 42.6746L33.7571 45.5056C33.3858 46.0469 32.6913 46.2697 32.0679 46.0476L28.8104 44.8865C27.7351 44.5032 26.5505 44.5031 25.4747 44.8865L22.2174 46.0476C21.5939 46.2698 20.8995 46.0469 20.5281 45.5056L18.5861 42.6747C17.9385 41.7305 16.9751 41.0353 15.8735 40.7172L12.5606 39.7606C12.425 39.7213 11.236 39.3585 11.2567 38.6898C11.2573 38.6716 11.2576 38.6533 11.2576 38.635V35.1924C11.2576 35.0528 11.2601 34.9155 11.2624 34.7815C11.2784 33.8644 11.2981 32.7237 10.5353 31.7405L8.49005 29.0698C8.48662 29.0653 8.48311 29.0608 8.47969 29.0564C8.07976 28.5444 8.07976 27.8294 8.47969 27.3176C8.48416 27.3118 8.48873 27.3059 8.49321 27.3L10.5372 24.6141C11.3036 23.6241 11.2785 22.4072 11.2619 21.601C11.2598 21.4983 11.2576 21.3982 11.2576 21.3029V17.8659C11.2576 17.8476 11.2573 17.8293 11.2567 17.811C11.2377 17.1977 11.6724 16.6185 12.297 16.415L15.7485 15.688C15.7906 15.6791 15.8322 15.6687 15.8735 15.6568C16.975 15.3387 17.9384 14.6435 18.5861 13.6994L20.5282 10.8683C20.8994 10.327 21.5937 10.1041 22.2174 10.3264L25.4748 11.4875C26.5502 11.8708 27.7348 11.8708 28.8105 11.4875L32.0679 10.3264C32.6914 10.1042 33.3858 10.3271 33.7571 10.8683L35.6991 13.6993C36.3467 14.6435 37.3101 15.3387 38.4118 15.6568L41.7246 16.6135C42.2113 16.754 43.0277 17.1029 43.0277 17.8604V21.1843C43.0277 21.2878 43.0264 21.3957 43.0249 21.5062C43.012 22.5311 42.9961 23.7968 43.7965 24.6968L45.7957 27.3049C45.799 27.3091 45.8023 27.3135 45.8056 27.3177C46.2055 27.8296 46.2055 28.5445 45.8056 29.0565C45.2075 29.8219 45.3417 30.9286 46.1051 31.5281C46.8686 32.1276 47.9721 31.9933 48.5702 31.2277C49.9669 29.4402 49.9689 26.944 48.5763 25.1539Z" fill="#F5921C"/>
<path d="M21.7269 38.5523C21.9924 38.6962 22.2784 38.7645 22.5603 38.7645C23.1845 38.7645 23.7889 38.4299 24.1064 37.8407L33.5976 20.2351C34.0588 19.3798 33.7411 18.3115 32.888 17.8492C32.0349 17.3866 30.9694 17.7054 30.5085 18.5607L21.0173 36.1664C20.5561 37.0217 20.8738 38.09 21.7269 38.5523Z" fill="#F5921C"/>
<path d="M24.2442 22.0384C24.2442 19.6115 22.275 17.637 19.8546 17.637C17.4341 17.637 15.4648 19.6114 15.4648 22.0384C15.4648 24.4655 17.434 26.4398 19.8546 26.4398C22.275 26.4398 24.2442 24.4654 24.2442 22.0384ZM19.8546 22.9187C19.3704 22.9187 18.9767 22.5238 18.9767 22.0384C18.9767 21.5531 19.3705 21.1582 19.8546 21.1582C20.3387 21.1582 20.7325 21.5531 20.7325 22.0384C20.7325 22.5238 20.3386 22.9187 19.8546 22.9187Z" fill="#F5921C"/>
<path d="M34.3438 38.7606C36.7642 38.7606 38.7335 36.7861 38.7335 34.3591C38.7335 31.9321 36.7643 29.9578 34.3438 29.9578C31.9233 29.9578 29.9541 31.9322 29.9541 34.3591C29.9541 36.7861 31.9233 38.7606 34.3438 38.7606ZM34.3438 33.479C34.8279 33.479 35.2217 33.8739 35.2217 34.3592C35.2217 34.8445 34.8278 35.2395 34.3438 35.2395C33.8596 35.2395 33.4658 34.8445 33.4658 34.3592C33.4658 33.8739 33.8597 33.479 34.3438 33.479Z" fill="#F5921C"/>
</svg>
