<svg width="24" height="24" viewBox="0 0 24 24" fill="none" xmlns="http://www.w3.org/2000/svg">
<path d="M20.4853 3.51469C18.2188 1.24823 15.2053 0 12 0C8.79469 0 5.78123 1.24823 3.51469 3.51469C1.24823 5.78123 0 8.79469 0 12C0 15.2053 1.24823 18.2188 3.51469 20.4853C5.78123 22.7518 8.79469 24 12 24C14.1944 24 16.3414 23.402 18.2092 22.2706C18.652 22.0023 18.7935 21.4259 18.5253 20.983C18.257 20.5401 17.6805 20.3986 17.2377 20.6669C15.663 21.6208 13.8518 22.125 12 22.125C6.41705 22.125 1.875 17.583 1.875 12C1.875 6.41705 6.41705 1.875 12 1.875C17.583 1.875 22.125 6.41705 22.125 12C22.125 13.9964 21.5313 15.9396 20.4082 17.6196C20.1204 18.05 20.236 18.6322 20.6664 18.92C21.0969 19.2078 21.6791 19.0921 21.9668 18.6617C23.297 16.6722 24 14.3686 24 12C24 8.79469 22.7518 5.78123 20.4853 3.51469Z" fill="#F5921C"/>
</svg>
