<svg width="57" height="56" viewBox="0 0 57 56" fill="none" xmlns="http://www.w3.org/2000/svg">
<path d="M46.2333 35.4408C47.0994 35.4408 47.8015 34.7369 47.8015 33.8685V24.906C47.8015 21.438 44.9876 18.6165 41.5288 18.6165H35.0707C36.5441 17.9877 37.157 17.5077 37.5019 17.1619C37.5019 17.1619 37.5019 17.1619 37.502 17.1619C39.642 15.0162 39.642 11.5248 37.5019 9.37907C35.3619 7.23334 31.88 7.23334 29.7398 9.37907C29.287 9.83317 28.6034 10.751 27.6562 13.4767C26.7089 10.751 26.0254 9.8331 25.5725 9.37907C23.4325 7.23334 19.9506 7.23334 17.8104 9.37907C15.6704 11.5248 15.6704 15.0162 17.8104 17.1619C17.8105 17.1619 17.8105 17.1619 17.8105 17.1619C18.1554 17.5077 18.7683 17.9878 20.2417 18.6165H13.9289C10.4702 18.6165 7.65625 21.438 7.65625 24.906V41.7303C7.65625 45.1983 10.4702 48.0198 13.9289 48.0198H41.5288C44.9876 48.0198 47.8015 45.1983 47.8015 41.7303C47.8015 40.8619 47.0994 40.1579 46.2333 40.1579C45.3672 40.1579 44.6652 40.8619 44.6652 41.7303C44.6652 43.4643 43.2582 44.8751 41.5288 44.8751H29.2971V21.8362C30.9879 22.1833 32.3752 23.1184 33.4336 24.6301C34.59 26.2817 35.0209 28.1834 35.0209 28.9941C35.0209 29.8626 35.723 30.5665 36.5891 30.5665C37.4552 30.5665 38.1572 29.8626 38.1572 28.9941C38.1572 27.4558 37.4904 24.9512 36.0005 22.8233C35.7574 22.476 35.4763 22.117 35.1554 21.7612H41.5288C43.2582 21.7612 44.6652 23.172 44.6652 24.906V33.8685C44.6652 34.7369 45.3672 35.4408 46.2333 35.4408ZM20.0282 14.9383C19.5838 14.4927 19.3392 13.9004 19.3392 13.2705C19.3392 12.6405 19.5838 12.0482 20.0281 11.6027C20.9453 10.6832 22.4376 10.6832 23.3547 11.6027C23.4243 11.6725 24.066 12.3864 25.1531 15.9167C25.2769 16.3188 25.3932 16.7144 25.4996 17.0889C25.1313 16.9836 24.7424 16.8687 24.3464 16.7463C20.8123 15.6536 20.098 15.0084 20.0282 14.9383ZM26.1607 44.8751H13.9289C12.1996 44.8751 10.7926 43.4643 10.7926 41.7303V24.906C10.7926 23.172 12.1996 21.7612 13.9289 21.7612H19.9912C19.1365 22.6907 18.41 23.8147 17.8236 25.1285C16.3196 28.4985 16.2028 32.0683 16.2028 33.0823C16.2028 33.9507 16.9049 34.6547 17.771 34.6547C18.6371 34.6547 19.3392 33.9507 19.3392 33.0823C19.3392 32.4727 19.4041 29.2864 20.6865 26.413C21.8713 23.7582 23.671 22.2422 26.1607 21.8119V44.8751ZM30.9818 16.7412C30.5808 16.8654 30.1862 16.9819 29.8128 17.0887C29.9192 16.7143 30.0354 16.3187 30.1592 15.9167C31.2462 12.3864 31.888 11.6725 31.9575 11.6026C32.4162 11.1428 33.0184 10.913 33.6209 10.913C34.2232 10.913 34.8257 11.143 35.2842 11.6026C35.7285 12.0482 35.9732 12.6404 35.9732 13.2704C35.9732 13.9003 35.7285 14.4927 35.2842 14.9381C35.2146 15.0079 34.5024 15.6514 30.9818 16.7412Z" fill="#F5921C"/>
</svg>
