<svg width="69" height="69" viewBox="0 0 69 69" fill="none" xmlns="http://www.w3.org/2000/svg">
<path d="M65.7149 47.1549C67.1744 47.1549 68.3575 45.9718 68.3575 44.5123V29.4493C68.3575 23.6207 63.6156 18.8787 57.787 18.8787H46.9039C49.387 17.8219 50.4197 17.0153 51.0009 16.434C54.6072 12.8277 54.6074 6.9599 51.0009 3.35363C47.3947 -0.252642 41.5271 -0.252642 37.9206 3.35363C37.1575 4.11682 36.0055 5.65933 34.4093 10.2405C32.813 5.65933 31.6611 4.11669 30.8979 3.35363C27.2916 -0.252642 21.4241 -0.252642 17.8175 3.35363C14.2112 6.9599 14.2112 12.8277 17.8175 16.434C18.3988 17.0153 19.4316 17.8221 21.9147 18.8787H11.2766C5.448 18.8787 0.706055 23.6207 0.706055 29.4493V57.7254C0.706055 63.554 5.448 68.296 11.2766 68.296H57.787C63.6156 68.296 68.3575 63.554 68.3575 57.7254C68.3575 56.2659 67.1744 55.0828 65.7149 55.0828C64.2554 55.0828 63.0722 56.2659 63.0722 57.7254C63.0722 60.6397 60.7013 63.0107 57.787 63.0107H37.1744V24.29C40.0238 24.8733 42.3615 26.445 44.1452 28.9856C46.0938 31.7614 46.82 34.9576 46.82 36.3201C46.82 37.7796 48.0031 38.9627 49.4627 38.9627C50.9222 38.9627 52.1053 37.7796 52.1053 36.3201C52.1053 33.7347 50.9815 29.5252 48.4709 25.9489C48.0611 25.3653 47.5875 24.7619 47.0466 24.164H57.787C60.7013 24.164 63.0722 26.535 63.0722 29.4493V44.5123C63.0722 45.9718 64.2554 47.1549 65.7149 47.1549ZM21.5549 12.6969C20.8059 11.948 20.3937 10.9525 20.3937 9.89375C20.3937 8.83498 20.8059 7.8395 21.5546 7.09084C23.1003 5.54543 25.615 5.54543 27.1605 7.09084C27.2779 7.20818 28.3592 8.40793 30.1911 14.3413C30.3998 15.017 30.5957 15.6819 30.7751 16.3114C30.1544 16.1343 29.499 15.9413 28.8318 15.7356C22.8762 13.8991 21.6725 12.8147 21.5549 12.6969ZM31.8891 63.0107H11.2766C8.3623 63.0107 5.99132 60.6397 5.99132 57.7254V29.4493C5.99132 26.535 8.3623 24.164 11.2766 24.164H21.4925C20.0523 25.726 18.8279 27.6151 17.8397 29.8233C15.3053 35.4871 15.1084 41.4869 15.1084 43.191C15.1084 44.6505 16.2915 45.8336 17.7511 45.8336C19.2106 45.8336 20.3937 44.6505 20.3937 43.191C20.3937 42.1664 20.5031 36.8114 22.6642 31.9821C24.6608 27.5203 27.6936 24.9724 31.8891 24.2491V63.0107ZM40.0134 15.727C39.3377 15.9356 38.6728 16.1316 38.0434 16.311C38.2229 15.6817 38.4187 15.0169 38.6273 14.3412C40.4591 8.40793 41.5406 7.20804 41.6578 7.09071C42.4308 6.31787 43.4455 5.93165 44.4608 5.93165C45.4759 5.93165 46.491 6.31814 47.2637 7.09071C48.0125 7.8395 48.4248 8.83485 48.4248 9.89362C48.4248 10.9524 48.0125 11.9479 47.2637 12.6965C47.1464 12.8139 45.9463 13.8954 40.0134 15.727Z" fill="white"/>
</svg>
