<svg width="86" height="66" viewBox="0 0 86 66" fill="none" xmlns="http://www.w3.org/2000/svg">
<g opacity="0.5">
<g opacity="0.5">
<path opacity="0.5" d="M68.9763 8.65625C68.8656 8.65625 68.758 8.65929 68.6504 8.66233C69.9603 8.70794 71.1995 8.96642 72.3126 9.41343C71.304 8.92993 70.1725 8.65625 68.9763 8.65625Z" fill="white"/>
</g>
</g>
<g opacity="0.5">
<g opacity="0.5">
<path opacity="0.5" d="M74.7879 21.063C74.5017 21.3762 74.197 21.6772 73.877 21.96C74.2062 21.6894 74.5109 21.3884 74.7879 21.063Z" fill="white"/>
</g>
</g>
<path d="M55.7295 26.1564C55.9942 25.3384 56.2927 24.5386 56.6281 23.7632C56.2619 24.566 55.948 25.3809 55.7295 26.1564Z" fill="white"/>
<path d="M59.9043 18.0747C59.9043 18.0747 59.9011 18.0811 59.8916 18.0938C59.8948 18.0875 59.9011 18.0811 59.9043 18.0747Z" fill="white"/>
<path d="M50.6105 1.74677C46.7422 4.5535 49.0269 9.89023 49.0269 9.89023C22.2197 -11.7334 3.69941 10.1153 8.76381 26.7032C8.88988 27.1228 8.9975 27.5151 9.0713 27.8831C9.1943 28.324 9.26195 28.7892 9.26195 29.2697C9.26195 32.122 6.92193 34.4361 4.03764 34.4361C2.86302 34.4361 1.77758 34.053 0.904297 33.4053C1.93132 38.8332 9.73549 39.9614 12.2569 35.5096C14.2741 39.2073 17.472 39.9614 17.472 39.9614C19.5506 37.4192 18.2838 32.7363 18.2838 32.7363C23.8033 34.1381 29.3597 29.1998 25.5006 21.2053C25.5006 21.2053 25.4545 27.7614 18.3699 26.9799C7.30014 25.7636 10.7717 5.484 27.5116 5.484C39.347 5.484 46.2472 13.5119 50.8503 18.0671C50.8503 18.0671 52.1848 16.0602 54.0329 14.4819C53.9314 14.3086 53.8361 14.1383 53.75 13.968C53.7438 13.9528 53.7346 13.9407 53.7285 13.9285C50.5736 7.80723 54.7463 3.13341 60.5148 5.75768C58.0426 0.977433 53.3533 -0.244999 50.6105 1.74677Z" fill="white"/>
<path d="M12.4219 54.4961C13.1014 55.3688 13.9932 56.0226 15.0294 56.4514C14.0208 55.9983 13.1291 55.3262 12.4219 54.4961Z" fill="white"/>
<g opacity="0.5">
<g opacity="0.5">
<path opacity="0.5" d="M15.0293 56.4521C15.9671 56.8718 17.0065 57.109 18.1011 57.109C18.4517 57.109 18.7961 57.0847 19.1343 57.039C17.6338 57.1485 16.2316 56.9509 15.0293 56.4521Z" fill="white"/>
</g>
</g>
<path d="M23.5938 50.5715C23.5994 50.5659 23.6078 50.5602 23.6163 50.5518C23.6078 50.5602 23.6022 50.5659 23.5938 50.5715Z" fill="white"/>
<path d="M23.1484 50.9456C23.1549 50.9424 23.1614 50.9359 23.1647 50.9326C23.1614 50.9359 23.1549 50.9391 23.1484 50.9456Z" fill="white"/>
<path d="M22.9941 51.0718C23.0063 51.0627 23.0154 51.0535 23.0276 51.0444C23.0154 51.0535 23.0033 51.0627 22.9941 51.0718Z" fill="white"/>
<path d="M24.3428 49.8696C24.37 49.8425 24.3971 49.8153 24.4213 49.7881C24.3941 49.8153 24.37 49.8425 24.3428 49.8696Z" fill="white"/>
<path d="M23.8691 50.3263C23.891 50.3045 23.916 50.2826 23.9379 50.2607C23.916 50.2826 23.8941 50.3045 23.8691 50.3263Z" fill="white"/>
<path d="M24.502 49.708C24.5292 49.6807 24.5565 49.6503 24.5838 49.623C24.5565 49.6534 24.5292 49.6807 24.502 49.708Z" fill="white"/>
<path d="M24.0283 50.18C24.0527 50.1557 24.077 50.1313 24.1014 50.1069C24.077 50.1343 24.0527 50.1587 24.0283 50.18Z" fill="white"/>
<path d="M22.0713 51.7064C22.0777 51.7032 22.084 51.7 22.0904 51.6968C22.084 51.7 22.0777 51.7032 22.0713 51.7064Z" fill="white"/>
<path d="M22.2158 51.6176C22.2243 51.6119 22.2327 51.6062 22.2412 51.6006C22.2327 51.6062 22.2243 51.6119 22.2158 51.6176Z" fill="white"/>
<path d="M22.5205 51.4115C22.5324 51.4026 22.5443 51.3936 22.5562 51.3877C22.5443 51.3936 22.5324 51.4026 22.5205 51.4115Z" fill="white"/>
<path d="M22.3711 51.5154C22.3802 51.5093 22.3924 51.5002 22.4046 51.4941C22.3924 51.5002 22.3802 51.5063 22.3711 51.5154Z" fill="white"/>
<path d="M22.6758 51.2983C22.6877 51.2893 22.6996 51.2804 22.7115 51.2715C22.7026 51.2804 22.6907 51.2893 22.6758 51.2983Z" fill="white"/>
<path d="M22.835 51.1865C22.8469 51.1775 22.8588 51.1686 22.8707 51.1597C22.8617 51.1686 22.8498 51.1775 22.835 51.1865Z" fill="white"/>
<path d="M23.7197 50.4621C23.7405 50.4443 23.7583 50.4294 23.7761 50.4116C23.7583 50.4294 23.7405 50.4443 23.7197 50.4621Z" fill="white"/>
<path d="M24.2621 49.9473C24.238 49.9714 24.2108 49.9986 24.1836 50.0228C24.2108 49.9986 24.2349 49.9744 24.2621 49.9473Z" fill="white"/>
<path d="M24.9746 49.1947C25.0054 49.1608 25.0362 49.1239 25.067 49.0869C25.0362 49.1208 25.0054 49.1577 24.9746 49.1947Z" fill="white"/>
<path d="M24.8213 49.3674C24.8514 49.3343 24.8786 49.3042 24.9087 49.271C24.8786 49.3042 24.8514 49.3373 24.8213 49.3674Z" fill="white"/>
<path d="M25.1357 49.0104C25.1699 48.9705 25.2071 48.9307 25.2413 48.8877C25.204 48.9307 25.1699 48.9705 25.1357 49.0104Z" fill="white"/>
<path d="M24.6621 49.5353C24.6892 49.5051 24.7164 49.475 24.7465 49.4448C24.7194 49.478 24.6922 49.5081 24.6621 49.5353Z" fill="white"/>
<path d="M25.2949 48.8323C25.3477 48.7679 25.4005 48.7065 25.4533 48.6421C25.4005 48.7065 25.3477 48.7679 25.2949 48.8323Z" fill="white"/>
<path d="M22.3994 51.495C22.4398 51.467 22.4802 51.4391 22.5205 51.4111C22.4833 51.4391 22.4429 51.467 22.3994 51.495Z" fill="white"/>
<path d="M22.7129 51.2741C22.7533 51.2462 22.7936 51.2151 22.834 51.1841C22.7936 51.2151 22.7533 51.2462 22.7129 51.2741Z" fill="white"/>
<path d="M24.3441 49.8696C24.3169 49.8968 24.2928 49.924 24.2656 49.9481C24.2898 49.9209 24.3169 49.8938 24.3441 49.8696Z" fill="white"/>
<path d="M22.5596 51.3873C22.5999 51.3593 22.6403 51.3314 22.6807 51.3003C22.6372 51.3314 22.5968 51.3593 22.5596 51.3873Z" fill="white"/>
<path d="M21.9258 51.7926C21.9719 51.7649 22.0179 51.7342 22.0671 51.7065C22.021 51.7342 21.9749 51.7649 21.9258 51.7926Z" fill="white"/>
<path d="M24.584 49.6225C24.6081 49.5954 24.6353 49.5682 24.6595 49.541C24.6323 49.5682 24.6081 49.5954 24.584 49.6225Z" fill="white"/>
<path d="M20.5918 52.4255C21.0257 52.2735 21.4719 52.0606 21.9274 51.793C21.4719 52.0606 21.0257 52.2735 20.5918 52.4255Z" fill="white"/>
<path d="M22.085 51.7021C22.128 51.6744 22.171 51.6468 22.2171 51.6191C22.171 51.6468 22.128 51.6744 22.085 51.7021Z" fill="white"/>
<path d="M22.2451 51.6015C22.2851 51.5738 22.3281 51.5462 22.3711 51.5186C22.3281 51.5462 22.2851 51.5738 22.2451 51.6015Z" fill="white"/>
<path d="M23.9424 50.2606C23.9697 50.2333 24 50.206 24.0273 50.1787C24 50.206 23.9697 50.2333 23.9424 50.2606Z" fill="white"/>
<path d="M24.9072 49.2719C24.9314 49.2447 24.9525 49.2205 24.9767 49.1934C24.9525 49.2205 24.9284 49.2477 24.9072 49.2719Z" fill="white"/>
<path d="M24.1006 50.1078C24.1278 50.0807 24.155 50.0535 24.1821 50.0293C24.155 50.0535 24.1278 50.0807 24.1006 50.1078Z" fill="white"/>
<path d="M24.749 49.4457C24.7732 49.4185 24.7973 49.3944 24.8215 49.3672C24.7973 49.3944 24.7732 49.4216 24.749 49.4457Z" fill="white"/>
<path d="M24.4189 49.7866C24.4461 49.7595 24.4703 49.7323 24.4975 49.7051C24.4703 49.7323 24.4461 49.7595 24.4189 49.7866Z" fill="white"/>
<path d="M23.7773 50.4081C23.8075 50.381 23.8376 50.3539 23.8677 50.3237C23.8376 50.3509 23.8075 50.381 23.7773 50.4081Z" fill="white"/>
<path d="M23.6172 50.5481C23.6499 50.5184 23.6825 50.4887 23.7152 50.459C23.6825 50.4887 23.6499 50.5184 23.6172 50.5481Z" fill="white"/>
<path d="M22.874 51.162C22.9144 51.131 22.9547 51.0999 22.9951 51.0688C22.9547 51.103 22.9144 51.131 22.874 51.162Z" fill="white"/>
<path d="M23.0273 51.0412C23.0673 51.0074 23.1103 50.9767 23.1533 50.9429C23.1103 50.9767 23.0673 51.0074 23.0273 51.0412Z" fill="white"/>
<path d="M25.2363 48.8936C25.2543 48.8726 25.2723 48.8516 25.2903 48.8306C25.2723 48.8516 25.2543 48.8726 25.2363 48.8936Z" fill="white"/>
<path d="M23.1631 50.9265C23.3046 50.814 23.4493 50.6955 23.5908 50.5708C23.4493 50.6955 23.3077 50.814 23.1631 50.9265Z" fill="white"/>
<path d="M25.0723 49.0897C25.0934 49.0655 25.1146 49.0413 25.1357 49.0142C25.1146 49.0413 25.0934 49.0655 25.0723 49.0897Z" fill="white"/>
<path d="M21.5273 41.541C21.6324 41.5348 21.7344 41.5286 21.8394 41.5225C21.7344 41.5286 21.6324 41.5348 21.5273 41.541Z" fill="white"/>
<path d="M21.5029 41.5449C21.5093 41.5449 21.5158 41.5449 21.5254 41.5449C21.519 41.5417 21.5093 41.5417 21.5029 41.5449Z" fill="white"/>
<path d="M73.8419 30.6056C71.8247 26.9079 68.6268 26.1538 68.6268 26.1538C66.5481 28.696 67.815 33.3789 67.815 33.3789C62.2986 31.974 56.7391 36.9154 60.5982 44.9099C60.5982 44.9099 60.6412 38.3538 67.7289 39.1322C78.8017 40.3486 75.3271 60.6281 58.5872 60.6281C46.8686 60.6281 39.8147 52.2353 35.2054 47.6467C34.2276 49.3313 33.0468 50.8365 32.1613 51.8704C35.5252 57.3501 30.5869 62.6351 25.584 60.3605C28.0439 64.5204 32.2289 66.3115 34.9933 64.3471C39.7286 60.9809 37.0719 56.231 37.0719 56.231C63.8822 77.8516 83.9307 55.4799 77.335 39.415C77.1689 39.0106 77.1013 38.6031 77.0275 38.2352C76.9045 37.7943 76.8368 37.329 76.8368 36.8485C76.8368 33.9932 79.1769 31.6821 82.0611 31.6821C83.2358 31.6821 84.3212 32.0653 85.1945 32.713C84.1675 27.285 76.3633 26.1538 73.8419 30.6056Z" fill="white"/>
<path d="M26.5791 47.119C26.7022 46.9366 26.8222 46.7511 26.9453 46.5626C26.9361 46.5565 26.9299 46.5534 26.9207 46.5474C26.7145 46.8971 26.5822 47.116 26.5791 47.119Z" fill="white"/>
<path d="M72.3099 9.4192C71.1968 8.97219 69.9576 8.71372 68.6477 8.66811C65.4375 8.55864 61.7875 9.73241 58.4451 12.5787C57.8055 13.123 57.1782 13.7281 56.5663 14.3971C56.4956 14.4731 56.4218 14.5491 56.348 14.6252C56.0866 14.911 54.0356 17.1704 52.3106 19.4784C52.3137 19.4814 52.3137 19.4814 52.3168 19.4845C49.0297 23.9515 46.17 29.0754 43.7316 33.9408C43.7316 33.9408 41.453 27.2326 37.9538 23.5896C33.532 18.9827 33.735 11.3532 41.3577 14.4883C41.3577 14.4883 36.9145 7.34837 30.7308 13.6734C30.7308 13.6734 19.4397 9.72025 17.8807 21.2634C28.7598 10.374 34.4238 26.2018 29.7806 40.433C29.4731 41.3818 29.1287 42.2788 28.7567 43.1272C28.2032 44.3892 27.5913 45.5356 26.9394 46.5634C26.8195 46.7519 26.6965 46.9374 26.5735 47.1199L26.4843 47.2506C26.143 47.7463 25.7955 48.2116 25.4419 48.6434C25.3896 48.7072 25.3374 48.7711 25.2851 48.8319C25.2666 48.8532 25.2482 48.8745 25.2297 48.8957C25.1959 48.9353 25.1621 48.9778 25.1252 49.0174C25.1037 49.0417 25.0821 49.066 25.0606 49.0934C25.0299 49.1299 24.9991 49.1633 24.9684 49.1998C24.9438 49.2272 24.9222 49.2515 24.8976 49.2789C24.8669 49.3123 24.8392 49.3428 24.8085 49.3762C24.7839 49.4036 24.7593 49.4279 24.7347 49.4553C24.707 49.4857 24.6793 49.5161 24.6486 49.5465C24.624 49.5739 24.5994 49.6012 24.5717 49.6286C24.544 49.656 24.5164 49.6864 24.4887 49.7137C24.4641 49.7411 24.4364 49.7685 24.4087 49.7958C24.3811 49.8232 24.3565 49.8506 24.3288 49.8779C24.3011 49.9053 24.2765 49.9327 24.2488 49.957C24.2242 49.9813 24.1966 50.0087 24.1689 50.033C24.1412 50.0604 24.1135 50.0878 24.0859 50.1121C24.0613 50.1364 24.0367 50.1608 24.0121 50.1851C23.9844 50.2124 23.9536 50.2398 23.926 50.2672C23.9044 50.2885 23.8798 50.3097 23.8583 50.331C23.8276 50.3584 23.7968 50.3888 23.7661 50.4162C23.7476 50.4344 23.7261 50.4527 23.7076 50.4679C23.6738 50.4983 23.64 50.5287 23.6062 50.5591C23.597 50.5652 23.5908 50.5713 23.5816 50.5804C23.4401 50.7051 23.2956 50.8237 23.1542 50.9362C23.148 50.9392 23.1449 50.9453 23.1388 50.9483C23.0957 50.9818 23.0558 51.0152 23.0127 51.0456C23.0004 51.0548 22.9912 51.0639 22.9789 51.073C22.9389 51.1034 22.8989 51.1338 22.859 51.1642C22.8467 51.1734 22.8344 51.1825 22.8221 51.1916C22.7821 51.222 22.7421 51.2494 22.7021 51.2798C22.6898 51.2889 22.6775 51.298 22.6652 51.3072C22.6253 51.3345 22.5853 51.3649 22.5453 51.3923C22.533 51.4014 22.5207 51.4105 22.5084 51.4166C22.4685 51.444 22.4285 51.4714 22.3885 51.4987C22.3762 51.5048 22.367 51.5139 22.3547 51.52C22.3147 51.5474 22.2717 51.5747 22.2286 51.6021C22.2194 51.6082 22.2102 51.6143 22.2009 51.6204C22.1579 51.6477 22.1148 51.6751 22.0687 51.7025C22.0626 51.7055 22.0564 51.7085 22.0503 51.7116C22.0041 51.739 21.958 51.7694 21.9088 51.7967C21.4537 52.0643 21.0079 52.2772 20.5712 52.4292C20.0977 52.6573 19.5657 52.785 19.003 52.785C17.0258 52.785 15.4238 51.2007 15.4238 49.2454C15.4238 48.0413 16.0326 46.98 16.9582 46.3414C17.0412 46.2836 17.1273 46.2289 17.2165 46.1772C18.0713 45.639 21.6106 44.5169 25.2574 45.7971C26.2076 44.3861 26.6996 43.1941 26.9394 42.4552C24.4948 41.7071 19.907 40.8679 15.2147 42.9813C12.5334 44.0912 10.6484 46.7094 10.6484 49.7654C10.6484 51.5717 11.3065 53.2259 12.3981 54.5031C13.1053 55.3333 13.997 56.0053 15.0056 56.4584C16.2079 56.9571 17.607 57.1547 19.1106 57.0422C22.8805 56.7625 27.2961 54.5305 30.8261 50.1851C31.7916 48.9991 32.6895 47.6551 33.489 46.1498C35.6445 42.0994 37.099 36.8813 37.2404 30.4346C37.2404 30.4346 42.4862 36.7384 44.076 45.566C44.076 45.566 47.2677 35.3882 50.2873 30.5715C49.946 35.1145 50.3519 40.1715 52.0308 44.8453C52.1815 45.563 52.3168 46.1073 52.4305 46.3749C54.2909 50.7932 52.5074 55.5552 46.9172 54.6278C46.9172 54.6278 54.2017 59.2347 57.0029 52.6086C57.0029 52.6086 63.5126 55.2025 66.9227 51.146C70.3328 47.0895 69.1182 42.887 66.9688 41.3483C66.9688 41.3483 68.6508 47.0074 63.4449 48.7832C59.8411 50.0087 53.1009 46.0312 54.5953 31.3773C54.7767 29.5984 55.1641 27.8408 55.7053 26.1592C55.9236 25.3838 56.2373 24.5688 56.6032 23.766C56.7416 23.4589 56.8892 23.1518 57.0398 22.8477C57.827 21.2695 58.7188 19.8311 59.2907 18.9523C59.6013 18.4779 59.8165 18.1678 59.8688 18.0948C59.878 18.0826 59.8811 18.0766 59.8811 18.0766C60.3485 17.4501 60.8343 16.8511 61.3355 16.2916C63.491 13.9957 65.4006 12.5422 67.0887 12.2016C67.3901 12.1317 67.7006 12.0921 68.0235 12.0921C70.262 12.0921 72.0762 13.8862 72.0762 16.1C72.0762 16.7933 71.8979 17.444 71.5843 18.0127C70.7663 19.6304 68.5093 20.8468 64.4904 20.4788C64.4904 20.4788 63.6448 20.3815 62.4087 20.0592C61.9782 19.9467 61.4954 19.8038 60.9881 19.6304C60.1148 20.6491 59.3153 22.2304 58.7095 23.6261C58.8664 23.69 59.0263 23.7538 59.1861 23.8177C59.9334 24.137 61.4462 24.6935 63.368 24.952C65.5881 25.25 68.3525 25.1466 71.1076 23.8086C72.0824 23.3342 73.0202 22.7048 73.8535 21.9658C74.1733 21.683 74.4778 21.382 74.7637 21.0688C75.8891 19.7551 76.5687 18.0553 76.5687 16.2003C76.5933 13.2172 74.8467 10.6416 72.3099 9.4192Z" fill="white"/>
<path d="M26.4873 47.2483L26.5764 47.1177C26.5488 47.1602 26.518 47.2027 26.4873 47.2483Z" fill="white"/>
</svg>
