<svg width="85" height="82" viewBox="0 0 85 82" fill="none" xmlns="http://www.w3.org/2000/svg">
<path d="M82.1244 35.3445L78.3578 30.4438C78.2922 30.0124 78.3028 29.1596 78.3096 28.6233C78.3125 28.3888 78.3153 28.1597 78.3153 27.9404V21.7407C78.3153 17.69 75.5615 14.3804 71.1286 13.1039L64.933 11.3194C64.3304 11.146 63.805 10.7688 63.4534 10.2573L59.8215 4.97699C57.4439 1.52074 53.0149 0.0910524 49.0514 1.50005L42.9594 3.66602C42.3662 3.87668 41.7133 3.87668 41.1206 3.66602L35.0287 1.50038C31.0651 0.0913808 26.6362 1.52091 24.2587 4.97732L20.6266 10.2577C20.2931 10.7425 19.8033 11.1067 19.2398 11.2911L12.7857 12.6471C12.7071 12.6637 12.6292 12.6831 12.5521 12.7052C8.44444 13.8883 5.66042 17.6217 5.76453 21.7967V28.1617C5.76453 28.3831 5.76912 28.6149 5.77405 28.8533C5.7839 29.3254 5.79967 30.0966 5.71888 30.4122L1.95164 35.3492C-0.645185 38.6822 -0.644035 43.3262 1.95509 46.658L5.7284 51.5725C5.79753 51.8712 5.7844 52.6264 5.77454 53.1871C5.76945 53.4745 5.76453 53.7684 5.76453 54.0679V60.4441C5.67011 64.3573 8.41882 67.5942 12.9512 68.8994L19.1468 70.6838C19.7494 70.8573 20.2749 71.2343 20.6266 71.7458L24.2584 77.026C26.0232 79.592 28.918 81.0409 31.9147 81.0407C32.9546 81.0405 34.0073 80.866 35.0286 80.5029L41.1202 78.3373C41.7135 78.1266 42.3664 78.1266 42.9591 78.3373L49.0509 80.5029C50.0724 80.8661 51.1246 81.0407 52.1648 81.0407C55.1611 81.0407 58.0563 79.5916 59.821 77.026L63.4531 71.7457C63.8048 71.2345 64.3302 70.8573 64.9327 70.6838L71.1283 68.8994C75.1568 67.7393 78.4473 63.1311 78.3135 58.8367C78.257 57.0241 76.7356 55.5958 74.929 55.6568C73.1164 55.7133 71.6926 57.2284 71.7491 59.0413C71.7885 60.3062 70.4439 62.2621 69.3106 62.5884L63.115 64.3727C61.0549 64.9662 59.2532 66.2627 58.0419 68.0237L54.4099 73.3041C53.7157 74.3136 52.4167 74.7292 51.2509 74.3149L45.1589 72.1493C43.1478 71.4343 40.9324 71.4342 38.9206 72.1493L32.8288 74.3149C31.6628 74.7293 30.3642 74.3137 29.6696 73.3041L26.0378 68.0239C24.8267 66.2629 23.0249 64.9662 20.9647 64.3729L14.7691 62.5886C14.5154 62.5153 12.2918 61.8386 12.3306 60.5914C12.3317 60.5574 12.3322 60.5232 12.3322 60.4891V54.068C12.3322 53.8076 12.337 53.5516 12.3412 53.3017C12.3711 51.5911 12.4081 49.4635 10.9815 47.6298L7.15645 42.6483C7.15005 42.6399 7.14348 42.6315 7.13707 42.6233C6.38914 41.6685 6.38914 40.3348 7.13707 39.3802C7.14545 39.3693 7.15399 39.3583 7.16236 39.3473L10.9849 34.3378C12.4182 32.4912 12.3713 30.2214 12.3402 28.7177C12.3363 28.5261 12.3322 28.3395 12.3322 28.1617V21.751C12.3322 21.717 12.3317 21.6829 12.3306 21.6487C12.2951 20.5047 13.108 19.4245 14.2762 19.045L20.731 17.6889C20.8097 17.6723 20.8875 17.6529 20.9647 17.6307C23.0247 17.0373 24.8265 15.7408 26.0378 13.9797L29.6698 8.6994C30.364 7.68974 31.6625 7.27398 32.8288 7.68859L38.9208 9.85422C40.9319 10.5691 43.1473 10.5691 45.1591 9.85422L51.2509 7.68859C52.417 7.27415 53.7155 7.6899 54.4099 8.6994L58.0419 13.9796C59.253 15.7408 61.0548 17.0375 63.115 17.6307L69.3106 19.4151C70.2207 19.6772 71.7475 20.3279 71.7475 21.7408V27.9405C71.7475 28.1335 71.745 28.3348 71.7424 28.5408C71.7183 30.4525 71.6885 32.8133 73.1854 34.492L76.9242 39.3565C76.9303 39.3644 76.9365 39.3725 76.9426 39.3803C77.6905 40.3352 77.6905 41.6686 76.9426 42.6235C75.8241 44.0512 76.0751 46.1153 77.5029 47.2335C78.9307 48.3517 80.9944 48.1012 82.1129 46.6731C84.725 43.3392 84.7286 38.6833 82.1244 35.3445Z" fill="white"/>
<path d="M31.9113 60.3345C32.4078 60.603 32.9426 60.7303 33.4699 60.7303C34.6372 60.7303 35.7676 60.1061 36.3615 59.0073L54.1116 26.1697C54.9741 24.5745 54.3799 22.5819 52.7845 21.7195C51.189 20.8568 49.1964 21.4514 48.3343 23.0467L30.5842 55.8844C29.7217 57.4796 30.3159 59.4722 31.9113 60.3345Z" fill="white"/>
<path d="M36.62 29.5332C36.62 25.0066 32.9373 21.3237 28.4107 21.3237C23.884 21.3237 20.2012 25.0064 20.2012 29.5332C20.2012 34.0601 23.8838 37.7426 28.4107 37.7426C32.9373 37.7426 36.62 34.0599 36.62 29.5332ZM28.4107 31.1751C27.5053 31.1751 26.7688 30.4385 26.7688 29.5332C26.7688 28.628 27.5054 27.8914 28.4107 27.8914C29.3161 27.8914 30.0525 28.628 30.0525 29.5332C30.0525 30.4385 29.3159 31.1751 28.4107 31.1751Z" fill="white"/>
<path d="M55.5063 60.7235C60.0329 60.7235 63.7158 57.0408 63.7158 52.514C63.7158 47.9872 60.0331 44.3047 55.5063 44.3047C50.9796 44.3047 47.2969 47.9874 47.2969 52.514C47.2969 57.0407 50.9796 60.7235 55.5063 60.7235ZM55.5063 50.8723C56.4117 50.8723 57.1481 51.6089 57.1481 52.5142C57.1481 53.4194 56.4115 54.156 55.5063 54.156C54.6009 54.156 53.8644 53.4194 53.8644 52.5142C53.8644 51.6089 54.601 50.8723 55.5063 50.8723Z" fill="white"/>
</svg>
