<svg width="128" height="39" viewBox="0 0 128 39" fill="none" xmlns="http://www.w3.org/2000/svg">
<g clip-path="url(#clip0)">
<path d="M123.259 0.351562H4.74074C2.1225 0.351562 0 2.47406 0 5.0923V33.5367C0 36.155 2.1225 38.2775 4.74074 38.2775H123.259C125.877 38.2775 128 36.155 128 33.5367V5.0923C128 2.47406 125.877 0.351562 123.259 0.351562Z" fill="#273142"/>
<path d="M123.259 1.11008C124.315 1.11008 125.328 1.52964 126.075 2.27645C126.822 3.02326 127.241 4.03615 127.241 5.0923V33.5367C127.241 34.5929 126.822 35.6058 126.075 36.3526C125.328 37.0994 124.315 37.519 123.259 37.519H4.74074C3.68459 37.519 2.6717 37.0994 1.92488 36.3526C1.17807 35.6058 0.758519 34.5929 0.758519 33.5367V5.0923C0.758519 4.03615 1.17807 3.02326 1.92488 2.27645C2.6717 1.52964 3.68459 1.11008 4.74074 1.11008H123.259ZM123.259 0.351562H4.74074C3.48342 0.351563 2.27759 0.851032 1.38853 1.74009C0.499469 2.62915 0 3.83498 0 5.0923V33.5367C0 34.7941 0.499469 35.9999 1.38853 36.889C2.27759 37.778 3.48342 38.2775 4.74074 38.2775H123.259C124.517 38.2775 125.722 37.778 126.611 36.889C127.501 35.9999 128 34.7941 128 33.5367V5.0923C128 3.83498 127.501 2.62915 126.611 1.74009C125.722 0.851032 124.517 0.351563 123.259 0.351562Z" fill="#A6A6A6"/>
<path d="M30.4471 18.666C30.4209 15.7543 32.8312 14.3378 32.9414 14.2719C31.5764 12.2817 29.4606 12.0097 28.7171 11.9881C26.9401 11.8011 25.2164 13.0514 24.3112 13.0514C23.3879 13.0514 21.994 12.0061 20.4916 12.0368C18.5583 12.0667 16.7497 13.186 15.7578 14.9241C13.7107 18.4682 15.2374 23.6763 17.1987 26.541C18.1798 27.9439 19.3262 29.5104 20.8268 29.4553C22.2948 29.3948 22.8432 28.5194 24.6147 28.5194C26.37 28.5194 26.885 29.4553 28.4153 29.4201C29.9909 29.3948 30.9828 28.0108 31.9296 26.5952C33.0634 24.9871 33.5187 23.4034 33.5367 23.3221C33.4997 23.3095 30.4769 22.1558 30.4471 18.666Z" fill="white"/>
<path d="M27.5562 10.1037C28.3458 9.11626 28.886 7.7729 28.736 6.40967C27.5932 6.46026 26.1641 7.20014 25.3411 8.16588C24.6129 9.01688 23.9625 10.4117 24.1305 11.7235C25.4142 11.8192 26.7323 11.0757 27.5562 10.1037Z" fill="white"/>
<path d="M51.6924 29.2546H49.6408L48.517 25.7232H44.6107L43.5401 29.2546H41.5427L45.4129 17.2322H47.8033L51.6924 29.2546ZM48.1782 24.2417L47.1619 21.1023C47.0544 20.7816 46.8529 20.0264 46.5557 18.8375H46.5196C46.4012 19.3488 46.2106 20.1041 45.9486 21.1023L44.9504 24.2417H48.1782Z" fill="white"/>
<path d="M61.6447 24.8141C61.6447 26.2884 61.2463 27.4538 60.4495 28.3094C59.7358 29.0709 58.8496 29.4513 57.7917 29.4513C56.6498 29.4513 55.8295 29.0411 55.3299 28.2208H55.2938V32.7875H53.3678V23.44C53.3678 22.5131 53.3434 21.5618 53.2964 20.5862H54.9903L55.0978 21.9602H55.1339C55.7762 20.9249 56.751 20.4082 58.0591 20.4082C59.0818 20.4082 59.9355 20.812 60.6185 21.6206C61.3032 22.43 61.6447 23.4942 61.6447 24.8141ZM59.6825 24.8846C59.6825 24.0408 59.4928 23.3452 59.1116 22.7977C58.6951 22.2268 58.1359 21.9413 57.4349 21.9413C56.9597 21.9413 56.5279 22.1003 56.1421 22.4138C55.7554 22.7299 55.5025 23.1428 55.3841 23.6541C55.3245 23.8926 55.2947 24.0878 55.2947 24.2413V25.6868C55.2947 26.3174 55.488 26.8495 55.8747 27.284C56.2614 27.7185 56.7636 27.9353 57.3816 27.9353C58.107 27.9353 58.6716 27.6553 59.0754 27.097C59.4802 26.5378 59.6825 25.8006 59.6825 24.8846Z" fill="white"/>
<path d="M71.6162 24.8141C71.6162 26.2884 71.2178 27.4538 70.4201 28.3094C69.7073 29.0709 68.8211 29.4513 67.7632 29.4513C66.6213 29.4513 65.801 29.0411 65.3024 28.2208H65.2662V32.7875H63.3402V23.44C63.3402 22.5131 63.3158 21.5618 63.2688 20.5862H64.9627L65.0702 21.9602H65.1063C65.7477 20.9249 66.7225 20.4082 68.0315 20.4082C69.0533 20.4082 69.907 20.812 70.5918 21.6206C71.2738 22.43 71.6162 23.4942 71.6162 24.8141ZM69.654 24.8846C69.654 24.0408 69.4634 23.3452 69.0822 22.7977C68.6657 22.2268 68.1083 21.9413 67.4064 21.9413C66.9303 21.9413 66.4994 22.1003 66.1127 22.4138C65.7261 22.7299 65.474 23.1428 65.3557 23.6541C65.2969 23.8926 65.2662 24.0878 65.2662 24.2413V25.6868C65.2662 26.3174 65.4595 26.8495 65.8444 27.284C66.2311 27.7176 66.7333 27.9353 67.3531 27.9353C68.0785 27.9353 68.6431 27.6553 69.047 27.097C69.4517 26.5378 69.654 25.8006 69.654 24.8846Z" fill="white"/>
<path d="M82.7642 25.8833C82.7642 26.9059 82.4091 27.738 81.6963 28.3803C80.9131 29.0822 79.8227 29.4328 78.4215 29.4328C77.1278 29.4328 76.0907 29.1834 75.3057 28.6838L75.7519 27.0785C76.5975 27.5898 77.5253 27.8464 78.5362 27.8464C79.2617 27.8464 79.8263 27.682 80.2319 27.3549C80.6357 27.0279 80.8372 26.5888 80.8372 26.0414C80.8372 25.5535 80.671 25.1425 80.3376 24.8091C80.0061 24.4758 79.4523 24.1659 78.679 23.8795C76.574 23.0945 75.5225 21.9445 75.5225 20.4322C75.5225 19.4438 75.8911 18.6335 76.6292 18.0029C77.3645 17.3714 78.3456 17.0562 79.5724 17.0562C80.6664 17.0562 81.5753 17.2468 82.3007 17.6271L81.8192 19.1972C81.1416 18.8286 80.3756 18.6443 79.5182 18.6443C78.8407 18.6443 78.3113 18.8115 77.9319 19.1439C77.6111 19.4411 77.4503 19.8034 77.4503 20.2325C77.4503 20.7077 77.6337 21.1007 78.0023 21.4096C78.323 21.6951 78.9057 22.0041 79.7513 22.3374C80.7857 22.7539 81.5455 23.2408 82.0342 23.7991C82.5211 24.3556 82.7642 25.0522 82.7642 25.8833Z" fill="white"/>
<path d="M89.1315 22.0303H87.0085V26.2392C87.0085 27.3098 87.3825 27.8446 88.1324 27.8446C88.4766 27.8446 88.762 27.8148 88.9879 27.7551L89.0412 29.2177C88.6618 29.3596 88.1622 29.4309 87.5433 29.4309C86.7827 29.4309 86.1882 29.1988 85.7591 28.7353C85.3318 28.271 85.1168 27.4922 85.1168 26.3982V22.0285H83.8521V20.583H85.1168V18.9958L87.0085 18.4248V20.583H89.1315V22.0303Z" fill="white"/>
<path d="M98.7108 24.8494C98.7108 26.1819 98.3296 27.2759 97.5689 28.1315C96.7712 29.0123 95.7124 29.4513 94.3925 29.4513C93.1206 29.4513 92.1078 29.0294 91.3526 28.1857C90.5973 27.3419 90.2197 26.2768 90.2197 24.993C90.2197 23.6497 90.6082 22.5493 91.3878 21.6938C92.1657 20.8374 93.2154 20.4092 94.5353 20.4092C95.8073 20.4092 96.8308 20.8311 97.6032 21.6757C98.3422 22.4951 98.7108 23.553 98.7108 24.8494ZM96.7125 24.9117C96.7125 24.1122 96.5417 23.4265 96.1957 22.8547C95.7919 22.1627 95.2146 21.8176 94.4666 21.8176C93.6924 21.8176 93.1043 22.1636 92.7005 22.8547C92.3545 23.4274 92.1837 24.124 92.1837 24.9479C92.1837 25.7474 92.3545 26.4331 92.7005 27.004C93.1169 27.696 93.6987 28.0411 94.4494 28.0411C95.1848 28.0411 95.7621 27.6888 96.1786 26.9859C96.5336 26.4033 96.7125 25.7103 96.7125 24.9117Z" fill="white"/>
<path d="M104.971 22.2801C104.781 22.2448 104.577 22.2268 104.364 22.2268C103.687 22.2268 103.163 22.4824 102.794 22.9946C102.473 23.4463 102.313 24.0173 102.313 24.7066V29.2552H100.387L100.406 23.3163C100.406 22.3171 100.381 21.4074 100.333 20.5871H102.011L102.081 22.2457H102.135C102.338 21.6757 102.659 21.2167 103.098 20.8726C103.527 20.5627 103.99 20.4082 104.49 20.4082C104.668 20.4082 104.829 20.4209 104.971 20.4434V22.2801Z" fill="white"/>
<path d="M113.585 24.5102C113.585 24.8553 113.562 25.1462 113.515 25.3838H107.736C107.759 26.2402 108.038 26.8952 108.575 27.3469C109.062 27.7507 109.691 27.9531 110.465 27.9531C111.32 27.9531 112.101 27.8167 112.803 27.5429L113.104 28.88C112.284 29.2377 111.316 29.4157 110.198 29.4157C108.854 29.4157 107.799 29.02 107.031 28.2295C106.265 27.439 105.881 26.3775 105.881 25.0459C105.881 23.7387 106.238 22.6501 106.952 21.7819C107.7 20.855 108.711 20.3916 109.983 20.3916C111.233 20.3916 112.178 20.855 112.821 21.7819C113.329 22.5182 113.585 23.4288 113.585 24.5102ZM111.748 24.0106C111.761 23.4397 111.636 22.9464 111.374 22.53C111.041 21.9942 110.529 21.7268 109.84 21.7268C109.21 21.7268 108.698 21.9879 108.307 22.5119C107.986 22.9284 107.795 23.4279 107.736 24.0097H111.748V24.0106Z" fill="white"/>
<path d="M48.4873 14.3059H47.4847V12.8102H43.4781V14.3059H42.4587L42.4253 11.9663H42.9141C43.1564 11.7324 43.35 11.3926 43.4948 10.9469C43.6397 10.4985 43.733 9.99158 43.7747 9.42618L43.9335 6.72729H47.7688V11.9663H48.5417L48.4873 14.3059ZM44.109 11.9663H46.7159V7.57958H44.9404L44.8401 9.29249C44.7649 10.4372 44.5212 11.3285 44.109 11.9663Z" fill="white"/>
<path d="M49.475 10.5082C49.475 10.0654 49.5627 9.6671 49.7382 9.31338C49.9137 8.95687 50.1602 8.68392 50.4777 8.49452C50.7952 8.30234 51.1601 8.20625 51.5723 8.20625C52.1822 8.20625 52.6766 8.40261 53.0554 8.79533C53.437 9.18805 53.6431 9.70888 53.6737 10.3578L53.6779 10.596C53.6779 11.0416 53.5916 11.4399 53.4189 11.7908C53.249 12.1418 53.0039 12.4133 52.6836 12.6055C52.3661 12.7977 51.9984 12.8938 51.5806 12.8938C50.9428 12.8938 50.4317 12.6821 50.0474 12.2588C49.6658 11.8326 49.475 11.2658 49.475 10.5584V10.5082ZM50.4902 10.596C50.4902 11.0611 50.5863 11.426 50.7785 11.6906C50.9707 11.9524 51.238 12.0833 51.5806 12.0833C51.9232 12.0833 52.1892 11.9496 52.3786 11.6822C52.5708 11.4148 52.6669 11.0235 52.6669 10.5082C52.6669 10.0515 52.568 9.68939 52.3702 9.422C52.1753 9.15462 51.9093 9.02093 51.5723 9.02093C51.2408 9.02093 50.9776 9.15323 50.7827 9.41783C50.5877 9.67964 50.4902 10.0724 50.4902 10.596Z" fill="white"/>
<path d="M56.8213 12.0833C57.0748 12.0833 57.2851 12.0095 57.4522 11.8619C57.6193 11.7142 57.7084 11.5318 57.7195 11.3146H58.6763C58.6651 11.5959 58.5774 11.8591 58.4131 12.1042C58.2487 12.3465 58.0259 12.5387 57.7446 12.6807C57.4633 12.8228 57.1597 12.8938 56.8338 12.8938C56.2016 12.8938 55.7003 12.6891 55.3298 12.2797C54.9594 11.8702 54.7742 11.3048 54.7742 10.5834V10.479C54.7742 9.79105 54.958 9.24096 55.3256 8.82875C55.6933 8.41375 56.1946 8.20625 56.8297 8.20625C57.3672 8.20625 57.8045 8.36362 58.1415 8.67835C58.4813 8.99029 58.6596 9.40112 58.6763 9.91081H57.7195C57.7084 9.65179 57.6193 9.43872 57.4522 9.2716C57.2878 9.10449 57.0776 9.02093 56.8213 9.02093C56.4927 9.02093 56.2392 9.1407 56.0609 9.38023C55.8827 9.61697 55.7922 9.97766 55.7894 10.4623V10.6252C55.7894 11.1154 55.8771 11.4817 56.0526 11.724C56.2308 11.9635 56.4871 12.0833 56.8213 12.0833Z" fill="white"/>
<path d="M63.4282 9.09613H61.9617V12.8102H60.9465V9.09613H59.4968V8.28981H63.4282V9.09613Z" fill="white"/>
<path d="M66.1663 11.3563L67.0854 8.28981H68.1675L66.371 13.4954C66.0953 14.2558 65.6274 14.636 64.9673 14.636C64.8197 14.636 64.6567 14.6109 64.4785 14.5608V13.7753L64.6706 13.7879C64.9269 13.7879 65.1191 13.7405 65.2472 13.6458C65.3781 13.5539 65.4811 13.3979 65.5563 13.1779L65.7026 12.7893L64.115 8.28981H65.2096L66.1663 11.3563Z" fill="white"/>
<path d="M73.0155 12.8102H72.0003V9.10867H70.2372V12.8102H69.222V8.28981H73.0155V12.8102Z" fill="white"/>
<path d="M78.3522 12.8102H77.337V10.9845H75.5782V12.8102H74.5629V8.28981H75.5782V10.174H77.337V8.28981H78.3522V12.8102Z" fill="white"/>
<path d="M79.6741 10.5082C79.6741 10.0654 79.7619 9.6671 79.9373 9.31338C80.1128 8.95687 80.3593 8.68392 80.6768 8.49452C80.9943 8.30234 81.3592 8.20625 81.7714 8.20625C82.3814 8.20625 82.8757 8.40261 83.2545 8.79533C83.6361 9.18805 83.8422 9.70888 83.8729 10.3578L83.877 10.596C83.877 11.0416 83.7907 11.4399 83.618 11.7908C83.4481 12.1418 83.203 12.4133 82.8827 12.6055C82.5652 12.7977 82.1975 12.8938 81.7798 12.8938C81.1419 12.8938 80.6308 12.6821 80.2465 12.2588C79.8649 11.8326 79.6741 11.2658 79.6741 10.5584V10.5082ZM80.6893 10.596C80.6893 11.0611 80.7854 11.426 80.9776 11.6906C81.1698 11.9524 81.4372 12.0833 81.7798 12.0833C82.1223 12.0833 82.3883 11.9496 82.5777 11.6822C82.7699 11.4148 82.866 11.0235 82.866 10.5082C82.866 10.0515 82.7671 9.68939 82.5694 9.422C82.3744 9.15462 82.1084 9.02093 81.7714 9.02093C81.44 9.02093 81.1768 9.15323 80.9818 9.41783C80.7868 9.67964 80.6893 10.0724 80.6893 10.596Z" fill="white"/>
<path d="M87.7992 12.8102V8.28981H89.6333C90.2516 8.28981 90.7223 8.39843 91.0454 8.61568C91.3685 8.83014 91.53 9.1393 91.53 9.54316C91.53 9.75205 91.4646 9.94006 91.3337 10.1072C91.2055 10.2715 91.0147 10.3982 90.7613 10.4874C91.0565 10.5486 91.2905 10.6726 91.4632 10.8592C91.6358 11.0458 91.7222 11.2658 91.7222 11.5193C91.7222 11.9399 91.5662 12.2602 91.2543 12.4802C90.9451 12.7002 90.4995 12.8102 89.9174 12.8102H87.7992ZM88.8144 10.8843V12.0081H89.9257C90.4466 12.0081 90.707 11.8215 90.707 11.4483C90.707 11.0723 90.4424 10.8843 89.9132 10.8843H88.8144ZM88.8144 10.1573H89.65C90.2265 10.1573 90.5148 9.98741 90.5148 9.64761C90.5148 9.2911 90.2418 9.10727 89.6959 9.09613H88.8144V10.1573Z" fill="white"/>
</g>
<defs>
<clipPath id="clip0">
<rect width="128" height="37.9259" fill="white" transform="translate(0 0.351562)"/>
</clipPath>
</defs>
</svg>
