<svg width="77" height="22" viewBox="0 0 77 22" fill="none" xmlns="http://www.w3.org/2000/svg">
<path d="M22.6162 13.7504C22.6162 13.7504 22.0245 15.0102 19.8593 15.0102C19.3471 15.0364 18.8394 14.9029 18.4069 14.6283C18.2166 14.4806 18.0661 14.2882 17.9687 14.0684C17.8713 13.8485 17.8301 13.6081 17.8488 13.3685C17.8255 13.0501 17.8999 12.7323 18.062 12.4571C18.2241 12.1818 18.4663 11.9622 18.7565 11.8272C19.6281 11.484 20.5646 11.3353 21.5 11.3916C22.4077 11.4251 22.6498 11.988 22.6498 12.3767C22.6162 12.4839 22.6162 13.7772 22.6162 13.7772V13.7504ZM25.8034 6.66727C25.6816 6.38619 25.5159 6.12609 25.3126 5.89663C25.1224 5.67202 24.895 5.48161 24.6401 5.33373C24.3577 5.1595 24.082 5.01877 23.7996 4.87805C23.4941 4.75878 23.1792 4.66465 22.8582 4.5966C22.5014 4.51036 22.1361 4.46317 21.7689 4.45587C21.3857 4.42237 20.9284 4.42237 20.4241 4.42237C17.1764 4.42237 15.2869 5.44095 14.8364 7.51162C14.8122 7.58862 14.8065 7.67019 14.8196 7.7498C14.8328 7.82941 14.8646 7.90482 14.9123 7.96999C14.96 8.03516 15.0224 8.08826 15.0945 8.12503C15.1666 8.16181 15.2463 8.18123 15.3272 8.18174H17.3445C17.869 8.18174 17.8353 8.0075 18.111 7.55182C18.2085 7.2871 18.3786 7.05494 18.6019 6.8817C19.1229 6.55224 19.734 6.39295 20.3502 6.42602C20.9189 6.37564 21.4873 6.52498 21.9572 6.8482C22.3168 7.1882 22.5291 7.65462 22.5489 8.14823C22.5489 8.81835 22.3405 9.27403 21.5 9.27403C19.5433 9.27403 17.3781 9.48176 16.1879 10.1854C15.5895 10.5514 15.0997 11.0696 14.7688 11.6867C14.4379 12.3038 14.2779 12.9976 14.3052 13.6968C14.2943 14.2406 14.4021 14.7802 14.6212 15.2783C14.8312 15.7098 15.1289 16.0932 15.4953 16.4041C15.8902 16.7209 16.3489 16.9495 16.8402 17.0742C17.3999 17.219 17.9765 17.2888 18.5548 17.2819C19.3353 17.2954 20.1131 17.1892 20.8612 16.967C21.5128 16.7028 22.124 16.3486 22.6767 15.9149V16.3036C22.6767 16.6922 22.7843 16.9737 23.2348 16.9737H25.5748C26.0657 16.9737 26.1665 16.6252 26.1665 16.2031V9.01938C26.1701 8.57036 26.1341 8.12189 26.0589 7.67915C26.0267 7.33073 25.9405 6.9894 25.8034 6.66727ZM29.0512 19.1248C28.8645 19.1311 28.6776 19.1199 28.4931 19.0913C28.251 19.0578 27.8207 19.0913 27.8207 19.4799V21.1619C27.8207 21.7918 28.1367 21.8321 28.2779 21.8321C28.784 21.9378 29.3007 21.985 29.8177 21.9728C30.4333 21.9768 31.042 21.844 31.5996 21.5841C32.1067 21.3296 32.5626 20.9843 32.9444 20.5655C33.3508 20.0849 33.6922 19.5532 33.9598 18.984C34.2853 18.3292 34.5771 17.6582 34.8339 16.9737C34.8339 16.9737 34.9415 16.6587 35.1499 16.0958C34.5918 16.6922 31.7879 19.3593 29.0982 19.0779L29.0512 19.1248ZM38.5456 4.69042H36.3805C36.1735 4.67423 35.9676 4.73314 35.8008 4.85629C35.634 4.97943 35.5175 5.15852 35.4727 5.36054L33.0251 12.2091C33.0251 12.2091 30.8263 5.96364 30.6851 5.47446C30.636 5.25167 30.5118 5.05238 30.3331 4.90973C30.1545 4.76708 29.9323 4.68969 29.7034 4.69042H27.6862C27.5869 4.67604 27.4856 4.68766 27.3922 4.72411C27.2988 4.76057 27.2165 4.82061 27.1534 4.89835C27.0903 4.97608 27.0486 5.06883 27.0324 5.16749C27.0162 5.26615 27.026 5.36731 27.0608 5.46105C27.1281 5.63528 29.8581 13.0736 30.8667 15.9149C31.0399 16.2703 31.1578 16.6499 31.2163 17.0407C31.1566 17.4134 31.0241 17.7709 30.8263 18.0928C30.753 18.2361 30.6577 18.3673 30.5439 18.4815C32.5612 17.8851 34.9079 15.6737 36.098 13.288C37.2882 9.93745 38.8549 5.56827 38.9289 5.36054C39.1037 5.01207 39.1037 4.73062 38.5456 4.73062V4.69042ZM4.52157 14.2798C3.16721 13.7967 1.93817 13.0183 0.924165 12.0014V16.317C0.915542 16.4031 0.925422 16.4901 0.953147 16.5721C0.980873 16.6542 1.02581 16.7294 1.08496 16.7928C1.14412 16.8562 1.21614 16.9063 1.29624 16.9398C1.37634 16.9733 1.46267 16.9894 1.54951 16.9871H3.96347C4.63588 16.9871 4.55519 16.317 4.55519 16.317C4.55519 16.317 4.52157 15.3319 4.52157 14.3066V14.2798ZM10.0421 6.80129C9.84904 7.12465 9.57278 7.39071 9.2419 7.57193C8.87018 7.75484 8.46554 7.86192 8.05173 7.88688C7.59449 7.92039 7.14398 7.95389 6.70691 7.95389H5.15364C4.77036 7.95389 4.52829 7.63894 4.52829 7.18326V3.4708C4.52122 3.39129 4.53161 3.31119 4.55875 3.23608C4.58589 3.16098 4.62912 3.09267 4.68544 3.0359C4.74175 2.97914 4.80981 2.93529 4.88486 2.90739C4.95991 2.8795 5.04016 2.86824 5.12002 2.87439H6.68674C7.21122 2.87439 7.66174 2.87439 8.11898 2.9079C8.52662 2.96649 8.92603 3.07219 9.30914 3.22286C9.63591 3.38237 9.90407 3.64024 10.0757 3.95999C10.2799 4.39742 10.3701 4.87914 10.3379 5.36054C10.3617 5.86014 10.2527 6.35713 10.0219 6.80129H10.0421ZM13.236 2.20428C12.9729 1.7791 12.6278 1.41012 12.2207 1.11868C11.8071 0.83194 11.3542 0.606237 10.8759 0.448564C10.3696 0.263122 9.8441 0.134995 9.30914 0.0665966C8.75104 0.0330907 8.11898 -0.000415261 7.46001 -0.000415261H1.93951C1.80902 -0.011706 1.6776 0.0044633 1.55378 0.0470442C1.42996 0.0896251 1.31651 0.157667 1.22077 0.246756C1.12504 0.335846 1.04916 0.443995 0.998064 0.564188C0.946966 0.684382 0.921789 0.813937 0.924165 0.944452V9.89054C1.68506 11.5144 2.94507 12.8546 4.52157 13.7169V11.9277C4.50381 11.7868 4.51541 11.6438 4.55564 11.5076C4.59587 11.3714 4.66387 11.245 4.75539 11.1361C4.8469 11.0273 4.95996 10.9385 5.08749 10.8752C5.21502 10.812 5.35429 10.7756 5.49657 10.7684H7.14398C9.37639 10.7684 11.091 10.3127 12.2812 9.36784C12.8865 8.85341 13.3624 8.20476 13.6706 7.47392C13.9789 6.74308 14.111 5.95041 14.0564 5.1595C14.0541 4.62768 13.9955 4.09758 13.8815 3.57802C13.7386 3.08479 13.5281 2.61352 13.2562 2.17747" fill="#2C2929"/>
<path d="M71.1168 11.6324H64.3927C64.4263 13.4216 65.3004 14.3665 66.7999 14.3665C67.207 14.3784 67.6088 14.272 67.9563 14.0601C68.3038 13.8483 68.5819 13.5403 68.7566 13.1736C68.8217 13.0689 68.9145 12.9841 69.0249 12.9286C69.1352 12.873 69.2587 12.8488 69.382 12.8587H71.0899C71.142 12.8599 71.1932 12.8722 71.2401 12.8949C71.287 12.9176 71.3284 12.9501 71.3616 12.9901C71.3947 13.0302 71.4189 13.0769 71.4323 13.127C71.4458 13.1772 71.4482 13.2297 71.4395 13.2809C71.0945 14.233 70.4497 15.0484 69.6013 15.6052C68.753 16.162 67.7466 16.4303 66.7327 16.3701C63.5925 16.3701 61.4946 14.2324 61.4946 10.969C61.4946 7.70548 63.6597 5.46058 66.6318 5.46058C69.6039 5.46058 71.5538 7.53124 71.6951 10.8215C71.6951 11.2437 71.5875 11.6257 71.063 11.6257L71.1168 11.6324ZM59.484 16.4773H57.4063C56.8482 16.4773 56.9154 15.9881 56.9154 15.8474V9.63542C56.955 9.11317 56.8454 8.59044 56.5994 8.12765C56.4924 7.972 56.3455 7.84769 56.1741 7.76757C56.0027 7.68746 55.8129 7.65445 55.6244 7.67197C54.5082 7.67197 53.7753 8.83127 53.392 9.28695V15.8809C53.392 16.0552 53.4256 16.4773 52.8003 16.4773H50.783C50.2249 16.4773 50.2922 15.9881 50.2922 15.8474V9.63542C50.3405 9.11428 50.2427 8.59 50.0097 8.12095C49.9125 7.96367 49.7723 7.83727 49.6056 7.75657C49.4389 7.67586 49.2525 7.64419 49.0684 7.66527C47.8782 7.66527 47.1856 8.82457 46.836 9.28025V15.8809C46.836 16.0552 46.8696 16.4773 46.2442 16.4773H44.1866C43.6285 16.4773 43.6958 15.9881 43.6958 15.8474V11.7731C43.6958 9.09262 46.9772 6.51266 47.152 6.33173C47.9428 5.69371 48.9318 5.35014 49.9492 5.36006C50.6514 5.3184 51.351 5.47643 51.9665 5.81574C52.5084 6.14566 52.9157 6.65603 53.1163 7.25649C53.5774 6.70966 54.1166 6.23327 54.7166 5.84254C55.2767 5.52699 55.909 5.3608 56.5523 5.36006C58.8923 5.36006 60.0959 6.7003 60.0959 9.38077V15.8809C60.0959 16.0552 60.1632 16.4773 59.5042 16.4773H59.484ZM43.6958 6.29823C43.6958 5.87605 43.7294 5.62811 44.1866 5.62811H46.2039C46.7284 5.62811 46.762 5.94306 46.762 6.25802V6.32503C45.5533 6.93173 44.5104 7.82164 43.7227 8.91839L43.6958 6.29823ZM76.18 9.48799C75.7632 8.89158 72.818 5.20593 71.917 4.18735C70.7268 3.02805 69.7518 2.43164 68.602 2.43164H44.3951C42.1963 2.43164 41.4634 3.16877 41.4634 5.69512V15.7C41.4634 18.1526 41.6382 19.2449 44.8254 19.2449H68.5751C69.7249 19.2449 70.8814 18.3336 71.7152 17.4557C72.6902 16.4371 75.7497 13.2474 76.2204 12.403C76.4824 11.9604 76.6177 11.4547 76.6118 10.9408C76.6059 10.427 76.4589 9.92452 76.1868 9.48799H76.18Z" fill="#4CB6AC"/>
<path d="M66.3771 7.32422C65.1197 7.32422 64.2456 8.20208 64.1044 9.64283H68.6095C68.4683 8.38301 67.769 7.32422 66.3771 7.32422Z" fill="#4CB6AC"/>
</svg>
