<svg width="128" height="39" viewBox="0 0 128 39" fill="none" xmlns="http://www.w3.org/2000/svg">
<g clip-path="url(#clip0)">
<path d="M123.259 0.313477H4.74074C2.1225 0.313477 0 2.43598 0 5.05422V33.4987C0 36.1169 2.1225 38.2394 4.74074 38.2394H123.259C125.877 38.2394 128 36.1169 128 33.4987V5.05422C128 2.43598 125.877 0.313477 123.259 0.313477Z" fill="#273142"/>
<path d="M123.259 1.072C124.315 1.072 125.328 1.49155 126.075 2.23836C126.822 2.98517 127.241 3.99807 127.241 5.05422V33.4987C127.241 34.5548 126.822 35.5677 126.075 36.3145C125.328 37.0613 124.315 37.4809 123.259 37.4809H4.74074C3.68459 37.4809 2.6717 37.0613 1.92488 36.3145C1.17807 35.5677 0.758519 34.5548 0.758519 33.4987V5.05422C0.758519 3.99807 1.17807 2.98517 1.92488 2.23836C2.6717 1.49155 3.68459 1.072 4.74074 1.072H123.259ZM123.259 0.313477H4.74074C3.48342 0.313477 2.27759 0.812946 1.38853 1.70201C0.499469 2.59107 0 3.79689 0 5.05422V33.4987C0 34.756 0.499469 35.9618 1.38853 36.8509C2.27759 37.7399 3.48342 38.2394 4.74074 38.2394H123.259C124.517 38.2394 125.722 37.7399 126.611 36.8509C127.501 35.9618 128 34.756 128 33.4987V5.05422C128 3.79689 127.501 2.59107 126.611 1.70201C125.722 0.812946 124.517 0.313477 123.259 0.313477Z" fill="#A6A6A6"/>
<path d="M64.6074 20.9345C63.8112 20.9382 63.034 21.1777 62.3738 21.6228C61.7136 22.0678 61.2001 22.6985 60.898 23.4351C60.5959 24.1718 60.5188 24.9814 60.6764 25.7618C60.8341 26.5422 61.2193 27.2585 61.7836 27.8201C62.3479 28.3818 63.066 28.7637 63.8471 28.9176C64.6283 29.0716 65.4375 28.9907 66.1727 28.6851C66.908 28.3796 67.5362 27.8631 67.9781 27.2009C68.4201 26.5386 68.6559 25.7603 68.656 24.9641C68.6637 24.4312 68.5641 23.9022 68.3631 23.4085C68.1622 22.9149 67.8639 22.4667 67.4862 22.0907C67.1084 21.7148 66.6589 21.4186 66.1643 21.22C65.6697 21.0213 65.1402 20.9242 64.6074 20.9345ZM64.6074 27.4103C64.1177 27.4446 63.6291 27.3307 63.205 27.0836C62.7809 26.8364 62.441 26.4674 62.2294 26.0245C62.0178 25.5817 61.9444 25.0853 62.0186 24.6002C62.0928 24.115 62.3113 23.6633 62.6456 23.3039C62.9799 22.9445 63.4146 22.694 63.8932 22.585C64.3718 22.4759 64.8721 22.5134 65.3291 22.6924C65.7861 22.8715 66.1787 23.1839 66.4558 23.589C66.7329 23.9941 66.8817 24.4733 66.8829 24.9641C66.8982 25.2751 66.851 25.586 66.7442 25.8785C66.6374 26.171 66.4731 26.4392 66.2611 26.6671C66.049 26.8951 65.7934 27.0783 65.5094 27.206C65.2254 27.3336 64.9187 27.4031 64.6074 27.4103ZM55.7801 20.9345C54.9835 20.9363 54.2054 21.1743 53.5439 21.6182C52.8825 22.0621 52.3675 22.6921 52.064 23.4286C51.7604 24.1651 51.682 24.975 51.8385 25.756C51.9951 26.5371 52.3796 27.2542 52.9436 27.8168C53.5075 28.3794 54.2255 28.7623 55.0069 28.917C55.7883 29.0717 56.5981 28.9913 57.3338 28.6861C58.0696 28.3808 58.6984 27.8643 59.1407 27.2019C59.5831 26.5394 59.8192 25.7607 59.8192 24.9641C59.8269 24.4312 59.7274 23.9022 59.5264 23.4085C59.3254 22.9149 59.0272 22.4667 58.6494 22.0907C58.2717 21.7148 57.8221 21.4186 57.3276 21.22C56.833 21.0213 56.3035 20.9242 55.7706 20.9345H55.7801ZM55.7801 27.4103C55.2902 27.4465 54.8008 27.3343 54.3755 27.0885C53.9503 26.8426 53.6089 26.4744 53.3958 26.0318C53.1828 25.5892 53.1079 25.0927 53.1809 24.607C53.254 24.1212 53.4716 23.6687 53.8054 23.3083C54.1392 22.948 54.5738 22.6965 55.0526 22.5866C55.5313 22.4766 56.0321 22.5134 56.4896 22.692C56.9472 22.8707 57.3404 23.183 57.618 23.5882C57.8957 23.9935 58.0448 24.4729 58.0462 24.9641C58.0614 25.2751 58.0143 25.586 57.9075 25.8785C57.8007 26.171 57.6364 26.4392 57.4243 26.6671C57.2122 26.8951 56.9567 27.0783 56.6726 27.206C56.3886 27.3336 56.0819 27.4031 55.7706 27.4103H55.7801ZM45.2651 22.1765V23.8832H49.3611C49.2969 24.6871 48.9628 25.4456 48.413 26.0355C48.0032 26.4529 47.5106 26.7799 46.9668 26.9955C46.423 27.211 45.8401 27.3103 45.2557 27.2871C44.0486 27.2871 42.891 26.8076 42.0375 25.9541C41.184 25.1006 40.7045 23.943 40.7045 22.736C40.7045 21.5289 41.184 20.3713 42.0375 19.5178C42.891 18.6643 44.0486 18.1848 45.2557 18.1848C46.4103 18.166 47.5253 18.6059 48.3561 19.408L49.5602 18.2038C48.9994 17.6359 48.3303 17.1863 47.5925 16.8818C46.8547 16.5772 46.0633 16.4238 45.2651 16.4308C44.4222 16.398 43.5814 16.5357 42.793 16.8356C42.0045 17.1355 41.2848 17.5916 40.6768 18.1763C40.0689 18.7611 39.5852 19.4626 39.2548 20.2387C38.9244 21.0149 38.7542 21.8497 38.7542 22.6933C38.7542 23.5368 38.9244 24.3717 39.2548 25.1479C39.5852 25.924 40.0689 26.6255 40.6768 27.2103C41.2848 27.795 42.0045 28.251 42.793 28.551C43.5814 28.8509 44.4222 28.9886 45.2651 28.9558C46.0767 28.9925 46.8867 28.8549 47.6407 28.5523C48.3946 28.2498 49.075 27.7892 49.6361 27.2017C50.6294 26.1103 51.1598 24.6756 51.1152 23.2005C51.1183 22.8412 51.0865 22.4824 51.0204 22.1291L45.2651 22.1765ZM88.2257 23.504C87.9785 22.7765 87.5161 22.1413 86.8998 21.6824C86.2834 21.2236 85.5423 20.9627 84.7745 20.9345C84.2558 20.9335 83.7425 21.0388 83.2662 21.2441C82.7899 21.4493 82.3608 21.7501 82.0053 22.1277C81.6498 22.5054 81.3756 22.952 81.1996 23.4398C81.0236 23.9277 80.9495 24.4465 80.9819 24.9641C80.9704 25.494 81.0658 26.0209 81.2624 26.5131C81.459 27.0053 81.7529 27.4529 82.1263 27.829C82.4998 28.2051 82.9453 28.5021 83.4361 28.7022C83.9269 28.9024 84.4531 29.0015 84.9831 28.9937C85.6463 28.9973 86.3001 28.8363 86.8858 28.5253C87.4716 28.2142 87.9711 27.7627 88.3395 27.2112L86.9647 26.2631C86.7595 26.6051 86.469 26.8881 86.1217 27.0842C85.7743 27.2803 85.382 27.3829 84.9831 27.3819C84.5724 27.3975 84.1665 27.2893 83.8181 27.0711C83.4698 26.853 83.1951 26.5351 83.0299 26.1588L88.4248 23.9306L88.2257 23.504ZM82.7265 24.8503C82.7073 24.5571 82.7467 24.2629 82.8426 23.9851C82.9385 23.7073 83.0889 23.4514 83.2849 23.2324C83.4809 23.0134 83.7187 22.8357 83.9842 22.7098C84.2498 22.5839 84.5378 22.5122 84.8314 22.4989C85.1372 22.4788 85.4422 22.5489 85.7086 22.7006C85.9749 22.8523 86.1908 23.0789 86.3294 23.3522L82.7265 24.8503ZM78.346 28.7567H80.1191V16.9048H78.346V28.7567ZM75.4447 21.8352H75.3783C75.1111 21.5364 74.7838 21.2975 74.4177 21.1341C74.0517 20.9707 73.6553 20.8865 73.2545 20.8871C72.2183 20.9373 71.2412 21.3843 70.5257 22.1354C69.8101 22.8865 69.411 23.8841 69.411 24.9214C69.411 25.9588 69.8101 26.9564 70.5257 27.7075C71.2412 28.4586 72.2183 28.9056 73.2545 28.9558C73.6563 28.9626 74.0546 28.8812 74.4216 28.7174C74.7885 28.5535 75.1151 28.3113 75.3783 28.0077H75.4352V28.586C75.4352 30.1315 74.6103 30.9564 73.2829 30.9564C72.8408 30.946 72.4118 30.8044 72.0505 30.5494C71.6891 30.2945 71.4118 29.9378 71.2539 29.5247L69.7084 30.1694C69.9993 30.8771 70.495 31.4817 71.1319 31.9057C71.7688 32.3298 72.5178 32.5539 73.2829 32.5493C75.3594 32.5493 77.0755 31.3262 77.0755 28.349V21.1715H75.4447V21.8352ZM73.4157 27.4103C72.8041 27.3564 72.2348 27.0754 71.8202 26.6226C71.4055 26.1698 71.1755 25.5781 71.1755 24.9641C71.1755 24.3501 71.4055 23.7584 71.8202 23.3056C72.2348 22.8528 72.8041 22.5718 73.4157 22.5179C73.7189 22.5334 74.016 22.6095 74.2893 22.7417C74.5627 22.8738 74.8069 23.0593 75.0075 23.2873C75.208 23.5153 75.3609 23.7811 75.4572 24.069C75.5535 24.357 75.5911 24.6613 75.568 24.9641C75.5938 25.2682 75.5578 25.5743 75.4619 25.864C75.3661 26.1538 75.2125 26.421 75.0104 26.6497C74.8083 26.8784 74.562 27.0637 74.2862 27.1944C74.0105 27.3251 73.7111 27.3986 73.4062 27.4103H73.4157ZM96.5315 16.9048H92.2933V28.7567H94.0663V24.2625H96.541C97.0463 24.2988 97.5537 24.2306 98.0315 24.0622C98.5093 23.8937 98.9473 23.6287 99.3181 23.2835C99.689 22.9383 99.9847 22.5205 100.187 22.056C100.389 21.5915 100.494 21.0903 100.494 20.5837C100.494 20.077 100.389 19.5758 100.187 19.1113C99.9847 18.6468 99.689 18.229 99.3181 17.8838C98.9473 17.5386 98.5093 17.2736 98.0315 17.1052C97.5537 16.9367 97.0463 16.8685 96.541 16.9048H96.5315ZM96.5315 22.5937H94.0568V18.5546H96.5694C97.1088 18.5546 97.6261 18.7689 98.0075 19.1503C98.3889 19.5317 98.6032 20.049 98.6032 20.5884C98.6032 21.1278 98.3889 21.6451 98.0075 22.0265C97.6261 22.4079 97.1088 22.6222 96.5694 22.6222L96.5315 22.5937ZM107.464 20.8871C106.818 20.8485 106.175 20.9993 105.615 21.3211C105.054 21.6428 104.599 22.1214 104.306 22.698L105.88 23.3522C106.035 23.0662 106.27 22.8315 106.557 22.6766C106.843 22.5218 107.168 22.4534 107.492 22.48C107.717 22.4537 107.945 22.4725 108.163 22.5353C108.381 22.598 108.584 22.7036 108.76 22.8457C108.937 22.9878 109.083 23.1636 109.191 23.3629C109.299 23.5622 109.366 23.781 109.388 24.0065V24.1297C108.819 23.8282 108.184 23.6719 107.54 23.6746C105.842 23.6746 104.126 24.6228 104.126 26.3389C104.143 26.7048 104.233 27.0637 104.391 27.3943C104.549 27.7248 104.771 28.0204 105.045 28.2635C105.319 28.5066 105.639 28.6922 105.986 28.8095C106.333 28.9268 106.7 28.9733 107.065 28.9463C107.512 28.9784 107.959 28.8897 108.359 28.6895C108.76 28.4893 109.099 28.185 109.341 27.8085H109.398V28.7567H111.105V24.1961C111.105 22.1197 109.531 20.9155 107.511 20.9155L107.464 20.8871ZM107.246 27.3819C106.667 27.3819 105.861 27.088 105.861 26.3768C105.861 25.4287 106.866 25.1158 107.758 25.1158C108.321 25.1019 108.877 25.2394 109.369 25.514C109.31 26.0274 109.067 26.502 108.686 26.8504C108.304 27.1989 107.81 27.3977 107.293 27.4103L107.246 27.3819ZM117.324 21.1715L115.295 26.3105H115.238L113.134 21.1715H111.237L114.395 28.3585L112.593 32.3502H114.442L119.297 21.1715H117.324ZM101.386 28.7567H103.159V16.9048H101.386V28.7567Z" fill="white"/>
<path d="M39.9271 13.843H39.2254V11.9468H39.8228C40.0951 11.6581 40.3008 11.3132 40.4253 10.9364C40.5498 10.5596 40.5901 10.1601 40.5434 9.76601V6.95001H44.3359V11.9373H44.9712V13.8336H44.2696V12.6389H39.9271V13.843ZM41.245 9.79446C41.2892 10.5593 41.1008 11.3195 40.7045 11.9752H43.549V7.65164H41.245V9.79446ZM50.6411 11.8993C50.0868 12.4505 49.3369 12.76 48.5552 12.76C47.7735 12.76 47.0236 12.4505 46.4693 11.8993C45.9305 11.3291 45.6304 10.5742 45.6304 9.78972C45.6304 9.00518 45.9305 8.25037 46.4693 7.68009C46.7425 7.40488 47.0675 7.18646 47.4255 7.0374C47.7835 6.88835 48.1674 6.81161 48.5552 6.81161C48.943 6.81161 49.327 6.88835 49.685 7.0374C50.043 7.18646 50.3679 7.40488 50.6411 7.68009C51.182 8.24929 51.4836 9.0045 51.4836 9.78972C51.4836 10.5749 51.182 11.3301 50.6411 11.8993ZM47.0097 11.4253C47.4202 11.834 47.9759 12.0635 48.5552 12.0635C49.1345 12.0635 49.6902 11.834 50.1007 11.4253C50.5058 10.9787 50.7302 10.3974 50.7302 9.79446C50.7302 9.19154 50.5058 8.6102 50.1007 8.16364C49.6902 7.75487 49.1345 7.52537 48.5552 7.52537C47.9759 7.52537 47.4202 7.75487 47.0097 8.16364C46.6046 8.6102 46.3803 9.19154 46.3803 9.79446C46.3803 10.3974 46.6046 10.9787 47.0097 11.4253ZM55.1638 12.7622C54.7724 12.7699 54.3834 12.6984 54.0204 12.5519C53.6573 12.4054 53.3277 12.1869 53.0513 11.9097C52.7749 11.6324 52.5575 11.3021 52.4122 10.9385C52.2668 10.575 52.1965 10.1858 52.2056 9.79446C52.1965 9.40306 52.2668 9.01389 52.4122 8.65037C52.5575 8.28686 52.7749 7.95652 53.0513 7.67924C53.3277 7.40197 53.6573 7.1835 54.0204 7.037C54.3834 6.89049 54.7724 6.81897 55.1638 6.82675C55.5605 6.81693 55.9543 6.89714 56.3156 7.06136C56.6769 7.22558 56.9963 7.46953 57.2497 7.7749L56.7377 8.26794C56.5505 8.03019 56.309 7.84071 56.0335 7.71535C55.7581 7.58999 55.4566 7.53238 55.1543 7.54734C54.8633 7.53978 54.5737 7.59134 54.3032 7.6989C54.0327 7.80646 53.7868 7.96779 53.5804 8.17312C53.1693 8.62235 52.9413 9.20922 52.9413 9.81816C52.9413 10.4271 53.1693 11.014 53.5804 11.4632C53.7868 11.6685 54.0327 11.8299 54.3032 11.9374C54.5737 12.045 54.8633 12.0965 55.1543 12.089C55.488 12.086 55.8169 12.0087 56.1171 11.8628C56.4172 11.7168 56.681 11.5058 56.8894 11.2451L57.4014 11.7571C57.1434 12.0701 56.8197 12.3226 56.4533 12.4967C56.0486 12.68 55.608 12.7707 55.1638 12.7622ZM60.3786 12.6389H59.6485V7.65164H58.0557V6.95001H61.962V7.65164H60.3786V12.6389ZM66.9872 6.95001L64.8349 11.7476C64.7488 12.0314 64.5766 12.2815 64.3422 12.4632C64.1078 12.645 63.8228 12.7494 63.5265 12.7622C63.3305 12.7597 63.137 12.7178 62.9576 12.6389L63.1472 11.9657C63.2624 12.0328 63.3931 12.0688 63.5265 12.07C63.6658 12.0805 63.805 12.0474 63.9247 11.9752C64.0389 11.8785 64.127 11.7546 64.1807 11.6149L64.3893 11.1598L62.493 6.95949H63.3558L64.7591 10.2211L66.1244 6.95001H66.9872ZM67.8121 12.6389V6.95001H71.9271V12.6389H71.197V7.65164H68.5422V12.6389H67.8121ZM73.226 12.6389V6.95001H73.9561V9.38675H76.8005V6.95001H77.5306V12.6389H76.8005V10.0694H73.9561V12.6389H73.226ZM83.4945 11.8993C82.9402 12.4505 82.1902 12.76 81.4085 12.76C80.6268 12.76 79.8769 12.4505 79.3226 11.8993C78.7839 11.3291 78.4837 10.5742 78.4837 9.78972C78.4837 9.00518 78.7839 8.25037 79.3226 7.68009C79.5958 7.40488 79.9208 7.18646 80.2788 7.0374C80.6368 6.88835 81.0208 6.81161 81.4085 6.81161C81.7963 6.81161 82.1803 6.88835 82.5383 7.0374C82.8963 7.18646 83.2213 7.40488 83.4945 7.68009C84.0354 8.24929 84.337 9.0045 84.337 9.78972C84.337 10.5749 84.0354 11.3301 83.4945 11.8993ZM79.8631 11.4253C80.2735 11.834 80.8292 12.0635 81.4085 12.0635C81.9878 12.0635 82.5435 11.834 82.954 11.4253C83.3591 10.9787 83.5835 10.3974 83.5835 9.79446C83.5835 9.19154 83.3591 8.6102 82.954 8.16364C82.5435 7.75487 81.9878 7.52537 81.4085 7.52537C80.8292 7.52537 80.2735 7.75487 79.8631 8.16364C79.458 8.6102 79.2336 9.19154 79.2336 9.79446C79.2336 10.3974 79.458 10.9787 79.8631 11.4253ZM87.3155 12.6389V6.95001H89.373C89.8002 6.94194 90.2142 7.09805 90.5297 7.38616C90.6882 7.52365 90.8144 7.69429 90.8996 7.88598C90.9848 8.07768 91.0269 8.28576 91.0228 8.49549C91.0272 8.74823 90.9544 8.99631 90.8142 9.2066C90.675 9.41086 90.4811 9.57186 90.2548 9.6712C90.5298 9.76224 90.771 9.93406 90.9469 10.1642C91.1292 10.3965 91.2263 10.6844 91.2219 10.9796C91.2267 11.1982 91.1833 11.4152 91.0949 11.6151C91.0064 11.815 90.8749 11.993 90.7099 12.1364C90.3797 12.4409 89.9454 12.6072 89.4962 12.601L87.3155 12.6389ZM88.0456 9.38675H89.373C89.497 9.39193 89.6206 9.37001 89.7352 9.32252C89.8498 9.27503 89.9527 9.20312 90.0367 9.11179C90.1206 9.03567 90.1884 8.94342 90.2359 8.84055C90.2834 8.73768 90.3098 8.62629 90.3133 8.51302C90.3168 8.39976 90.2975 8.28695 90.2565 8.18131C90.2155 8.07567 90.1537 7.97937 90.0746 7.89816C89.9954 7.80853 89.8974 7.73744 89.7876 7.68992C89.6778 7.6424 89.5589 7.61962 89.4394 7.62319H88.0835L88.0456 9.38675ZM88.0456 11.9373H89.5152C89.6436 11.9416 89.7714 11.9175 89.8894 11.8667C90.0074 11.8158 90.1128 11.7396 90.1979 11.6433C90.3651 11.47 90.46 11.2394 90.4634 10.9986C90.4634 10.7471 90.3635 10.506 90.1857 10.3282C90.0078 10.1503 89.7667 10.0505 89.5152 10.0505H88.074L88.0456 11.9373Z" fill="white"/>
<path fill-rule="evenodd" clip-rule="evenodd" d="M48.5552 6.90643C48.1799 6.90643 47.8084 6.98069 47.4619 7.12493C47.1158 7.26903 46.8016 7.48011 46.5374 7.74605C46.0158 8.29864 45.7252 9.02979 45.7252 9.78972C45.7252 10.5495 46.0157 11.2806 46.5372 11.8332C47.0736 12.366 47.7991 12.6651 48.5552 12.6651C49.3114 12.6651 50.0369 12.366 50.5733 11.8331C51.0969 11.2816 51.3888 10.5502 51.3888 9.78972C51.3888 9.02916 51.0968 8.29764 50.5731 7.74615C50.3089 7.48017 49.9946 7.26905 49.6485 7.12493C49.3021 6.98069 48.9305 6.90643 48.5552 6.90643ZM47.389 6.94987C47.7586 6.79601 48.1549 6.7168 48.5552 6.7168C48.9555 6.7168 49.3519 6.79601 49.7214 6.94987C50.091 7.10373 50.4264 7.3292 50.7084 7.61329L50.7099 7.61476C51.2675 8.20158 51.5785 8.98019 51.5785 9.78972C51.5785 10.5992 51.2675 11.3778 50.7099 11.9647L50.708 11.9666C50.136 12.5355 49.362 12.8548 48.5552 12.8548C47.7484 12.8548 46.9745 12.5354 46.4024 11.9666L46.4003 11.9645C45.8449 11.3766 45.5355 10.5985 45.5355 9.78972C45.5355 8.98097 45.845 8.20286 46.4004 7.61497L46.402 7.61327C46.684 7.32918 47.0195 7.10373 47.389 6.94987ZM81.4085 6.90643C81.0333 6.90643 80.6617 6.98069 80.3152 7.12493C79.9692 7.26902 79.655 7.48009 79.3908 7.746C78.8691 8.2986 78.5785 9.02977 78.5785 9.78972C78.5785 10.5495 78.869 11.2806 79.3905 11.8332C79.927 12.366 80.6524 12.6651 81.4085 12.6651C82.1648 12.6651 82.8903 12.366 83.4267 11.833C83.9502 11.2815 84.2422 10.5501 84.2422 9.78972C84.2422 9.02917 83.9502 8.29766 83.4265 7.74617C83.1622 7.48018 82.848 7.26905 82.5019 7.12493C82.1554 6.98069 81.7838 6.90643 81.4085 6.90643ZM80.2424 6.94987C80.6119 6.79601 81.0082 6.7168 81.4085 6.7168C81.8088 6.7168 82.2052 6.79601 82.5747 6.94987C82.9443 7.10373 83.2797 7.3292 83.5618 7.61329L83.5632 7.61476C84.1208 8.20159 84.4318 8.98019 84.4318 9.78972C84.4318 10.5992 84.1208 11.3778 83.5632 11.9647L83.5614 11.9666C82.9893 12.5355 82.2153 12.8548 81.4085 12.8548C80.6018 12.8548 79.8278 12.5354 79.2558 11.9666L79.2537 11.9645C78.6983 11.3766 78.3889 10.5985 78.3889 9.78972C78.3889 8.98097 78.6983 8.20286 79.2537 7.61497L79.2553 7.61327C79.5373 7.32918 79.8728 7.10373 80.2424 6.94987ZM56.2764 7.14767C55.9281 6.98938 55.5486 6.91207 55.1661 6.92154L55.1619 6.92164C54.7833 6.91412 54.4071 6.9832 54.0559 7.12492C53.7047 7.26664 53.3858 7.47797 53.1185 7.74618C52.8511 8.01439 52.6408 8.33394 52.5002 8.68557C52.3596 9.03721 52.2916 9.41367 52.3004 9.79227L52.3005 9.79665C52.2917 10.1752 52.3596 10.5517 52.5002 10.9033C52.6408 11.255 52.8511 11.5745 53.1185 11.8427C53.3858 12.1109 53.7047 12.3223 54.0559 12.464C54.4071 12.6057 54.7833 12.6749 55.1619 12.6674L55.1638 12.7622L55.1656 12.6674C55.5954 12.6756 56.0217 12.5879 56.4134 12.4107C56.741 12.2549 57.0332 12.0342 57.2725 11.7623L56.8956 11.3854C56.6901 11.6199 56.4396 11.8113 56.1585 11.948C55.846 12.1 55.5035 12.1806 55.156 12.1838C54.8524 12.1916 54.5504 12.1377 54.2682 12.0255C53.9857 11.9132 53.729 11.7448 53.5135 11.5304L53.5104 11.5273C53.0833 11.0606 52.8465 10.4508 52.8465 9.81816C52.8465 9.18553 53.0834 8.57582 53.5104 8.10911L53.5135 8.10583C53.7289 7.89145 53.9857 7.72309 54.2682 7.61079C54.5495 7.49893 54.8506 7.44509 55.1532 7.45247C55.4694 7.43739 55.7847 7.49792 56.0728 7.62905C56.3303 7.74623 56.5595 7.91676 56.7454 8.1289L57.1194 7.76875C56.885 7.50548 56.5979 7.29382 56.2764 7.14767ZM55.1638 12.857C54.7603 12.8648 54.3592 12.7909 53.9849 12.6398C53.61 12.4885 53.2696 12.2629 52.9842 11.9766C52.6987 11.6903 52.4742 11.3491 52.3241 10.9737C52.1743 10.599 52.1017 10.1979 52.1107 9.79446C52.1017 9.39101 52.1743 8.98989 52.3241 8.61517C52.4742 8.23978 52.6987 7.89864 52.9842 7.61231C53.2696 7.32597 53.61 7.10037 53.9849 6.94907C54.3592 6.79804 54.7601 6.72418 55.1636 6.73191C55.5739 6.72207 55.9812 6.80519 56.3548 6.97504C56.7292 7.14519 57.0601 7.39795 57.3227 7.71434L57.3789 7.78211L56.7281 8.40888L56.6632 8.32661C56.4853 8.10074 56.256 7.92074 55.9943 7.80165C55.7326 7.68256 55.4462 7.62783 55.159 7.64204L55.1518 7.6424C54.8736 7.63517 54.5969 7.68418 54.3382 7.787C54.0803 7.88955 53.8458 8.04323 53.6488 8.23877C53.2547 8.67031 53.0361 9.23366 53.0361 9.81816C53.0361 10.4027 53.2547 10.966 53.6488 11.3975C53.8458 11.5931 54.0803 11.7468 54.3382 11.8493C54.5969 11.9521 54.8736 12.0014 55.1519 11.9942L55.1535 11.9942C55.4731 11.9913 55.7881 11.9173 56.0756 11.7775C56.3631 11.6377 56.6158 11.4356 56.8154 11.1859L56.8815 11.1031L57.5294 11.751L57.4746 11.8174C57.2077 12.1412 56.8729 12.4023 56.494 12.5823L56.4924 12.5831C56.0754 12.7719 55.6215 12.8655 55.1638 12.857ZM90.4658 7.45617C90.1682 7.18443 89.7777 7.0372 89.3748 7.04481L89.373 7.04483H87.4103V12.5424L89.4946 12.5062L89.4976 12.5062C89.9224 12.5121 90.3333 12.3548 90.6456 12.0667L90.6477 12.0648C90.8022 11.9305 90.9253 11.7639 91.0082 11.5767C91.091 11.3895 91.1316 11.1864 91.1271 10.9817L91.1271 10.9782C91.1312 10.7047 91.0412 10.438 90.8723 10.2228L90.8716 10.2218C90.7072 10.0068 90.4819 9.84626 90.225 9.76121L89.9906 9.68361L90.2167 9.58438C90.4266 9.49226 90.6063 9.34301 90.7355 9.15366C90.8649 8.95949 90.9321 8.73048 90.928 8.49716V8.49363C90.9318 8.29779 90.8926 8.10349 90.813 7.92449C90.7334 7.74549 90.6155 7.58616 90.4676 7.45777L90.4658 7.45617ZM90.5928 7.31537C90.2597 7.01159 89.8229 6.84691 89.3721 6.8552H87.2207V12.7354L89.4949 12.6958L89.4964 12.6958C89.9688 12.702 90.4256 12.5271 90.7731 12.207C90.9482 12.0547 91.0876 11.8657 91.1816 11.6535C91.2755 11.4414 91.3216 11.2112 91.3167 10.9793L91.3167 10.9811L91.2219 10.9796L91.3167 10.9775L91.3167 10.9793C91.321 10.6631 91.217 10.355 91.0219 10.1062C90.8769 9.91658 90.6903 9.7642 90.4777 9.66002C90.6413 9.557 90.7828 9.42104 90.8925 9.26L90.8931 9.25922C91.0437 9.03336 91.122 8.76699 91.1176 8.49556L91.1176 8.49735L91.0228 8.49549L91.1176 8.49382L91.1176 8.49556C91.1217 8.27254 91.0769 8.05132 90.9863 7.84747C90.8956 7.64347 90.7613 7.46183 90.5928 7.31537ZM40.4485 6.8552H44.4308V11.8425H45.066V13.9284H44.1748V12.7337H40.0219V13.9379H39.1306V11.8519H39.7814C40.0306 11.5796 40.2194 11.2575 40.3353 10.9067C40.4555 10.5431 40.4943 10.1575 40.4492 9.77719L40.4485 9.77162V6.8552ZM40.6382 7.04483V9.76045C40.6855 10.1665 40.6436 10.578 40.5154 10.9662C40.3865 11.3562 40.1736 11.7131 39.8917 12.0118L39.8637 12.0416H39.3202V13.7482H39.8322V12.5441H44.3644V13.7388H44.8764V12.0321H44.2411V7.04483H40.6382ZM57.9608 6.8552H62.0568V7.74645H60.4734V12.7337H59.5537V7.74645H57.9608V6.8552ZM58.1505 7.04483V7.55683H59.7434V12.5441H60.2838V7.55683H61.8672V7.04483H58.1505ZM66.0612 6.8552H67.1337L64.9238 11.781C64.8314 12.0812 64.6486 12.3456 64.4003 12.5381C64.1504 12.7319 63.8465 12.8433 63.5305 12.8569L63.5253 12.8571C63.3166 12.8545 63.1105 12.8097 62.9194 12.7257L62.844 12.6925L63.0891 11.8222L63.1949 11.8838C63.2959 11.9426 63.4105 11.9741 63.5274 11.9752L63.5336 11.9753C63.6508 11.9841 63.7679 11.9572 63.8693 11.8978C63.9685 11.8122 64.0451 11.7033 64.0922 11.5809L64.0943 11.5753L64.2851 11.1595L62.3462 6.86468H63.4182L64.7577 9.97814L66.0612 6.8552ZM66.1876 7.04483L64.7604 10.4641L63.2934 7.05431H62.6398L64.4935 11.1601L64.2681 11.6518C64.2085 11.8052 64.1116 11.9412 63.986 12.0476L63.9802 12.0525L63.9737 12.0564C63.838 12.1382 63.6804 12.176 63.5225 12.1648C63.4141 12.1634 63.3073 12.1416 63.2076 12.1009L63.0719 12.5829C63.2169 12.6364 63.3701 12.665 63.525 12.6673C63.8008 12.6549 64.066 12.5574 64.2841 12.3883C64.503 12.2186 64.6637 11.9851 64.7442 11.7201L64.7459 11.7143L66.8408 7.04483H66.1876ZM67.7173 6.8552H72.0219V12.7337H71.1022V7.74645H68.637V12.7337H67.7173V6.8552ZM67.9069 7.04483V12.5441H68.4474V7.55683H71.2918V12.5441H71.8322V7.04483H67.9069ZM73.1312 6.8552H74.0509V9.29194H76.7057V6.8552H77.6254V12.7337H76.7057V10.1642H74.0509V12.7337H73.1312V6.8552ZM73.3208 7.04483V12.5441H73.8613V9.9746H76.8954V12.5441H77.4358V7.04483H76.8954V9.48157H73.8613V7.04483H73.3208ZM46.9428 8.09646C47.3711 7.66999 47.9508 7.43056 48.5552 7.43056C49.1596 7.43056 49.7393 7.66999 50.1676 8.09646L50.171 8.09986C50.5919 8.56386 50.825 9.16799 50.825 9.79446C50.825 10.4209 50.5918 11.025 50.1709 11.489L50.1677 11.4925C49.7394 11.919 49.1596 12.1584 48.5552 12.1584C47.9508 12.1584 47.3711 11.9189 46.9428 11.4925L47.0097 11.4253L46.9395 11.489C46.5186 11.025 46.2854 10.4209 46.2854 9.79446C46.2854 9.16799 46.5186 8.56394 46.9395 8.09994L46.9428 8.09646ZM47.0783 11.3598C47.4709 11.7498 48.0018 11.9687 48.5552 11.9687C49.1086 11.9687 49.6395 11.7498 50.0321 11.3598C50.4203 10.9309 50.6354 10.373 50.6354 9.79446C50.6354 9.21589 50.4203 8.65801 50.0321 8.22913C49.6395 7.83912 49.1086 7.62019 48.5552 7.62019C48.0018 7.62019 47.4709 7.83912 47.0783 8.22913C46.6901 8.65801 46.4751 9.21589 46.4751 9.79446C46.4751 10.373 46.6901 10.9309 47.0783 11.3598ZM79.7962 8.09646C80.2244 7.66999 80.8042 7.43056 81.4085 7.43056C82.0129 7.43056 82.5927 7.66999 83.0209 8.09646L83.0243 8.09986C83.4452 8.56386 83.6783 9.16799 83.6783 9.79446C83.6783 10.4209 83.4452 11.025 83.0243 11.489L83.021 11.4925C82.5928 11.919 82.0129 12.1584 81.4085 12.1584C80.8042 12.1584 80.2244 11.9189 79.7962 11.4925L79.8631 11.4253L79.7928 11.489C79.3719 11.025 79.1388 10.4209 79.1388 9.79446C79.1388 9.16799 79.3719 8.56394 79.7928 8.09994L79.7962 8.09646ZM79.9317 11.3598C80.3242 11.7498 80.8551 11.9687 81.4085 11.9687C81.962 11.9687 82.4929 11.7498 82.8854 11.3598C83.2737 10.9309 83.4887 10.373 83.4887 9.79446C83.4887 9.21589 83.2737 8.658 82.8854 8.22912C82.4929 7.83911 81.962 7.62019 81.4085 7.62019C80.8551 7.62019 80.3242 7.83911 79.9317 8.22912C79.5434 8.658 79.3284 9.21589 79.3284 9.79446C79.3284 10.373 79.5434 10.9309 79.9317 11.3598ZM89.438 7.52838C89.571 7.52462 89.7032 7.55006 89.8253 7.60291C89.9472 7.65566 90.056 7.73444 90.1442 7.83371C90.2313 7.9237 90.2996 8.03022 90.3449 8.147C90.3905 8.2645 90.412 8.39 90.4081 8.51599C90.4041 8.64197 90.3749 8.76588 90.322 8.88031C90.2697 8.99344 90.1955 9.09502 90.1036 9.17914C90.0108 9.27911 89.8975 9.3579 89.7715 9.41011C89.6447 9.46262 89.5081 9.48699 89.3711 9.48157H87.9487L87.9907 7.52838H89.438ZM89.75 7.77693C89.6529 7.73494 89.5479 7.71481 89.4422 7.71797L89.4394 7.71801H88.1763L88.1425 9.29194H89.3769C89.4871 9.29654 89.597 9.27714 89.6989 9.23492C89.8008 9.19271 89.8923 9.12879 89.9669 9.04761L89.9698 9.04444L89.973 9.04155C90.0475 8.97398 90.1077 8.8921 90.1498 8.80079C90.192 8.70948 90.2154 8.6106 90.2185 8.51006C90.2217 8.40953 90.2045 8.30939 90.1681 8.21562C90.1317 8.12185 90.0768 8.03637 90.0067 7.96428L90.0035 7.96103C89.9335 7.88183 89.847 7.81893 89.75 7.77693ZM41.1502 7.55683H43.6438V12.07H40.5365L40.6234 11.9262C41.0098 11.2869 41.1935 10.5456 41.1503 9.79993L41.15 9.79446L41.1502 7.55683ZM41.3398 7.74645V9.79173C41.3814 10.5194 41.2175 11.243 40.8685 11.8804H43.4542V7.74645H41.3398ZM87.9806 9.95564H89.5152C89.7918 9.95564 90.0571 10.0655 90.2527 10.2611C90.4483 10.4567 90.5582 10.722 90.5582 10.9986L90.5582 10.9999C90.5544 11.2642 90.4505 11.5172 90.2675 11.7077C90.1734 11.8137 90.0571 11.8977 89.9269 11.9537C89.7966 12.0099 89.6555 12.0366 89.5137 12.0321H87.9493L87.9806 9.95564ZM88.1674 10.1453L88.1418 11.8425H89.5184C89.6329 11.8463 89.7467 11.8249 89.8519 11.7796C89.9571 11.7343 90.051 11.6663 90.1269 11.5805L90.1296 11.5775C90.2799 11.4216 90.3653 11.2144 90.3685 10.9979C90.3684 10.7718 90.2785 10.5551 90.1186 10.3952C89.9586 10.2352 89.7415 10.1453 89.5152 10.1453H88.1674Z" fill="white"/>
<path d="M9.89999 7.46115C9.59096 7.83198 9.43498 8.3067 9.46385 8.78855V29.7616C9.43498 30.2435 9.59096 30.7182 9.89999 31.089L9.96636 31.1554L21.7139 19.4173V19.1423L9.96636 7.39478L9.89999 7.46115Z" fill="url(#paint0_linear)"/>
<path d="M25.6005 23.3329L21.7131 19.4171V19.1421L25.6005 15.2168L25.6859 15.2642L30.3413 17.9095C31.6687 18.6586 31.6687 19.8912 30.3413 20.6497L25.7048 23.2855L25.6005 23.3329Z" fill="url(#paint1_linear)"/>
<path d="M25.7145 23.2763L21.7133 19.2751L9.89941 31.0891C10.17 31.3269 10.5151 31.4628 10.8752 31.4732C11.2353 31.4836 11.5877 31.3678 11.8716 31.146L25.724 23.2763" fill="url(#paint2_linear)"/>
<path d="M25.7147 15.2736L11.8623 7.40401C11.5785 7.18216 11.226 7.06643 10.866 7.07681C10.5059 7.0872 10.1607 7.22306 9.89014 7.4609L21.7135 19.2748L25.7147 15.2736Z" fill="url(#paint3_linear)"/>
<path opacity="0.2" d="M25.6007 23.1907L11.8621 31.0129C11.5883 31.2176 11.2557 31.3282 10.9139 31.3282C10.5721 31.3282 10.2395 31.2176 9.96578 31.0129L9.89941 31.0793L9.96578 31.1456C10.2389 31.3518 10.5718 31.4633 10.9139 31.4633C11.2561 31.4633 11.589 31.3518 11.8621 31.1456L25.7145 23.276L25.6007 23.1907Z" fill="#273142"/>
<path opacity="0.12" d="M9.89999 30.9563C9.59096 30.5855 9.43498 30.1108 9.46385 29.6289V29.7711C9.43498 30.253 9.59096 30.7277 9.89999 31.0986L9.96636 31.0322L9.89999 30.9563ZM30.3421 20.5077L25.6013 23.191L25.6867 23.2763L30.3421 20.6405C30.6062 20.5164 30.833 20.3248 30.9994 20.0851C31.1659 19.8454 31.2662 19.566 31.2902 19.2751C31.2369 19.5394 31.1237 19.7879 30.9593 20.0016C30.795 20.2153 30.5838 20.3884 30.3421 20.5077Z" fill="#273142"/>
<path opacity="0.25" d="M11.8614 7.53775L30.3408 18.0432C30.5826 18.1625 30.7937 18.3357 30.9581 18.5494C31.1225 18.7631 31.2357 19.0116 31.289 19.2758C31.265 18.985 31.1647 18.7056 30.9982 18.4659C30.8317 18.2261 30.605 18.0346 30.3408 17.9105L11.8614 7.405C10.534 6.65597 9.45312 7.28175 9.45312 8.79878V8.94101C9.48157 7.41449 10.5435 6.78871 11.8614 7.53775Z" fill="white"/>
</g>
<defs>
<linearGradient id="paint0_linear" x1="20.671" y1="8.57048" x2="4.76103" y2="24.4804" gradientUnits="userSpaceOnUse">
<stop stop-color="#00A0FF"/>
<stop offset="0.01" stop-color="#00A1FF"/>
<stop offset="0.26" stop-color="#00BEFF"/>
<stop offset="0.51" stop-color="#00D2FF"/>
<stop offset="0.76" stop-color="#00DFFF"/>
<stop offset="1" stop-color="#00E3FF"/>
</linearGradient>
<linearGradient id="paint1_linear" x1="32.0764" y1="19.2749" x2="9.1407" y2="19.2749" gradientUnits="userSpaceOnUse">
<stop stop-color="#FFE000"/>
<stop offset="0.41" stop-color="#FFBD00"/>
<stop offset="0.78" stop-color="#FFA500"/>
<stop offset="1" stop-color="#FF9C00"/>
</linearGradient>
<linearGradient id="paint2_linear" x1="23.5433" y1="21.4559" x2="1.96341" y2="43.0263" gradientUnits="userSpaceOnUse">
<stop stop-color="#FF3A44"/>
<stop offset="1" stop-color="#C31162"/>
</linearGradient>
<linearGradient id="paint3_linear" x1="6.92243" y1="0.482534" x2="16.5556" y2="10.1157" gradientUnits="userSpaceOnUse">
<stop stop-color="#32A071"/>
<stop offset="0.07" stop-color="#2DA771"/>
<stop offset="0.48" stop-color="#15CF74"/>
<stop offset="0.8" stop-color="#06E775"/>
<stop offset="1" stop-color="#00F076"/>
</linearGradient>
<clipPath id="clip0">
<rect width="128" height="37.9259" fill="white" transform="translate(0 0.313477)"/>
</clipPath>
</defs>
</svg>
