<svg width="158" height="50" viewBox="0 0 158 50" fill="none" xmlns="http://www.w3.org/2000/svg">
<g opacity="0.5">
<g opacity="0.5">
<path opacity="0.5" d="M52.8998 6.08203C52.8138 6.08203 52.7301 6.08439 52.6465 6.08676C53.6645 6.1222 54.6275 6.32308 55.4926 6.67046C54.7088 6.29472 53.8294 6.08203 52.8998 6.08203Z" fill="#EA9400"/>
</g>
</g>
<g opacity="0.5">
<g opacity="0.5">
<path opacity="0.5" d="M57.4169 15.7227C57.1945 15.9661 56.9577 16.2 56.709 16.4198C56.9649 16.2095 57.2016 15.9755 57.4169 15.7227Z" fill="#EA9400"/>
</g>
</g>
<path d="M42.6074 19.6792C42.8131 19.0435 43.0451 18.4219 43.3058 17.8193C43.0212 18.4432 42.7772 19.0765 42.6074 19.6792Z" fill="#EA9400"/>
<path d="M45.8502 13.4004C45.8502 13.4004 45.8478 13.4053 45.8403 13.4153C45.8428 13.4103 45.8477 13.4053 45.8502 13.4004Z" fill="#EA9400"/>
<path d="M38.6286 0.71164C35.6224 2.89285 37.398 7.04023 37.398 7.04023C16.565 -9.76433 2.17219 7.21511 6.10794 20.1062C6.20591 20.4324 6.28955 20.7372 6.3469 21.0232C6.44249 21.3658 6.49506 21.7274 6.49506 22.1008C6.49506 24.3174 4.67654 26.1158 2.43505 26.1158C1.5222 26.1158 0.678659 25.8181 0 25.3147C0.798142 29.533 6.86306 30.4097 8.82257 26.95C10.3902 29.8236 12.8754 30.4097 12.8754 30.4097C14.4908 28.4341 13.5063 24.7948 13.5063 24.7948C17.7957 25.8842 22.1138 22.0464 19.1148 15.8336C19.1148 15.8336 19.0789 20.9286 13.5732 20.3213C4.97046 19.376 7.66837 3.61599 20.6776 3.61599C29.8753 3.61599 35.2377 9.85478 38.815 13.3948C38.815 13.3948 39.8521 11.8351 41.2883 10.6086C41.2094 10.4739 41.1354 10.3416 41.0685 10.2093C41.0637 10.1974 41.0565 10.188 41.0517 10.1785C38.5999 5.42146 41.8427 1.78925 46.3257 3.82867C44.4044 0.113756 40.7602 -0.836242 38.6286 0.71164Z" fill="#EA9400"/>
<path d="M8.94922 41.7075C9.47733 42.3857 10.1703 42.8938 10.9756 43.227C10.1918 42.8749 9.49884 42.3527 8.94922 41.7075Z" fill="#EA9400"/>
<g opacity="0.5">
<g opacity="0.5">
<path opacity="0.5" d="M10.9756 43.2275C11.7044 43.5537 12.5121 43.738 13.3628 43.738C13.6353 43.738 13.9029 43.7191 14.1658 43.6836C12.9996 43.7687 11.9099 43.6151 10.9756 43.2275Z" fill="#EA9400"/>
</g>
</g>
<path d="M17.6309 38.653C17.6352 38.6486 17.6418 38.6443 17.6484 38.6377C17.6418 38.6443 17.6374 38.6486 17.6309 38.653Z" fill="#EA9400"/>
<path d="M17.2866 38.9452C17.2917 38.9426 17.2967 38.9376 17.2992 38.9351C17.2967 38.9376 17.2917 38.9401 17.2866 38.9452Z" fill="#EA9400"/>
<path d="M17.1646 39.0403C17.174 39.0332 17.1811 39.0261 17.1906 39.019C17.1811 39.0261 17.1716 39.0332 17.1646 39.0403Z" fill="#EA9400"/>
<path d="M18.2139 38.1088C18.235 38.0877 18.2561 38.0665 18.2749 38.0454C18.2538 38.0665 18.235 38.0877 18.2139 38.1088Z" fill="#EA9400"/>
<path d="M17.8457 38.4641C17.8627 38.4471 17.8821 38.4301 17.8991 38.4131C17.8821 38.4301 17.8651 38.4471 17.8457 38.4641Z" fill="#EA9400"/>
<path d="M18.3379 37.9815C18.3591 37.9603 18.3803 37.9367 18.4015 37.9155C18.3803 37.9391 18.3591 37.9603 18.3379 37.9815Z" fill="#EA9400"/>
<path d="M17.9673 38.3478C17.9862 38.3289 18.0051 38.3099 18.0241 38.291C18.0051 38.3123 17.9862 38.3312 17.9673 38.3478Z" fill="#EA9400"/>
<path d="M16.4463 39.5372C16.4512 39.5347 16.4562 39.5323 16.4612 39.5298C16.4562 39.5323 16.4512 39.5347 16.4463 39.5372Z" fill="#EA9400"/>
<path d="M16.5601 39.4639C16.5666 39.4595 16.5732 39.4551 16.5798 39.4507C16.5732 39.4551 16.5666 39.4595 16.5601 39.4639Z" fill="#EA9400"/>
<path d="M16.7988 39.3061C16.8081 39.2992 16.8173 39.2922 16.8266 39.2876C16.8173 39.2922 16.8081 39.2992 16.7988 39.3061Z" fill="#EA9400"/>
<path d="M16.6792 39.3881C16.6863 39.3834 16.6958 39.3763 16.7052 39.3716C16.6958 39.3763 16.6863 39.381 16.6792 39.3881Z" fill="#EA9400"/>
<path d="M16.9185 39.22C16.9277 39.2131 16.937 39.2062 16.9462 39.1992C16.9393 39.2062 16.93 39.2131 16.9185 39.22Z" fill="#EA9400"/>
<path d="M17.0405 39.1312C17.0498 39.1242 17.059 39.1173 17.0683 39.1104C17.0613 39.1173 17.0521 39.1242 17.0405 39.1312Z" fill="#EA9400"/>
<path d="M17.7285 38.5666C17.7447 38.5527 17.7585 38.5412 17.7723 38.5273C17.7585 38.5412 17.7447 38.5527 17.7285 38.5666Z" fill="#EA9400"/>
<path d="M18.1504 38.1689C18.1316 38.1877 18.1105 38.2088 18.0894 38.2276C18.1105 38.2088 18.1293 38.1901 18.1504 38.1689Z" fill="#EA9400"/>
<path d="M18.7061 37.5842C18.73 37.5579 18.7539 37.5292 18.7778 37.5005C18.7539 37.5268 18.73 37.5555 18.7061 37.5842Z" fill="#EA9400"/>
<path d="M18.584 37.7175C18.6074 37.6918 18.6285 37.6683 18.6519 37.6426C18.6285 37.6683 18.6074 37.6941 18.584 37.7175Z" fill="#EA9400"/>
<path d="M18.8301 37.4435C18.8566 37.4125 18.8856 37.3815 18.9121 37.3481C18.8832 37.3815 18.8566 37.4125 18.8301 37.4435Z" fill="#EA9400"/>
<path d="M18.46 37.8501C18.481 37.8266 18.5021 37.8032 18.5255 37.7798C18.5045 37.8055 18.4834 37.829 18.46 37.8501Z" fill="#EA9400"/>
<path d="M18.9521 37.3021C18.9932 37.2521 19.0342 37.2044 19.0752 37.1543C19.0342 37.2044 18.9932 37.2521 18.9521 37.3021Z" fill="#EA9400"/>
<path d="M16.7036 39.3708C16.735 39.3491 16.7664 39.3274 16.7977 39.3057C16.7688 39.3274 16.7374 39.3491 16.7036 39.3708Z" fill="#EA9400"/>
<path d="M16.9492 39.2003C16.9806 39.1786 17.012 39.1545 17.0433 39.1304C17.012 39.1545 16.9806 39.1786 16.9492 39.2003Z" fill="#EA9400"/>
<path d="M18.2124 38.1094C18.1913 38.1305 18.1725 38.1516 18.1514 38.1704C18.1701 38.1493 18.1913 38.1282 18.2124 38.1094Z" fill="#EA9400"/>
<path d="M16.8276 39.2878C16.859 39.2661 16.8904 39.2443 16.9217 39.2202C16.888 39.2443 16.8566 39.2661 16.8276 39.2878Z" fill="#EA9400"/>
<path d="M16.3364 39.603C16.3722 39.5815 16.4081 39.5576 16.4463 39.5361C16.4104 39.5576 16.3746 39.5815 16.3364 39.603Z" fill="#EA9400"/>
<path d="M18.4023 37.9149C18.4211 37.8938 18.4422 37.8727 18.461 37.8516C18.4399 37.8727 18.4211 37.8938 18.4023 37.9149Z" fill="#EA9400"/>
<path d="M15.2983 40.0951C15.6355 39.9769 15.9823 39.8115 16.3363 39.6035C15.9823 39.8115 15.6355 39.9769 15.2983 40.0951Z" fill="#EA9400"/>
<path d="M16.4604 39.5308C16.4939 39.5093 16.5273 39.4878 16.5631 39.4663C16.5273 39.4878 16.4939 39.5093 16.4604 39.5308Z" fill="#EA9400"/>
<path d="M16.5815 39.4526C16.6126 39.4312 16.646 39.4097 16.6794 39.3882C16.646 39.4097 16.6126 39.4312 16.5815 39.4526Z" fill="#EA9400"/>
<path d="M17.9009 38.4113C17.9221 38.3901 17.9457 38.3689 17.9669 38.3477C17.9457 38.3689 17.9221 38.3901 17.9009 38.4113Z" fill="#EA9400"/>
<path d="M18.6533 37.644C18.6721 37.6229 18.6885 37.6041 18.7073 37.583C18.6885 37.6041 18.6697 37.6252 18.6533 37.644Z" fill="#EA9400"/>
<path d="M18.0249 38.2939C18.046 38.2728 18.0671 38.2517 18.0883 38.2329C18.0671 38.2517 18.046 38.2728 18.0249 38.2939Z" fill="#EA9400"/>
<path d="M18.5269 37.7798C18.5456 37.7586 18.5644 37.7399 18.5832 37.7188C18.5644 37.7399 18.5456 37.761 18.5269 37.7798Z" fill="#EA9400"/>
<path d="M18.2759 38.0448C18.297 38.0237 18.3158 38.0026 18.3369 37.9814C18.3158 38.0026 18.297 38.0237 18.2759 38.0448Z" fill="#EA9400"/>
<path d="M17.7739 38.5275C17.7973 38.5064 17.8208 38.4853 17.8442 38.4619C17.8208 38.483 17.7973 38.5064 17.7739 38.5275Z" fill="#EA9400"/>
<path d="M17.6499 38.6381C17.6753 38.615 17.7007 38.5919 17.7261 38.5688C17.7007 38.5919 17.6753 38.615 17.6499 38.6381Z" fill="#EA9400"/>
<path d="M17.0713 39.1114C17.1027 39.0873 17.134 39.0632 17.1654 39.0391C17.134 39.0656 17.1027 39.0873 17.0713 39.1114Z" fill="#EA9400"/>
<path d="M17.1909 39.0193C17.222 38.993 17.2554 38.9691 17.2888 38.9429C17.2554 38.9691 17.222 38.993 17.1909 39.0193Z" fill="#EA9400"/>
<path d="M18.9092 37.3497C18.9232 37.3334 18.9371 37.3171 18.9511 37.3008C18.9371 37.3171 18.9232 37.3334 18.9092 37.3497Z" fill="#EA9400"/>
<path d="M17.2983 38.9308C17.4084 38.8433 17.5208 38.7512 17.6308 38.6543C17.5208 38.7512 17.4107 38.8433 17.2983 38.9308Z" fill="#EA9400"/>
<path d="M18.7803 37.5015C18.7967 37.4828 18.8131 37.464 18.8296 37.4429C18.8131 37.464 18.7967 37.4828 18.7803 37.5015Z" fill="#EA9400"/>
<path d="M16.0273 31.6355C16.109 31.6307 16.1882 31.6259 16.2699 31.6211C16.1882 31.6259 16.109 31.6307 16.0273 31.6355Z" fill="#EA9400"/>
<path d="M16.0107 31.6371C16.0157 31.6371 16.0207 31.6371 16.0282 31.6371C16.0232 31.6346 16.0157 31.6346 16.0107 31.6371Z" fill="#EA9400"/>
<path d="M56.6799 23.1379C55.1122 20.2643 52.627 19.6782 52.627 19.6782C51.0116 21.6538 51.9962 25.2931 51.9962 25.2931C47.7091 24.2013 43.3886 28.0415 46.3877 34.2543C46.3877 34.2543 46.4211 29.1593 51.9292 29.7643C60.5344 30.7095 57.8341 46.4696 44.8248 46.4696C35.7179 46.4696 30.236 39.9472 26.654 36.3812C25.8941 37.6904 24.9764 38.8601 24.2882 39.6636C26.9025 43.9221 23.0647 48.0293 19.1768 46.2616C21.0885 49.4944 24.3408 50.8864 26.4891 49.3597C30.1691 46.7437 28.1045 43.0524 28.1045 43.0524C48.9398 59.8546 64.5203 42.4687 59.3945 29.984C59.2655 29.6697 59.2129 29.3531 59.1555 29.0671C59.0599 28.7245 59.0074 28.3629 59.0074 27.9895C59.0074 25.7705 60.8259 23.9745 63.0674 23.9745C63.9802 23.9745 64.8238 24.2722 65.5024 24.7756C64.7043 20.5573 58.6394 19.6782 56.6799 23.1379Z" fill="#EA9400"/>
<path d="M19.9536 35.9702C20.0493 35.8284 20.1425 35.6842 20.2382 35.5377C20.231 35.533 20.2262 35.5306 20.2191 35.5259C20.0588 35.7976 19.956 35.9678 19.9536 35.9702Z" fill="#EA9400"/>
<path d="M55.4923 6.67262C54.6273 6.32523 53.6642 6.12436 52.6463 6.08892C50.1515 6.00384 47.315 6.91603 44.7174 9.12796C44.2204 9.55097 43.7329 10.0212 43.2573 10.5411C43.2024 10.6002 43.145 10.6593 43.0877 10.7184C42.8845 10.9405 41.2907 12.6964 39.9501 14.49C39.9524 14.4924 39.9525 14.4924 39.9548 14.4947C37.4003 17.9662 35.1779 21.9482 33.283 25.7293C33.283 25.7293 31.5122 20.5161 28.7928 17.685C25.3565 14.1048 25.5142 8.1756 31.4381 10.612C31.4381 10.612 27.9851 5.0633 23.1795 9.97871C23.1795 9.97871 14.4048 6.90658 13.1932 15.8772C21.6478 7.41466 26.0495 19.715 22.4411 30.7747C22.2022 31.512 21.9345 32.2091 21.6454 32.8684C21.2152 33.8492 20.7397 34.7401 20.2331 35.5388C20.1399 35.6854 20.0443 35.8295 19.9487 35.9713L19.8794 36.0729C19.6142 36.4581 19.3441 36.8197 19.0693 37.1553C19.0287 37.2049 18.9881 37.2545 18.9475 37.3018C18.9331 37.3183 18.9188 37.3349 18.9045 37.3514C18.8782 37.3821 18.8519 37.4152 18.8232 37.4459C18.8065 37.4648 18.7898 37.4837 18.773 37.505C18.7491 37.5334 18.7252 37.5594 18.7013 37.5877C18.6822 37.609 18.6655 37.6279 18.6464 37.6492C18.6225 37.6752 18.601 37.6988 18.5771 37.7248C18.558 37.746 18.5388 37.7649 18.5197 37.7862C18.4982 37.8098 18.4767 37.8335 18.4528 37.8571C18.4337 37.8784 18.4146 37.8997 18.3931 37.9209C18.3716 37.9422 18.3501 37.9658 18.3286 37.9871C18.3094 38.0084 18.2879 38.0296 18.2664 38.0509C18.2449 38.0722 18.2258 38.0934 18.2043 38.1147C18.1828 38.136 18.1637 38.1572 18.1422 38.1761C18.123 38.1951 18.1015 38.2163 18.08 38.2352C18.0585 38.2565 18.037 38.2778 18.0155 38.2967C17.9964 38.3156 17.9773 38.3345 17.9582 38.3534C17.9366 38.3747 17.9128 38.3959 17.8912 38.4172C17.8745 38.4337 17.8554 38.4503 17.8387 38.4668C17.8148 38.4881 17.7909 38.5117 17.767 38.533C17.7526 38.5472 17.7359 38.5613 17.7216 38.5732C17.6953 38.5968 17.669 38.6204 17.6427 38.6441C17.6356 38.6488 17.6308 38.6535 17.6236 38.6606C17.5137 38.7575 17.4014 38.8496 17.2914 38.9371C17.2867 38.9394 17.2843 38.9442 17.2795 38.9465C17.246 38.9725 17.215 38.9985 17.1815 39.0222C17.172 39.0293 17.1648 39.0363 17.1552 39.0434C17.1242 39.0671 17.0931 39.0907 17.062 39.1143C17.0525 39.1214 17.0429 39.1285 17.0334 39.1356C17.0023 39.1592 16.9712 39.1805 16.9402 39.2041C16.9306 39.2112 16.921 39.2183 16.9115 39.2254C16.8804 39.2467 16.8494 39.2703 16.8183 39.2916C16.8087 39.2986 16.7992 39.3057 16.7896 39.3105C16.7586 39.3317 16.7275 39.353 16.6964 39.3743C16.6869 39.379 16.6797 39.3861 16.6701 39.3908C16.6391 39.4121 16.6056 39.4334 16.5722 39.4546C16.565 39.4593 16.5578 39.4641 16.5507 39.4688C16.5172 39.4901 16.4837 39.5113 16.4479 39.5326C16.4431 39.535 16.4383 39.5373 16.4336 39.5397C16.3977 39.561 16.3619 39.5846 16.3236 39.6059C15.97 39.8138 15.6235 39.9792 15.2841 40.0974C14.9161 40.2746 14.5027 40.3739 14.0654 40.3739C12.5289 40.3739 11.2839 39.1427 11.2839 37.6232C11.2839 36.6873 11.757 35.8626 12.4763 35.3663C12.5408 35.3214 12.6077 35.2789 12.677 35.2387C13.3414 34.8204 16.0918 33.9484 18.926 34.9433C19.6644 33.8468 20.0467 32.9204 20.2331 32.3462C18.3333 31.7648 14.768 31.1126 11.1214 32.755C9.03761 33.6176 7.57275 35.6523 7.57275 38.0273C7.57275 39.431 8.08414 40.7166 8.93246 41.7091C9.48208 42.3542 10.1751 42.8765 10.9589 43.2286C11.8932 43.6162 12.9805 43.7698 14.1491 43.6824C17.0788 43.4649 20.5103 41.7304 23.2536 38.3534C24.004 37.4317 24.7017 36.3872 25.323 35.2174C26.9982 32.0697 28.1285 28.0145 28.2384 23.0045C28.2384 23.0045 32.3151 27.9034 33.5506 34.7637C33.5506 34.7637 36.031 26.8542 38.3777 23.1109C38.1124 26.6415 38.4279 30.5714 39.7326 34.2036C39.8497 34.7614 39.9548 35.1844 40.0433 35.3923C41.489 38.826 40.103 42.5268 35.7586 41.806C35.7586 41.806 41.4197 45.3862 43.5967 40.2368C43.5967 40.2368 48.6555 42.2526 51.3057 39.1001C53.9558 35.9477 53.0119 32.6818 51.3415 31.486C51.3415 31.486 52.6486 35.8839 48.603 37.264C45.8023 38.2163 40.5642 35.1253 41.7256 23.7371C41.8666 22.3547 42.1677 20.9888 42.5882 19.6819C42.7579 19.0793 43.0016 18.446 43.286 17.8221C43.3935 17.5834 43.5082 17.3447 43.6253 17.1084C44.2371 15.8819 44.9301 14.7641 45.3746 14.0812C45.6159 13.7125 45.7832 13.4715 45.8238 13.4148C45.831 13.4053 45.8334 13.4006 45.8334 13.4006C46.1966 12.9138 46.5742 12.4482 46.9637 12.0134C48.6388 10.2292 50.1228 9.0996 51.4347 8.83493C51.6689 8.78057 51.9102 8.74985 52.1612 8.74985C53.9008 8.74985 55.3107 10.1441 55.3107 11.8645C55.3107 12.4033 55.1721 12.909 54.9284 13.351C54.2927 14.6082 52.5387 15.5534 49.4155 15.2675C49.4155 15.2675 48.7583 15.1919 47.7977 14.9414C47.4631 14.8539 47.0879 14.7429 46.6936 14.6082C46.015 15.3998 45.3937 16.6287 44.9229 17.7134C45.0448 17.763 45.1691 17.8126 45.2933 17.8623C45.874 18.1104 47.0497 18.5429 48.5432 18.7437C50.2686 18.9753 52.4168 18.895 54.558 17.8552C55.3155 17.4865 56.0443 16.9973 56.6919 16.4231C56.9404 16.2033 57.177 15.9694 57.3993 15.726C58.2739 14.7051 58.802 13.384 58.802 11.9425C58.8211 9.62423 57.4638 7.62262 55.4923 6.67262Z" fill="#EA9400"/>
<path d="M19.8843 36.0712L19.9535 35.9697C19.932 36.0028 19.9082 36.0358 19.8843 36.0712Z" fill="#EA9400"/>
<rect x="71.9263" y="28.4458" width="86.0556" height="12.933" fill="#32386B"/>
<path d="M96.7105 33.0026L97.2912 31.7799C96.5707 31.3162 95.5705 31 94.5703 31C92.8817 31 91.7525 31.8221 91.7525 33.108C91.7525 35.7324 95.7963 34.8576 95.7963 36.3964C95.7963 36.9128 95.3123 37.2079 94.5057 37.2079C93.6991 37.2079 92.6774 36.7969 91.9031 36.1223L91.3008 37.3133C92.1074 38.0195 93.2797 38.4938 94.4842 38.4938C96.1405 38.4938 97.3665 37.6928 97.3665 36.3121C97.3773 33.6666 93.3335 34.4781 93.3335 32.9815C93.3335 32.5283 93.7744 32.2859 94.452 32.2859C95.0327 32.2859 95.9039 32.5283 96.7105 33.0026Z" fill="white"/>
<path d="M104.109 31.0632V38.4411H105.55V35.4478H109.304V38.4411H110.745V31.0632H109.304V34.2146H105.55V31.0632H104.109Z" fill="white"/>
<path d="M121.403 31.0211C119.134 31.0211 117.392 32.6231 117.392 34.7522C117.392 36.8707 119.134 38.5043 121.403 38.5043C123.673 38.5043 125.415 36.8707 125.415 34.7522C125.415 32.6337 123.673 31.0211 121.403 31.0211ZM121.425 32.2859C122.801 32.2859 123.941 33.3609 123.941 34.7522C123.941 36.1434 122.801 37.2396 121.425 37.2396C120.037 37.2396 118.865 36.1434 118.865 34.7522C118.865 33.3609 120.027 32.2859 121.425 32.2859Z" fill="white"/>
<path d="M135.144 31.0632H132.057V38.4411H133.498V36.2699H135.144C137.037 36.2699 138.123 35.2897 138.123 33.6033C138.123 31.9802 137.037 31.0632 135.144 31.0632ZM135.068 35.0262H133.498V32.2964H135.068C136.144 32.2964 136.757 32.7391 136.757 33.6455C136.757 34.573 136.144 35.0262 135.068 35.0262Z" fill="white"/>
<path d="M86.387 24.7462L86.3407 16.3673L82.2293 23.1876H80.2183L76.1315 16.593V24.7462H71.9521V8.93701H75.675L81.2916 18.0602L86.7725 8.93701H90.4954L90.5416 24.7462H86.387Z" fill="#32386B"/>
<path d="M106.574 21.2904V24.7462H93.7402V8.93701H106.278V12.3929H98.2187V15.0588H105.322V18.4018H98.2187V21.2934H106.574V21.2904Z" fill="#32386B"/>
<path d="M116.074 20.5461H113.61V24.7462H109.088V8.93701H116.395C120.756 8.93701 123.498 11.1728 123.498 14.7873C123.498 17.1146 122.357 18.8288 120.371 19.7775L123.819 24.7462H118.976L116.074 20.5461ZM116.12 12.4631H113.61V17.0933H116.12C117.992 17.0933 118.93 16.2362 118.93 14.7904C118.93 13.3202 117.992 12.4631 116.12 12.4631Z" fill="#32386B"/>
<path d="M125.164 16.8429C125.164 12.0998 128.933 8.62256 134.047 8.62256C139.16 8.62256 142.93 12.0998 142.93 16.8429C142.93 21.5859 139.164 25.0632 134.047 25.0632C128.933 25.0632 125.164 21.5859 125.164 16.8429ZM138.365 16.8429C138.365 14.1099 136.471 12.3255 134.05 12.3255C131.628 12.3255 129.735 14.1099 129.735 16.8429C129.735 19.5758 131.632 21.3602 134.05 21.3602C136.468 21.3602 138.365 19.5758 138.365 16.8429Z" fill="#32386B"/>
<path d="M144.188 23.3246L145.672 20.0273C147.087 20.9545 149.098 21.5859 150.946 21.5859C152.818 21.5859 153.549 21.0674 153.549 20.2988C153.549 17.7915 144.463 19.6216 144.463 13.75C144.463 10.9255 146.791 8.62256 151.541 8.62256C153.62 8.62256 155.767 9.09534 157.34 10.0012L155.946 13.3199C154.416 12.5085 152.908 12.0998 151.516 12.0998C149.62 12.0998 148.935 12.7312 148.935 13.5212C148.935 15.937 158 14.1312 158 19.9571C158 22.7115 155.671 25.0601 150.921 25.0601C148.299 25.0632 145.696 24.3616 144.188 23.3246Z" fill="#32386B"/>
</svg>
