<svg width="82" height="24" viewBox="0 0 82 24" fill="none" xmlns="http://www.w3.org/2000/svg">
<path d="M12.0224 0.931642C13.7221 0.930893 15.4002 1.31387 16.932 2.05212L17.635 2.41901L16.6097 3.32889L15.074 1.74393L12.4274 4.07001L10.869 2.3992L6.00189 6.73362L9.11797 10.1384L7.9023 11.195L10.9766 14.5997L9.76096 15.6564L14.1586 20.4993L16.7613 18.1314L19.0316 20.6703C18.5826 21.0078 18.092 21.3475 17.5669 21.6433C15.8843 22.5869 13.988 23.0816 12.0598 23.08C5.87593 23.0668 0.859447 18.0991 0.859447 11.9897C0.837477 5.92133 5.85396 0.931642 12.0224 0.931642ZM9.97187 11.3131L12.6405 8.94523L15.0316 11.5883L12.3629 13.9562L9.97187 11.3131ZM11.8723 15.8802L14.5189 13.491L16.9312 16.1326L14.2626 18.5005L11.8723 15.8802ZM8.07293 6.8114L10.7401 4.4435L13.1304 7.08657L10.4618 9.45447L8.07293 6.8114ZM12.9598 5.54197L14.9371 3.76623L16.7313 5.73275L14.754 7.5305L12.9598 5.54197ZM16.5043 13.6818L18.4816 11.906L20.2758 13.8931L18.2978 15.6681L16.5043 13.6818ZM18.2619 17.6779L20.2392 15.9022L22.0312 17.8687L20.0539 19.665L18.2619 17.6779ZM19.074 8.55046L20.3974 7.36614L21.5925 8.6774L20.2692 9.86098L19.074 8.55046ZM17.3662 4.63942L18.6896 3.43456L19.8855 4.76636L18.5614 5.95068L17.3662 4.63942ZM20.7599 12.463L22.0832 11.2786L23.2989 12.5899L21.9543 13.7735L20.7599 12.463ZM14.8045 9.52418L16.7818 7.74844L18.5746 9.71496L16.5973 11.4907L14.8045 9.52418ZM28.6061 6.56412H29.6782L31.3523 12.9803H31.4366L32.6654 6.56412H34.0744L32.1301 15.1545H30.8295L29.192 9.10226H29.107L27.5164 15.1545H26.2165L24.2575 6.55605H25.6065L26.9554 12.9722H27.0396L28.6061 6.56412ZM35.7859 11.5024H38.5431C38.4831 10.2293 37.8694 9.72083 37.2249 9.72083C36.4904 9.72083 35.9236 10.291 35.7917 11.5024H35.7859ZM39.512 13.783V14.7046C38.9701 15.0202 38.248 15.2623 37.3882 15.2623C35.3655 15.2623 34.5343 14.0002 34.5343 12.0851C34.5343 10.2411 35.4615 8.90781 37.2681 8.90781C38.7731 8.90781 39.7009 9.89107 39.7009 11.8671V12.3162H35.7756C35.7756 13.7713 36.3652 14.4148 37.6065 14.4148C38.2568 14.4148 38.8514 14.1837 39.5208 13.7838L39.512 13.783ZM42.5036 14.2974C42.8888 14.4662 43.3106 14.4926 43.6123 14.4926C44.5036 14.4926 45.1773 13.9349 45.1773 11.9699C45.1773 10.4289 44.6237 9.93216 43.8167 9.93216C43.3348 9.93216 42.9855 10.0657 42.5036 10.3321V14.2974ZM42.516 9.43466C42.8763 9.24094 43.49 8.98559 44.1418 8.98559C45.6358 8.98559 46.4428 10.0276 46.4428 11.9691C46.4428 14.2438 45.3589 15.3408 43.6131 15.3408C42.7959 15.3182 41.9937 15.1153 41.2637 14.7465V6.26694L42.5087 5.96389V9.41265L42.516 9.43466ZM52.1272 15.1581H51.3568L48.899 9.06997H48.7914V15.1581H47.7075V6.55825H49.1722L51.8694 13.3384H51.9294L54.5072 6.55825H56.0012V15.1581H54.6859V8.91734H54.5776L52.1272 15.1581ZM61.3084 12.0851C61.3084 10.4487 60.6464 9.75679 59.8277 9.75679C59.0331 9.75679 58.3461 10.448 58.3461 12.0851C58.3461 13.7471 58.973 14.4133 59.8277 14.4133C60.6823 14.4133 61.3084 13.7471 61.3084 12.0851ZM57.0814 12.0851C57.0814 9.96224 58.2385 8.90781 59.8277 8.90781C61.4168 8.90781 62.5739 9.96224 62.5739 12.0851C62.5739 14.1587 61.4783 15.2623 59.8277 15.2623C58.177 15.2623 57.0814 14.158 57.0814 12.0851ZM63.5106 9.79788C64.0525 9.46988 65.1971 8.89973 66.582 8.89973C68.0269 8.89973 68.5681 9.46988 68.5681 10.7195V15.1104H67.3231V10.9991C67.3231 10.0415 66.8544 9.87126 66.2392 9.87126C65.7581 9.87126 65.1429 10.0899 64.7702 10.3079V15.1104H63.5252L63.5106 9.79788ZM71.2191 11.4944H73.9771C73.9185 10.2213 73.3033 9.71276 72.6589 9.71276C71.9243 9.71276 71.359 10.2829 71.2257 11.4944H71.2191ZM74.9459 13.775V14.6966C74.404 15.0121 73.6819 15.2542 72.8222 15.2542C70.8009 15.2542 69.9683 13.9922 69.9683 12.077C69.9683 10.233 70.8954 8.89973 72.7021 8.89973C74.2077 8.89973 75.1356 9.883 75.1356 11.8591V12.3081H71.2088C71.2088 13.7632 71.7991 14.4067 73.0397 14.4067C73.6893 14.4067 74.2846 14.1756 74.954 13.7757L74.9459 13.775ZM80.1389 8.89973H81.4161L79.2359 14.9629C78.6332 16.636 77.8987 17.5091 76.5146 17.5091V16.5156C77.3348 16.5156 77.8328 15.8603 78.1287 14.9622L75.8159 8.899H77.1342L78.6757 13.3618H78.7489L80.1389 8.89973Z" fill="#106DB3"/>
</svg>
