<svg width="20" height="19" viewBox="0 0 20 19" fill="none" xmlns="http://www.w3.org/2000/svg">
<path fill-rule="evenodd" clip-rule="evenodd" d="M6.1001 16.6251C6.1001 15.7506 6.80898 15.0417 7.68343 15.0417C8.55788 15.0417 9.26676 15.7506 9.26676 16.6251C9.26676 17.4995 8.55788 18.2084 7.68343 18.2084C6.80898 18.2084 6.1001 17.4995 6.1001 16.6251Z" fill="#F5921C"/>
<path fill-rule="evenodd" clip-rule="evenodd" d="M14.811 16.6251C14.811 15.7506 15.5199 15.0417 16.3944 15.0417C17.2688 15.0417 17.9777 15.7506 17.9777 16.6251C17.9777 17.4995 17.2688 18.2084 16.3944 18.2084C15.5199 18.2084 14.811 17.4995 14.811 16.6251Z" fill="#F5921C"/>
<path d="M5.56006 5H18.5601L17.0601 12.5H6.56006L5.56006 5Z" fill="#F5921C"/>
<path fill-rule="evenodd" clip-rule="evenodd" d="M0.560059 0.791666C0.560059 0.354441 0.9145 0 1.35172 0H4.51839C4.89572 0 5.22061 0.266305 5.29466 0.636296L5.95956 3.95833H18.7684C19.0043 3.95833 19.228 4.06357 19.3784 4.24535C19.5288 4.42714 19.5902 4.66654 19.546 4.8983L18.2782 11.5463C18.1696 12.093 17.8722 12.5841 17.438 12.9337C17.006 13.2814 16.4659 13.467 15.9115 13.4583H8.23023C7.67585 13.467 7.1358 13.2814 6.70377 12.9337C6.26975 12.5843 5.97239 12.0934 5.86369 11.547L4.54118 4.93937C4.53582 4.91751 4.53136 4.8953 4.52785 4.87277L3.86947 1.58333H1.35172C0.9145 1.58333 0.560059 1.22889 0.560059 0.791666ZM6.27647 5.54166L7.41656 11.2378C7.45275 11.4201 7.55189 11.5838 7.69662 11.7003C7.84136 11.8168 8.02246 11.8787 8.20822 11.8751L8.22339 11.875H15.9184L15.9336 11.8751C16.1193 11.8787 16.3004 11.8168 16.4452 11.7003C16.5892 11.5843 16.6881 11.4216 16.7247 11.2404L17.8115 5.54166H6.27647Z" fill="#F5921C"/>
</svg>
