<svg width="20" height="20" viewBox="0 0 20 20" fill="none" xmlns="http://www.w3.org/2000/svg">
<path fill-rule="evenodd" clip-rule="evenodd" d="M13.5715 1.66675H16.2937C17.42 1.66675 18.3336 2.58833 18.3336 3.72523V6.47017C18.3336 7.60621 17.42 8.52865 16.2937 8.52865H13.5715C12.4444 8.52865 11.5308 7.60621 11.5308 6.47017V3.72523C11.5308 2.58833 12.4444 1.66675 13.5715 1.66675Z" stroke="#8D909B" stroke-width="1.5" stroke-linecap="round" stroke-linejoin="round"/>
<path fill-rule="evenodd" clip-rule="evenodd" d="M3.70752 1.66675H6.42882C7.55594 1.66675 8.46959 2.58833 8.46959 3.72523V6.47017C8.46959 7.60621 7.55594 8.52865 6.42882 8.52865H3.70752C2.5804 8.52865 1.66675 7.60621 1.66675 6.47017V3.72523C1.66675 2.58833 2.5804 1.66675 3.70752 1.66675Z" stroke="#8D909B" stroke-width="1.5" stroke-linecap="round" stroke-linejoin="round"/>
<path fill-rule="evenodd" clip-rule="evenodd" d="M3.70752 11.4714H6.42882C7.55594 11.4714 8.46959 12.393 8.46959 13.5308V16.2749C8.46959 17.4118 7.55594 18.3333 6.42882 18.3333H3.70752C2.5804 18.3333 1.66675 17.4118 1.66675 16.2749V13.5308C1.66675 12.393 2.5804 11.4714 3.70752 11.4714Z" stroke="#8D909B" stroke-width="1.5" stroke-linecap="round" stroke-linejoin="round"/>
<path fill-rule="evenodd" clip-rule="evenodd" d="M13.5715 11.4714H16.2937C17.42 11.4714 18.3336 12.393 18.3336 13.5308V16.2749C18.3336 17.4118 17.42 18.3333 16.2937 18.3333H13.5715C12.4444 18.3333 11.5308 17.4118 11.5308 16.2749V13.5308C11.5308 12.393 12.4444 11.4714 13.5715 11.4714Z" stroke="#8D909B" stroke-width="1.5" stroke-linecap="round" stroke-linejoin="round"/>
</svg>
