<svg width="19" height="20" viewBox="0 0 19 20" fill="none" xmlns="http://www.w3.org/2000/svg">
<path fill-rule="evenodd" clip-rule="evenodd" d="M13.2668 1.66675H15.9817C17.1049 1.66675 18.0161 2.58833 18.0161 3.72523V6.47017C18.0161 7.60621 17.1049 8.52865 15.9817 8.52865H13.2668C12.1427 8.52865 11.2314 7.60621 11.2314 6.47017V3.72523C11.2314 2.58833 12.1427 1.66675 13.2668 1.66675Z" fill="#F5921C" stroke="#F5921C" stroke-width="1.5" stroke-linecap="round" stroke-linejoin="round"/>
<path fill-rule="evenodd" clip-rule="evenodd" d="M3.42888 1.66675H6.14293C7.26705 1.66675 8.17826 2.58833 8.17826 3.72523V6.47017C8.17826 7.60621 7.26705 8.52865 6.14293 8.52865H3.42888C2.30477 8.52865 1.39355 7.60621 1.39355 6.47017V3.72523C1.39355 2.58833 2.30477 1.66675 3.42888 1.66675Z" fill="#F5921C" stroke="#F5921C" stroke-width="1.5" stroke-linecap="round" stroke-linejoin="round"/>
<path fill-rule="evenodd" clip-rule="evenodd" d="M3.42888 11.4714H6.14293C7.26705 11.4714 8.17826 12.393 8.17826 13.5308V16.2749C8.17826 17.4118 7.26705 18.3333 6.14293 18.3333H3.42888C2.30477 18.3333 1.39355 17.4118 1.39355 16.2749V13.5308C1.39355 12.393 2.30477 11.4714 3.42888 11.4714Z" fill="#F5921C" stroke="#F5921C" stroke-width="1.5" stroke-linecap="round" stroke-linejoin="round"/>
<path fill-rule="evenodd" clip-rule="evenodd" d="M13.2668 11.4714H15.9817C17.1049 11.4714 18.0161 12.393 18.0161 13.5308V16.2749C18.0161 17.4118 17.1049 18.3333 15.9817 18.3333H13.2668C12.1427 18.3333 11.2314 17.4118 11.2314 16.2749V13.5308C11.2314 12.393 12.1427 11.4714 13.2668 11.4714Z" fill="#F5921C" stroke="#F5921C" stroke-width="1.5" stroke-linecap="round" stroke-linejoin="round"/>
</svg>
