<svg width="20" height="20" viewBox="0 0 20 20" fill="none" xmlns="http://www.w3.org/2000/svg">
<path d="M7.3942 18.0404V15.2292C7.39418 14.5142 7.97711 13.9332 8.69934 13.9284H11.3449C12.0706 13.9284 12.6589 14.5108 12.6589 15.2292V15.2292V18.0491C12.6587 18.6562 13.1481 19.1524 13.7612 19.1666H15.5249C17.2831 19.1666 18.7084 17.7555 18.7084 16.0149V16.0149V8.01793C18.699 7.33318 18.3743 6.69016 17.8266 6.27187L11.7947 1.46144C10.7379 0.623854 9.23577 0.623854 8.17905 1.46144L2.1736 6.2806C1.62382 6.69719 1.29852 7.34128 1.29175 8.02666V16.0149C1.29175 17.7555 2.71705 19.1666 4.47525 19.1666H6.23896C6.86724 19.1666 7.37656 18.6624 7.37656 18.0404V18.0404" stroke="#8D909B" stroke-width="1.6" stroke-linecap="round" stroke-linejoin="round"/>
</svg>
