<svg width="21" height="21" viewBox="0 0 21 21" fill="none" xmlns="http://www.w3.org/2000/svg">
<path d="M10.3278 0L12.567 7.25532H19.813L13.9508 11.7394L16.19 18.9947L10.3278 14.5106L4.46565 18.9947L6.7048 11.7394L0.842622 7.25532H8.08867L10.3278 0Z" fill="#F5921C"/>
<path fill-rule="evenodd" clip-rule="evenodd" d="M9.37783 0.660773C9.70639 -0.220257 10.9493 -0.220258 11.2778 0.660773L13.3678 6.26514L19.3295 6.52634C20.2667 6.5674 20.6508 7.7526 19.9167 8.33817L15.2467 12.0631L16.8412 17.8288C17.0918 18.7353 16.0863 19.4677 15.3041 18.9486L10.3278 15.6464L5.35158 18.9486C4.5693 19.4677 3.56379 18.7353 3.81446 17.8288L5.40897 12.0631L0.738975 8.33817C0.00483081 7.7526 0.3889 6.5674 1.3261 6.52634L7.28781 6.26514L9.37783 0.660773ZM10.3278 2.46874L8.59525 7.11461C8.45271 7.49683 8.09612 7.7566 7.68953 7.77442L2.74743 7.99094L6.61874 11.0788C6.93723 11.3328 7.07344 11.7531 6.96469 12.1464L5.64288 16.9261L9.76806 14.1886C10.1074 13.9634 10.5482 13.9634 10.8876 14.1886L15.0128 16.9261L13.6909 12.1464C13.5822 11.7531 13.7184 11.3328 14.0369 11.0788L17.9082 7.99094L12.9661 7.77442C12.5595 7.7566 12.2029 7.49683 12.0604 7.11461L10.3278 2.46874Z" fill="#F5921C"/>
</svg>
