<svg width="56" height="56" viewBox="0 0 56 56" fill="none" xmlns="http://www.w3.org/2000/svg">
<path d="M42.8413 32.1795C43.8575 32.1795 44.6811 33.0031 44.6811 34.0193V36.227C44.6811 37.2432 43.8575 38.0668 42.8413 38.0668H38.6097C37.5935 38.0668 36.7699 37.2432 36.7699 36.227V34.0193C36.7699 33.0031 37.5935 32.1795 38.6097 32.1795H42.8413ZM48.3607 28.8678V23.3484H8.62101V38.0557C8.62101 40.0845 10.2718 41.7353 12.3006 41.7353H44.6811C46.7099 41.7353 48.3607 40.0845 48.3607 38.0557C48.3607 37.0395 49.1843 36.2159 50.2005 36.2159C51.2167 36.2159 52.0403 37.0395 52.0403 38.0557C52.0403 42.1137 48.7391 45.4149 44.6811 45.4149H12.3006C8.24263 45.4149 4.94141 42.1137 4.94141 38.0557V18.1859C4.94141 14.1279 8.24263 10.8267 12.3006 10.8267H44.6811C48.7391 10.8267 52.0403 14.1279 52.0403 18.1859V28.8678C52.0403 29.884 51.2167 30.7076 50.2005 30.7076C49.1843 30.7076 48.3607 29.884 48.3607 28.8678ZM48.3607 19.6688V18.1859C48.3607 16.157 46.7099 14.5063 44.6811 14.5063H12.3006C10.2718 14.5063 8.62101 16.157 8.62101 18.1859V19.6688H48.3607ZM14.1404 27.028C13.1242 27.028 12.3006 27.8516 12.3006 28.8678C12.3006 29.884 13.1242 30.7076 14.1404 30.7076H29.3188C30.335 30.7076 31.1586 29.884 31.1586 28.8678C31.1586 27.8516 30.335 27.028 29.3188 27.028H14.1404Z" fill="#F5921C"/>
</svg>
