<svg width="14" height="14" viewBox="0 0 14 14" fill="none" xmlns="http://www.w3.org/2000/svg">
<path d="M11.6673 8.4V4.66667C11.6673 2.08926 9.57801 0 7.00061 0C4.42321 0 2.33396 2.08926 2.33396 4.66667V8.4L0.467285 12.1333H4.71442C4.93049 13.1983 5.87176 14 7.00061 14C8.12947 14 9.07074 13.1983 9.28681 12.1333H13.5339L11.6673 8.4ZM7.00061 13.0667C6.39207 13.0667 5.87923 12.6761 5.68647 12.1333H8.3152C8.12202 12.6761 7.60915 13.0667 7.00061 13.0667ZM1.8673 11.2L3.26729 8.4V4.66667C3.26729 2.60494 4.93888 0.933348 7.00061 0.933348C9.06232 0.933348 10.7339 2.60494 10.7339 4.66667V8.4L12.1339 11.2H1.8673V11.2Z" fill="white"/>
</svg>
