<svg width="35" height="35" viewBox="0 0 35 35" fill="none" xmlns="http://www.w3.org/2000/svg">
<path d="M3.646 13.6318C3.646 11.3384 5.50519 9.47917 7.79863 9.47917V9.47917C9.28883 9.47917 10.6648 8.68068 11.4041 7.38682L11.9585 6.41667C12.2755 5.8619 12.434 5.58451 12.6324 5.36007C13.0495 4.88814 13.6082 4.56391 14.2249 4.43589C14.5182 4.375 14.8377 4.375 15.4767 4.375H19.5237C20.1626 4.375 20.4821 4.375 20.7754 4.43589C21.3921 4.56391 21.9508 4.88814 22.3679 5.36007C22.5663 5.58451 22.7248 5.8619 23.0418 6.41667L23.5962 7.38682C24.3355 8.68068 25.7115 9.47917 27.2017 9.47917V9.47917C29.4951 9.47917 31.3543 11.3384 31.3543 13.6318V22.8958C31.3543 25.3461 31.3543 26.5712 30.8775 27.507C30.458 28.3303 29.7887 28.9995 28.9655 29.419C28.0297 29.8958 26.8046 29.8958 24.3543 29.8958H10.646C8.19577 29.8958 6.97065 29.8958 6.03479 29.419C5.21158 28.9995 4.54229 28.3303 4.12284 27.507C3.646 26.5712 3.646 25.3461 3.646 22.8958V13.6318Z" stroke="white" stroke-width="2" stroke-linecap="round" stroke-linejoin="round"/>
<circle cx="17.4998" cy="19.6875" r="5.83333" stroke="white" stroke-width="2"/>
<circle cx="26.6147" cy="14.2188" r="1.09375" stroke="white" stroke-width="2.1875"/>
</svg>
