<svg width="24" height="24" viewBox="0 0 24 24" fill="none" xmlns="http://www.w3.org/2000/svg">
<path d="M9 5H21C21.2652 5 21.5196 5.10536 21.7071 5.29289C21.8946 5.48043 22 5.73478 22 6C22 6.26522 21.8946 6.51957 21.7071 6.70711C21.5196 6.89464 21.2652 7 21 7H9C8.73478 7 8.48043 6.89464 8.29289 6.70711C8.10536 6.51957 8 6.26522 8 6C8 5.73478 8.10536 5.48043 8.29289 5.29289C8.48043 5.10536 8.73478 5 9 5ZM9 11H21C21.2652 11 21.5196 11.1054 21.7071 11.2929C21.8946 11.4804 22 11.7348 22 12C22 12.2652 21.8946 12.5196 21.7071 12.7071C21.5196 12.8946 21.2652 13 21 13H9C8.73478 13 8.48043 12.8946 8.29289 12.7071C8.10536 12.5196 8 12.2652 8 12C8 11.7348 8.10536 11.4804 8.29289 11.2929C8.48043 11.1054 8.73478 11 9 11ZM9 17H15C15.2652 17 15.5196 17.1054 15.7071 17.2929C15.8946 17.4804 16 17.7348 16 18C16 18.2652 15.8946 18.5196 15.7071 18.7071C15.5196 18.8946 15.2652 19 15 19H9C8.73478 19 8.48043 18.8946 8.29289 18.7071C8.10536 18.5196 8 18.2652 8 18C8 17.7348 8.10536 17.4804 8.29289 17.2929C8.48043 17.1054 8.73478 17 9 17ZM3.5 7.5C3.10218 7.5 2.72064 7.34196 2.43934 7.06066C2.15804 6.77936 2 6.39782 2 6C2 5.60218 2.15804 5.22064 2.43934 4.93934C2.72064 4.65804 3.10218 4.5 3.5 4.5C3.89782 4.5 4.27936 4.65804 4.56066 4.93934C4.84196 5.22064 5 5.60218 5 6C5 6.39782 4.84196 6.77936 4.56066 7.06066C4.27936 7.34196 3.89782 7.5 3.5 7.5ZM3.5 13.5C3.10218 13.5 2.72064 13.342 2.43934 13.0607C2.15804 12.7794 2 12.3978 2 12C2 11.6022 2.15804 11.2206 2.43934 10.9393C2.72064 10.658 3.10218 10.5 3.5 10.5C3.89782 10.5 4.27936 10.658 4.56066 10.9393C4.84196 11.2206 5 11.6022 5 12C5 12.3978 4.84196 12.7794 4.56066 13.0607C4.27936 13.342 3.89782 13.5 3.5 13.5ZM3.5 19.5C3.10218 19.5 2.72064 19.342 2.43934 19.0607C2.15804 18.7794 2 18.3978 2 18C2 17.6022 2.15804 17.2206 2.43934 16.9393C2.72064 16.658 3.10218 16.5 3.5 16.5C3.89782 16.5 4.27936 16.658 4.56066 16.9393C4.84196 17.2206 5 17.6022 5 18C5 18.3978 4.84196 18.7794 4.56066 19.0607C4.27936 19.342 3.89782 19.5 3.5 19.5Z" fill="white"/>
</svg>
