<svg width="20" height="20" viewBox="0 0 20 20" fill="none" xmlns="http://www.w3.org/2000/svg">
<path d="M0.5 4C0.5 2.067 2.067 0.5 4 0.5H16C17.933 0.5 19.5 2.067 19.5 4V16C19.5 17.933 17.933 19.5 16 19.5H4C2.067 19.5 0.5 17.933 0.5 16V4Z" fill="#F5921C" stroke="#F5921C"/>
<path d="M3.7616 11.8001L3.93776 11.6239L3.7616 11.8001L6.97699 15.0155C7.37462 15.4131 8.01752 15.4131 8.41516 15.0155L16.5536 6.87702C16.9513 6.47939 16.9513 5.83648 16.5536 5.43885C16.156 5.04122 15.5131 5.04122 15.1154 5.43885L7.69232 12.8545L5.19977 10.3619C4.80214 9.96429 4.15923 9.96429 3.7616 10.3619C3.36397 10.7596 3.36397 11.4025 3.7616 11.8001Z" fill="white" stroke="white" stroke-width="0.5"/>
</svg>
