<svg width="20" height="20" viewBox="0 0 20 20" fill="none" xmlns="http://www.w3.org/2000/svg">
<path d="M2.5 5H4.16667H17.5" stroke="#7B8794" stroke-width="1.5" stroke-linecap="round" stroke-linejoin="round"/>
<path d="M16.75 5.33333C16.75 4.91912 16.4142 4.58333 16 4.58333C15.5858 4.58333 15.25 4.91912 15.25 5.33333H16.75ZM4.75 5.33333C4.75 4.91912 4.41421 4.58333 4 4.58333C3.58579 4.58333 3.25 4.91912 3.25 5.33333H4.75ZM5.91667 4.66667C5.91667 5.08088 6.25245 5.41667 6.66667 5.41667C7.08088 5.41667 7.41667 5.08088 7.41667 4.66667H5.91667ZM12.5833 4.66667C12.5833 5.08088 12.9191 5.41667 13.3333 5.41667C13.7475 5.41667 14.0833 5.08088 14.0833 4.66667H12.5833ZM15.25 5.33333V17H16.75V5.33333H15.25ZM15.25 17C15.25 17.4865 14.8383 17.9167 14.2857 17.9167V19.4167C15.6266 19.4167 16.75 18.3545 16.75 17H15.25ZM14.2857 17.9167H5.71429V19.4167H14.2857V17.9167ZM5.71429 17.9167C5.16167 17.9167 4.75 17.4865 4.75 17H3.25C3.25 18.3545 4.37336 19.4167 5.71429 19.4167V17.9167ZM4.75 17V5.33333H3.25V17H4.75ZM7.41667 4.66667V3.33333H5.91667V4.66667H7.41667ZM7.41667 3.33333C7.41667 3.15869 7.66225 2.75 8.33333 2.75V1.25C7.16347 1.25 5.91667 2.03522 5.91667 3.33333H7.41667ZM8.33333 2.75H11.6667V1.25H8.33333V2.75ZM11.6667 2.75C12.3378 2.75 12.5833 3.15869 12.5833 3.33333H14.0833C14.0833 2.03522 12.8365 1.25 11.6667 1.25V2.75ZM12.5833 3.33333V4.66667H14.0833V3.33333H12.5833Z" fill="#7B8794"/>
<path d="M8.33337 9.16602V14.166" stroke="#7B8794" stroke-width="1.5" stroke-linecap="round" stroke-linejoin="round"/>
<path d="M11.6666 9.16602V14.166" stroke="#7B8794" stroke-width="1.5" stroke-linecap="round" stroke-linejoin="round"/>
</svg>
