<svg width="16" height="11" viewBox="0 0 16 11" fill="none" xmlns="http://www.w3.org/2000/svg">
<path d="M8.10382 3.59082C7.01432 3.59082 6.12891 4.44672 6.12891 5.4999C6.12891 6.55309 7.01432 7.40899 8.10382 7.40899C9.19333 7.40899 10.0787 6.55309 10.0787 5.4999C10.0787 4.44672 9.1933 3.59082 8.10382 3.59082Z" fill="white"/>
<path d="M8.1037 0.727051C4.81215 0.727051 2.00119 2.70612 0.862305 5.49978C2.00119 8.29341 4.81215 10.2725 8.1037 10.2725C11.3985 10.2725 14.2062 8.29341 15.3451 5.49978C14.2062 2.70612 11.3985 0.727051 8.1037 0.727051ZM8.1037 8.68158C6.28677 8.68158 4.81215 7.25612 4.81215 5.49975C4.81215 3.74339 6.28677 2.31795 8.1037 2.31795C9.92063 2.31795 11.3952 3.74342 11.3952 5.49978C11.3952 7.25615 9.92063 8.68158 8.1037 8.68158Z" fill="white"/>
</svg>
