<svg width="20" height="19" viewBox="0 0 20 19" fill="none" xmlns="http://www.w3.org/2000/svg">
<path fill-rule="evenodd" clip-rule="evenodd" d="M9.04746 0.656581C9.3769 -0.21886 10.6231 -0.218861 10.9525 0.656581L13.0481 6.22539L19.0258 6.48493C19.9655 6.52574 20.3506 7.70342 19.6145 8.28527L14.932 11.9865L16.5308 17.7157C16.7821 18.6164 15.7739 19.3443 14.9895 18.8284L10 15.5471L5.01046 18.8284C4.22608 19.3443 3.21788 18.6164 3.46922 17.7157L5.068 11.9865L0.385511 8.28527C-0.350596 7.70342 0.0344995 6.52574 0.974211 6.48493L6.95186 6.22539L9.04746 0.656581ZM10 2.45308L8.26279 7.06948C8.11987 7.44927 7.76233 7.7074 7.35465 7.7251L2.39934 7.94025L6.281 11.0085C6.60034 11.2609 6.73692 11.6786 6.62788 12.0693L5.30253 16.8187L9.43874 14.0986C9.77902 13.8748 10.221 13.8748 10.5613 14.0986L14.6975 16.8187L13.3721 12.0693C13.2631 11.6786 13.3997 11.2609 13.719 11.0085L17.6007 7.94025L12.6453 7.7251C12.2377 7.7074 11.8801 7.44927 11.7372 7.06948L10 2.45308Z" fill="#273142"/>
</svg>
