<svg width="24" height="24" viewBox="0 0 24 24" fill="none" xmlns="http://www.w3.org/2000/svg">
<path d="M12 2L14.2451 9.25532H21.5106L15.6327 13.7394L17.8779 20.9947L12 16.5106L6.12215 20.9947L8.36729 13.7394L2.48944 9.25532H9.75486L12 2Z" fill="#F5921C"/>
<path fill-rule="evenodd" clip-rule="evenodd" d="M11.0475 2.66077C11.3769 1.77974 12.6231 1.77974 12.9525 2.66077L15.0481 8.26514L21.0258 8.52634C21.9655 8.5674 22.3506 9.7526 21.6145 10.3382L16.932 14.0631L18.5308 19.8288C18.7821 20.7353 17.7739 21.4677 16.9895 20.9486L12 17.6464L7.01046 20.9486C6.22608 21.4677 5.21788 20.7353 5.46922 19.8288L7.068 14.0631L2.38551 10.3382C1.6494 9.7526 2.0345 8.5674 2.97421 8.52634L8.95186 8.26514L11.0475 2.66077ZM12 4.46874L10.2628 9.11461C10.1199 9.49683 9.76233 9.7566 9.35465 9.77442L4.39934 9.99094L8.281 13.0788C8.60034 13.3328 8.73692 13.7531 8.62788 14.1464L7.30253 18.9261L11.4387 16.1886C11.779 15.9634 12.221 15.9634 12.5613 16.1886L16.6975 18.9261L15.3721 14.1464C15.2631 13.7531 15.3997 13.3328 15.719 13.0788L19.6007 9.99094L14.6453 9.77442C14.2377 9.7566 13.8801 9.49683 13.7372 9.11461L12 4.46874Z" fill="#F5921C"/>
</svg>
