<svg width="21" height="21" viewBox="0 0 21 21" fill="none" xmlns="http://www.w3.org/2000/svg">
<g clip-path="url(#clip0)">
<path d="M11.7864 16.1121H0V17.3426H11.7864C12.0668 18.5665 13.1638 19.4824 14.4715 19.4824C15.7792 19.4824 16.876 18.5665 17.1564 17.3426H21V16.1121H17.1564C16.8762 14.8882 15.7792 13.9722 14.4715 13.9722C13.1638 13.9722 12.0668 14.8882 11.7864 16.1121ZM15.9961 16.7273C15.9961 17.568 15.3121 18.252 14.4715 18.252C13.6306 18.252 12.9468 17.568 12.9468 16.7273C12.9468 15.8867 13.6306 15.2027 14.4715 15.2027C15.3121 15.2027 15.9961 15.8867 15.9961 16.7273Z" fill="#32386B"/>
<path d="M3.36617 9.87365H0V11.1041H3.36617C3.64655 12.328 4.74355 13.2441 6.05125 13.2441C7.35878 13.2441 8.45595 12.328 8.73617 11.1041H21V9.87365H8.73633C8.45595 8.64991 7.35894 7.73379 6.05125 7.73379C4.74355 7.73379 3.64655 8.64991 3.36617 9.87365ZM7.57587 10.4889C7.57587 11.3297 6.89191 12.0137 6.05125 12.0137C5.21059 12.0137 4.52662 11.3297 4.52662 10.4889C4.52662 9.64822 5.21059 8.96426 6.05125 8.96426C6.89191 8.96426 7.57587 9.64822 7.57587 10.4889Z" fill="#32386B"/>
<path d="M12.0107 1.49567C10.703 1.49567 9.60599 2.41163 9.32561 3.63553H0V4.866H9.32561C9.60599 6.08974 10.703 7.00586 12.0105 7.00586C13.3182 7.00586 14.4152 6.08974 14.6956 4.866H21V3.63553H14.6956C14.4152 2.41163 13.3182 1.49567 12.0107 1.49567ZM13.5353 4.25076C13.5353 5.09142 12.8513 5.77539 12.0107 5.77539C11.17 5.77539 10.4859 5.09142 10.4859 4.25076C10.4859 3.4101 11.17 2.72614 12.0107 2.72614C12.8513 2.72614 13.5353 3.40994 13.5353 4.25076Z" fill="#32386B"/>
</g>
<defs>
<clipPath id="clip0">
<rect width="21" height="21" fill="white" transform="translate(0 21) rotate(-90)"/>
</clipPath>
</defs>
</svg>
