<svg width="24" height="23" viewBox="0 0 24 23" fill="none" xmlns="http://www.w3.org/2000/svg">
<path d="M22.103 15.8125C22.5992 15.8125 23.0015 15.4103 23.0015 14.914V9.7926C23.0015 7.81088 21.3892 6.19862 19.4075 6.19862H15.7073C16.5515 5.83931 16.9026 5.56504 17.1003 5.36742C17.1003 5.36742 17.1003 5.36742 17.1003 5.36742C18.3264 4.14128 18.3264 2.14622 17.1003 0.920088C15.8741 -0.306045 13.8792 -0.306045 12.6529 0.920088C12.3935 1.17957 12.0018 1.70403 11.4591 3.26161C10.9164 1.70403 10.5247 1.17953 10.2652 0.920088C9.03909 -0.306045 7.04412 -0.306045 5.8179 0.920088C4.59176 2.14622 4.59176 4.14128 5.8179 5.36742C5.81794 5.36742 5.81794 5.36742 5.81794 5.36742C6.01556 5.56504 6.3667 5.83935 7.21092 6.19862H3.59398C1.61226 6.19862 0 7.81088 0 9.7926V19.4065C0 21.3882 1.61226 23.0005 3.59398 23.0005H19.4075C21.3892 23.0005 23.0015 21.3882 23.0015 19.4065C23.0015 18.9103 22.5992 18.508 22.103 18.508C21.6068 18.508 21.2045 18.9103 21.2045 19.4065C21.2045 20.3974 20.3984 21.2035 19.4075 21.2035H12.3992V8.03847C13.368 8.23676 14.1629 8.77114 14.7693 9.63496C15.4318 10.5787 15.6788 11.6654 15.6788 12.1287C15.6788 12.6249 16.081 13.0272 16.5772 13.0272C17.0735 13.0272 17.4757 12.6249 17.4757 12.1287C17.4757 11.2496 17.0937 9.81843 16.24 8.6025C16.1007 8.40406 15.9397 8.19889 15.7558 7.99561H19.4075C20.3984 7.99561 21.2045 8.80174 21.2045 9.7926V14.914C21.2045 15.4103 21.6068 15.8125 22.103 15.8125ZM7.08859 4.09681C6.83396 3.84218 6.69379 3.50371 6.69379 3.14373C6.69379 2.78375 6.83396 2.44528 7.0885 2.19074C7.61403 1.6653 8.46904 1.6653 8.99453 2.19074C9.03442 2.23063 9.40209 2.63855 10.0249 4.6559C10.0959 4.88564 10.1625 5.11171 10.2235 5.32573C10.0124 5.26553 9.78961 5.19989 9.56274 5.12994C7.53784 4.50554 7.12858 4.13684 7.08859 4.09681ZM10.6023 21.2035H3.59398C2.60312 21.2035 1.79699 20.3974 1.79699 19.4065V9.7926C1.79699 8.80174 2.60312 7.99561 3.59398 7.99561H7.06739C6.57771 8.52671 6.16144 9.169 5.82544 9.91978C4.96374 11.8455 4.8968 13.8854 4.8968 14.4648C4.8968 14.961 5.29906 15.3633 5.7953 15.3633C6.29154 15.3633 6.69379 14.961 6.69379 14.4648C6.69379 14.1164 6.73099 12.2957 7.46578 10.6538C8.1446 9.13674 9.17575 8.27046 10.6023 8.02454V21.2035ZM13.3645 5.12702C13.1348 5.19796 12.9087 5.26458 12.6947 5.32559C12.7557 5.11162 12.8223 4.8856 12.8932 4.65585C13.516 2.63855 13.8837 2.23059 13.9236 2.1907C14.1864 1.92793 14.5314 1.79662 14.8766 1.79662C15.2217 1.79662 15.5669 1.92802 15.8296 2.1907C16.0842 2.44528 16.2244 2.7837 16.2244 3.14369C16.2244 3.50367 16.0842 3.84213 15.8296 4.09667C15.7897 4.13657 15.3817 4.50428 13.3645 5.12702Z" fill="#F5921C"/>
</svg>
