<svg width="19" height="19" viewBox="0 0 19 19" fill="none" xmlns="http://www.w3.org/2000/svg">
<path d="M9.50002 2.32657C11.8363 2.32657 12.1131 2.33549 13.0358 2.37759C13.8889 2.41649 14.3522 2.55904 14.6605 2.67887C15.0689 2.8376 15.3604 3.0272 15.6666 3.33338C15.9728 3.63958 16.1624 3.93106 16.3211 4.33949C16.441 4.64781 16.5835 5.11112 16.6224 5.96423C16.6645 6.88688 16.6734 7.16363 16.6734 9.49995C16.6734 11.8363 16.6645 12.1131 16.6224 13.0357C16.5835 13.8888 16.441 14.3521 16.3211 14.6605C16.1624 15.0689 15.9728 15.3604 15.6666 15.6665C15.3604 15.9727 15.0689 16.1623 14.6605 16.3211C14.3522 16.4409 13.8889 16.5834 13.0358 16.6223C12.1132 16.6644 11.8365 16.6734 9.50002 16.6734C7.16348 16.6734 6.8868 16.6644 5.96425 16.6223C5.11113 16.5834 4.64783 16.4409 4.3395 16.3211C3.93107 16.1623 3.63959 15.9727 3.33342 15.6665C3.02725 15.3604 2.8376 15.0689 2.67887 14.6605C2.55904 14.3521 2.4165 13.8888 2.3776 13.0357C2.3355 12.1131 2.32657 11.8363 2.32657 9.49995C2.32657 7.16363 2.3355 6.88688 2.3776 5.96423C2.4165 5.11112 2.55904 4.64781 2.67887 4.33949C2.8376 3.93106 3.02721 3.63958 3.33342 3.33341C3.63959 3.0272 3.93107 2.8376 4.3395 2.67887C4.64783 2.55904 5.11113 2.41649 5.96425 2.37759C6.8869 2.33549 7.16366 2.32657 9.50002 2.32657ZM9.50002 0.75C7.12364 0.75 6.82567 0.760073 5.89239 0.802655C4.96105 0.845134 4.32498 0.993062 3.76842 1.20934C3.19303 1.43296 2.70506 1.73215 2.21859 2.21858C1.73215 2.70505 1.43296 3.19302 1.20938 3.76841C0.993063 4.32497 0.845134 4.96104 0.802656 5.89237C0.760073 6.82565 0.75 7.12362 0.75 9.49995C0.75 11.8763 0.760073 12.1743 0.802656 13.1076C0.845134 14.0389 0.993063 14.675 1.20938 15.2315C1.43296 15.8069 1.73215 16.2949 2.21859 16.7814C2.70506 17.2678 3.19303 17.567 3.76842 17.7906C4.32498 18.0069 4.96105 18.1548 5.89239 18.1973C6.82567 18.2399 7.12364 18.2499 9.50002 18.2499C11.8764 18.2499 12.1743 18.2399 13.1076 18.1973C14.039 18.1548 14.675 18.0069 15.2316 17.7906C15.807 17.567 16.2949 17.2678 16.7814 16.7814C17.2679 16.2949 17.567 15.8069 17.7907 15.2315C18.0069 14.675 18.1549 14.0389 18.1973 13.1076C18.2399 12.1743 18.25 11.8763 18.25 9.49995C18.25 7.12362 18.2399 6.82565 18.1973 5.89237C18.1549 4.96104 18.0069 4.32497 17.7907 3.76841C17.567 3.19302 17.2679 2.70505 16.7814 2.21858C16.2949 1.73215 15.807 1.43296 15.2316 1.20934C14.675 0.993062 14.039 0.845134 13.1076 0.802655C12.1743 0.760073 11.8764 0.75 9.50002 0.75Z" fill="white"/>
<path d="M9.50425 5.01025C7.02266 5.01025 5.01099 7.02192 5.01099 9.50346C5.01099 11.985 7.02266 13.9967 9.50425 13.9967C11.9858 13.9967 13.9975 11.985 13.9975 9.50346C13.9975 7.02192 11.9858 5.01025 9.50425 5.01025ZM9.50425 12.4201C7.89339 12.4201 6.58756 11.1143 6.58756 9.50346C6.58756 7.89265 7.89339 6.58682 9.50425 6.58682C11.1151 6.58682 12.4209 7.89265 12.4209 9.50346C12.4209 11.1143 11.1151 12.4201 9.50425 12.4201Z" fill="white"/>
<path d="M15.2245 4.83029C15.2245 5.41016 14.7544 5.88028 14.1745 5.88028C13.5946 5.88028 13.1245 5.41016 13.1245 4.83029C13.1245 4.25039 13.5946 3.78027 14.1745 3.78027C14.7544 3.78027 15.2245 4.25039 15.2245 4.83029Z" fill="white"/>
</svg>
