<svg width="25" height="24" viewBox="0 0 25 24" fill="none" xmlns="http://www.w3.org/2000/svg">
<path d="M9.93348 5H21.9015C22.166 5 22.4197 5.10536 22.6067 5.29289C22.7937 5.48043 22.8988 5.73478 22.8988 6C22.8988 6.26522 22.7937 6.51957 22.6067 6.70711C22.4197 6.89464 22.166 7 21.9015 7H9.93348C9.66897 7 9.4153 6.89464 9.22826 6.70711C9.04122 6.51957 8.93615 6.26522 8.93615 6C8.93615 5.73478 9.04122 5.48043 9.22826 5.29289C9.4153 5.10536 9.66897 5 9.93348 5ZM9.93348 11H21.9015C22.166 11 22.4197 11.1054 22.6067 11.2929C22.7937 11.4804 22.8988 11.7348 22.8988 12C22.8988 12.2652 22.7937 12.5196 22.6067 12.7071C22.4197 12.8946 22.166 13 21.9015 13H9.93348C9.66897 13 9.4153 12.8946 9.22826 12.7071C9.04122 12.5196 8.93615 12.2652 8.93615 12C8.93615 11.7348 9.04122 11.4804 9.22826 11.2929C9.4153 11.1054 9.66897 11 9.93348 11ZM9.93348 17H15.9175C16.182 17 16.4357 17.1054 16.6227 17.2929C16.8097 17.4804 16.9148 17.7348 16.9148 18C16.9148 18.2652 16.8097 18.5196 16.6227 18.7071C16.4357 18.8946 16.182 19 15.9175 19H9.93348C9.66897 19 9.4153 18.8946 9.22826 18.7071C9.04122 18.5196 8.93615 18.2652 8.93615 18C8.93615 17.7348 9.04122 17.4804 9.22826 17.2929C9.4153 17.1054 9.66897 17 9.93348 17ZM4.44815 7.5C4.05138 7.5 3.67087 7.34196 3.39032 7.06066C3.10976 6.77936 2.95215 6.39782 2.95215 6C2.95215 5.60218 3.10976 5.22064 3.39032 4.93934C3.67087 4.65804 4.05138 4.5 4.44815 4.5C4.84491 4.5 5.22543 4.65804 5.50598 4.93934C5.78653 5.22064 5.94415 5.60218 5.94415 6C5.94415 6.39782 5.78653 6.77936 5.50598 7.06066C5.22543 7.34196 4.84491 7.5 4.44815 7.5ZM4.44815 13.5C4.05138 13.5 3.67087 13.342 3.39032 13.0607C3.10976 12.7794 2.95215 12.3978 2.95215 12C2.95215 11.6022 3.10976 11.2206 3.39032 10.9393C3.67087 10.658 4.05138 10.5 4.44815 10.5C4.84491 10.5 5.22543 10.658 5.50598 10.9393C5.78653 11.2206 5.94415 11.6022 5.94415 12C5.94415 12.3978 5.78653 12.7794 5.50598 13.0607C5.22543 13.342 4.84491 13.5 4.44815 13.5ZM4.44815 19.5C4.05138 19.5 3.67087 19.342 3.39032 19.0607C3.10976 18.7794 2.95215 18.3978 2.95215 18C2.95215 17.6022 3.10976 17.2206 3.39032 16.9393C3.67087 16.658 4.05138 16.5 4.44815 16.5C4.84491 16.5 5.22543 16.658 5.50598 16.9393C5.78653 17.2206 5.94415 17.6022 5.94415 18C5.94415 18.3978 5.78653 18.7794 5.50598 19.0607C5.22543 19.342 4.84491 19.5 4.44815 19.5Z" fill="#273142"/>
</svg>
