<svg width="29" height="21" viewBox="0 0 29 21" fill="none" xmlns="http://www.w3.org/2000/svg">
<path d="M23.0106 12.9642C23.6276 12.9642 24.1277 13.4643 24.1277 14.0812V15.4217C24.1277 16.0386 23.6276 16.5387 23.0106 16.5387H20.4415C19.8245 16.5387 19.3245 16.0386 19.3245 15.4217V14.0812C19.3245 13.4643 19.8245 12.9642 20.4415 12.9642H23.0106ZM26.3617 10.9536V7.60251H2.23404V16.5319C2.23404 17.7637 3.23631 18.766 4.46809 18.766H24.1277C25.3594 18.766 26.3617 17.7637 26.3617 16.5319C26.3617 15.9149 26.8617 15.4149 27.4787 15.4149C28.0957 15.4149 28.5957 15.9149 28.5957 16.5319C28.5957 18.9957 26.5914 21 24.1277 21H4.46809C2.00431 21 0 18.9957 0 16.5319V4.46809C0 2.00431 2.00431 0 4.46809 0H24.1277C26.5914 0 28.5957 2.00431 28.5957 4.46809V10.9536C28.5957 11.5706 28.0957 12.0706 27.4787 12.0706C26.8617 12.0706 26.3617 11.5706 26.3617 10.9536ZM26.3617 5.36847V4.46809C26.3617 3.23631 25.3594 2.23404 24.1277 2.23404H4.46809C3.23631 2.23404 2.23404 3.23631 2.23404 4.46809V5.36847H26.3617ZM5.58511 9.83655C4.96813 9.83655 4.46809 10.3366 4.46809 10.9536C4.46809 11.5706 4.96813 12.0706 5.58511 12.0706H14.8005C15.4175 12.0706 15.9176 11.5706 15.9176 10.9536C15.9176 10.3366 15.4175 9.83655 14.8005 9.83655H5.58511Z" fill="#F5921C"/>
</svg>
