<svg width="30" height="28" viewBox="0 0 30 28" fill="none" xmlns="http://www.w3.org/2000/svg">
<path d="M28.6423 12.0771L27.3617 10.4109C27.3394 10.2642 27.343 9.97424 27.3453 9.7919C27.3463 9.71218 27.3472 9.6343 27.3472 9.55971V7.45182C27.3472 6.0746 26.4109 4.94933 24.9037 4.51532L22.7972 3.90858C22.5924 3.84963 22.4137 3.72139 22.2942 3.54748L21.0593 1.75217C20.2509 0.577043 18.7451 0.090948 17.3975 0.570008L15.3262 1.30644C15.1245 1.37806 14.9026 1.37806 14.701 1.30644L12.6298 0.57012C11.2822 0.0910597 9.77631 0.577098 8.96798 1.75228L7.73306 3.5476C7.61968 3.71246 7.45314 3.83628 7.26154 3.89898L5.06716 4.36001C5.04042 4.36564 5.01396 4.37223 4.98772 4.37977C3.59113 4.78201 2.64456 6.05137 2.67996 7.47085V9.63497C2.67996 9.71023 2.68152 9.78906 2.6832 9.87012C2.68655 10.0306 2.69191 10.2928 2.66444 10.4001L1.38358 12.0787C0.500657 13.2119 0.501048 14.7909 1.38475 15.9237L2.66768 17.5947C2.69118 17.6962 2.68671 17.953 2.68336 18.1436C2.68163 18.2413 2.67996 18.3412 2.67996 18.4431V20.611C2.64786 21.9415 3.58242 23.042 5.12344 23.4858L7.22994 24.0925C7.43483 24.1515 7.61348 24.2797 7.73306 24.4536L8.96787 26.2488C9.56791 27.1213 10.5522 27.6139 11.571 27.6138C11.9246 27.6138 12.2825 27.5544 12.6297 27.431L14.7009 26.6947C14.9026 26.623 15.1246 26.623 15.3261 26.6947L17.3973 27.431C17.7446 27.5545 18.1024 27.6138 18.4561 27.6138C19.4748 27.6138 20.4592 27.1211 21.0592 26.2488L22.2941 24.4535C22.4137 24.2797 22.5923 24.1515 22.7971 24.0925L24.9036 23.4858C26.2733 23.0914 27.3921 21.5246 27.3466 20.0645C27.3274 19.4482 26.8101 18.9625 26.1959 18.9833C25.5796 19.0025 25.0955 19.5176 25.1147 20.134C25.1281 20.5641 24.6709 21.2291 24.2856 21.34L22.1791 21.9467C21.4787 22.1485 20.8661 22.5893 20.4543 23.1881L19.2194 24.9834C18.9834 25.3266 18.5417 25.4679 18.1453 25.3271L16.074 24.5907C15.3903 24.3477 14.637 24.3476 13.953 24.5907L11.8818 25.3271C11.4854 25.468 11.0438 25.3267 10.8077 24.9834L9.57288 23.1881C9.16109 22.5894 8.54849 22.1485 7.84801 21.9468L5.74151 21.3401C5.65526 21.3152 4.89923 21.0851 4.91241 20.6611C4.9128 20.6495 4.91297 20.6379 4.91297 20.6263V18.4431C4.91297 18.3546 4.91459 18.2675 4.91604 18.1826C4.9262 17.601 4.93876 16.8776 4.45373 16.2541L3.15321 14.5604C3.15104 14.5576 3.1488 14.5547 3.14663 14.5519C2.89233 14.2273 2.89233 13.7738 3.14663 13.4493C3.14947 13.4456 3.15238 13.4418 3.15522 13.4381L4.4549 11.7348C4.94222 11.107 4.92625 10.3353 4.9157 9.82401C4.91436 9.75885 4.91297 9.69543 4.91297 9.63497V7.45533C4.91297 7.44378 4.9128 7.43216 4.91241 7.42055C4.90035 7.0316 5.17675 6.66431 5.57392 6.53529L7.76857 6.0742C7.79531 6.06857 7.82177 6.06198 7.84801 6.05444C8.54843 5.85268 9.16103 5.41186 9.57288 4.81311L10.8077 3.01779C11.0438 2.6745 11.4853 2.53314 11.8818 2.67411L13.9531 3.41043C14.6369 3.6535 15.3901 3.6535 16.0741 3.41043L18.1453 2.67411C18.5418 2.5332 18.9833 2.67456 19.2194 3.01779L20.4543 4.81305C20.866 5.41186 21.4786 5.85273 22.1791 6.05444L24.2856 6.66112C24.5951 6.75023 25.1142 6.97147 25.1142 7.45187V9.55977C25.1142 9.62537 25.1133 9.69381 25.1124 9.76388C25.1042 10.4138 25.0941 11.2165 25.6031 11.7873L26.8743 13.4412C26.8763 13.4439 26.8784 13.4466 26.8805 13.4493C27.1348 13.7739 27.1348 14.2273 26.8805 14.552C26.5002 15.0374 26.5856 15.7392 27.071 16.1194C27.5565 16.4996 28.2581 16.4144 28.6384 15.9289C29.5265 14.7953 29.5278 13.2123 28.6423 12.0771Z" fill="#F5921C"/>
<path d="M11.5699 20.5737C11.7387 20.665 11.9205 20.7083 12.0998 20.7083C12.4967 20.7083 12.881 20.4961 13.0829 20.1225L19.118 8.95768C19.4112 8.41531 19.2092 7.73783 18.6668 7.44463C18.1243 7.15131 17.4468 7.35346 17.1537 7.89588L11.1187 19.0607C10.8254 19.6031 11.0275 20.2805 11.5699 20.5737Z" fill="#F5921C"/>
<path d="M13.1708 10.1013C13.1708 8.56223 11.9187 7.31006 10.3796 7.31006C8.84054 7.31006 7.58838 8.56217 7.58838 10.1013C7.58838 11.6404 8.84049 12.8925 10.3796 12.8925C11.9187 12.8925 13.1708 11.6404 13.1708 10.1013ZM10.3796 10.6595C10.0718 10.6595 9.82138 10.4091 9.82138 10.1013C9.82138 9.79351 10.0718 9.54307 10.3796 9.54307C10.6874 9.54307 10.9378 9.79351 10.9378 10.1013C10.9378 10.4091 10.6874 10.6595 10.3796 10.6595Z" fill="#F5921C"/>
<path d="M19.592 20.7059C21.131 20.7059 22.3832 19.4538 22.3832 17.9147C22.3832 16.3756 21.1311 15.1235 19.592 15.1235C18.0529 15.1235 16.8008 16.3756 16.8008 17.9147C16.8008 19.4538 18.0529 20.7059 19.592 20.7059ZM19.592 17.3565C19.8998 17.3565 20.1502 17.607 20.1502 17.9148C20.1502 18.2225 19.8998 18.473 19.592 18.473C19.2841 18.473 19.0337 18.2225 19.0337 17.9148C19.0337 17.607 19.2842 17.3565 19.592 17.3565Z" fill="#F5921C"/>
</svg>
