<svg width="30" height="22" viewBox="0 0 30 22" fill="none" xmlns="http://www.w3.org/2000/svg">
<g opacity="0.5">
<g opacity="0.5">
<path opacity="0.5" d="M23.8318 2.72314C23.7941 2.72314 23.7575 2.72418 23.7209 2.72521C24.1663 2.74072 24.5876 2.8286 24.9661 2.98059C24.6232 2.8162 24.2385 2.72314 23.8318 2.72314Z" fill="#F5921C"/>
</g>
</g>
<g opacity="0.5">
<g opacity="0.5">
<path opacity="0.5" d="M25.8075 6.94141C25.7102 7.0479 25.6066 7.15025 25.4978 7.2464C25.6098 7.15439 25.7133 7.05203 25.8075 6.94141Z" fill="#F5921C"/>
</g>
</g>
<path d="M19.3281 8.67306C19.4181 8.39494 19.5196 8.12302 19.6337 7.85938C19.5091 8.13233 19.4024 8.40941 19.3281 8.67306Z" fill="#F5921C"/>
<path d="M20.7475 5.92529C20.7475 5.92529 20.7464 5.92746 20.7432 5.93179C20.7442 5.92963 20.7464 5.92746 20.7475 5.92529Z" fill="#F5921C"/>
<path d="M17.5876 0.373844C16.2724 1.32813 17.0492 3.14262 17.0492 3.14262C7.93473 -4.20942 1.63784 3.21913 3.35973 8.85903C3.4026 9.00171 3.43919 9.13508 3.46428 9.26019C3.5061 9.4101 3.5291 9.56829 3.5291 9.73164C3.5291 10.7014 2.73349 11.4882 1.75284 11.4882C1.35347 11.4882 0.984415 11.358 0.6875 11.1377C1.03669 12.9832 3.6901 13.3668 4.54739 11.8532C5.23322 13.1104 6.32052 13.3668 6.32052 13.3668C7.02726 12.5025 6.59652 10.9103 6.59652 10.9103C8.47315 11.3869 10.3623 9.70786 9.05025 6.98975C9.05025 6.98975 9.03457 9.21883 6.6258 8.95312C2.86209 8.53956 4.04243 1.6445 9.73399 1.6445C13.758 1.6445 16.1041 4.37399 17.6691 5.92277C17.6691 5.92277 18.1229 5.2404 18.7512 4.7038C18.7167 4.64487 18.6843 4.58697 18.655 4.52907C18.6529 4.5239 18.6498 4.51977 18.6477 4.51563C17.5751 2.4344 18.9938 0.845301 20.9551 1.73755C20.1145 0.112268 18.5202 -0.303358 17.5876 0.373844Z" fill="#F5921C"/>
<path d="M4.60376 18.3086C4.83481 18.6053 5.138 18.8276 5.49033 18.9734C5.14741 18.8193 4.84422 18.5908 4.60376 18.3086Z" fill="#F5921C"/>
<g opacity="0.5">
<g opacity="0.5">
<path opacity="0.5" d="M5.49048 18.9736C5.80935 19.1163 6.16272 19.197 6.53491 19.197C6.65409 19.197 6.77118 19.1887 6.88618 19.1732C6.37599 19.2104 5.89926 19.1432 5.49048 18.9736Z" fill="#F5921C"/>
</g>
</g>
<path d="M8.40161 16.9745C8.40352 16.9726 8.40639 16.9706 8.40926 16.9678C8.40639 16.9706 8.40448 16.9726 8.40161 16.9745Z" fill="#F5921C"/>
<path d="M8.25049 17.1016C8.2527 17.1005 8.2549 17.0983 8.25601 17.0972C8.2549 17.0983 8.2527 17.0994 8.25049 17.1016Z" fill="#F5921C"/>
<path d="M8.19775 17.1445C8.20189 17.1414 8.20499 17.1384 8.20913 17.1353C8.20499 17.1384 8.20086 17.1414 8.19775 17.1445Z" fill="#F5921C"/>
<path d="M8.65625 16.7357C8.66549 16.7265 8.67473 16.7173 8.68295 16.708C8.67371 16.7173 8.66549 16.7265 8.65625 16.7357Z" fill="#F5921C"/>
<path d="M8.49536 16.8909C8.5028 16.8835 8.51129 16.8761 8.51873 16.8687C8.51129 16.8761 8.50386 16.8835 8.49536 16.8909Z" fill="#F5921C"/>
<path d="M8.71069 16.6807C8.71997 16.6714 8.72925 16.6611 8.73853 16.6519C8.72925 16.6622 8.71997 16.6714 8.71069 16.6807Z" fill="#F5921C"/>
<path d="M8.54956 16.8413C8.55784 16.833 8.56613 16.8247 8.57441 16.8164C8.56613 16.8257 8.55784 16.834 8.54956 16.8413Z" fill="#F5921C"/>
<path d="M7.88403 17.3602C7.8862 17.3591 7.88837 17.358 7.89053 17.3569C7.88837 17.358 7.8862 17.3591 7.88403 17.3602Z" fill="#F5921C"/>
<path d="M7.93335 17.33C7.93623 17.3281 7.9391 17.3261 7.94198 17.3242C7.9391 17.3261 7.93623 17.3281 7.93335 17.33Z" fill="#F5921C"/>
<path d="M8.03687 17.26C8.04091 17.257 8.04496 17.254 8.049 17.252C8.04496 17.254 8.04091 17.257 8.03687 17.26Z" fill="#F5921C"/>
<path d="M7.98584 17.2953C7.98894 17.2933 7.99308 17.2902 7.99722 17.2881C7.99308 17.2902 7.98894 17.2922 7.98584 17.2953Z" fill="#F5921C"/>
<path d="M8.08936 17.2215C8.0934 17.2185 8.09745 17.2154 8.1015 17.2124C8.09846 17.2154 8.09441 17.2185 8.08936 17.2215Z" fill="#F5921C"/>
<path d="M8.14355 17.1834C8.1476 17.1804 8.15165 17.1774 8.1557 17.1743C8.15266 17.1774 8.14861 17.1804 8.14355 17.1834Z" fill="#F5921C"/>
<path d="M8.44434 16.9371C8.4514 16.931 8.45746 16.926 8.46351 16.9199C8.45746 16.926 8.4514 16.931 8.44434 16.9371Z" fill="#F5921C"/>
<path d="M8.62875 16.7622C8.62053 16.7704 8.61129 16.7797 8.60205 16.7879C8.61129 16.7797 8.61951 16.7714 8.62875 16.7622Z" fill="#F5921C"/>
<path d="M8.87158 16.5064C8.88205 16.4949 8.89252 16.4823 8.90299 16.4697C8.89252 16.4812 8.88205 16.4938 8.87158 16.5064Z" fill="#F5921C"/>
<path d="M8.81909 16.565C8.82934 16.5537 8.83856 16.5435 8.84881 16.5322C8.83856 16.5435 8.82934 16.5548 8.81909 16.565Z" fill="#F5921C"/>
<path d="M8.92578 16.4436C8.93739 16.43 8.95006 16.4165 8.96167 16.4019C8.949 16.4165 8.93739 16.43 8.92578 16.4436Z" fill="#F5921C"/>
<path d="M8.76489 16.6221C8.77411 16.6118 8.78334 16.6016 8.79358 16.5913C8.78436 16.6026 8.77514 16.6128 8.76489 16.6221Z" fill="#F5921C"/>
<path d="M8.98022 16.383C8.99817 16.3611 9.01612 16.3403 9.03407 16.3184C9.01612 16.3403 8.99817 16.3611 8.98022 16.383Z" fill="#F5921C"/>
<path d="M7.99585 17.2883C8.00958 17.2788 8.0233 17.2693 8.03703 17.2598C8.02436 17.2693 8.01063 17.2788 7.99585 17.2883Z" fill="#F5921C"/>
<path d="M8.10254 17.2132C8.11626 17.2037 8.12999 17.1932 8.14372 17.1826C8.12999 17.1932 8.11626 17.2037 8.10254 17.2132Z" fill="#F5921C"/>
<path d="M8.65682 16.7358C8.64758 16.7451 8.63937 16.7543 8.63013 16.7625C8.63834 16.7533 8.64758 16.7441 8.65682 16.7358Z" fill="#F5921C"/>
<path d="M8.05005 17.2517C8.06377 17.2422 8.07749 17.2327 8.09122 17.2222C8.07644 17.2327 8.06272 17.2422 8.05005 17.2517Z" fill="#F5921C"/>
<path d="M7.83472 17.3896C7.85038 17.3802 7.86605 17.3698 7.88276 17.3604C7.8671 17.3698 7.85143 17.3802 7.83472 17.3896Z" fill="#F5921C"/>
<path d="M8.73853 16.6517C8.74674 16.6425 8.75598 16.6333 8.76419 16.624C8.75495 16.6333 8.74674 16.6425 8.73853 16.6517Z" fill="#F5921C"/>
<path d="M7.3811 17.6047C7.52863 17.553 7.68034 17.4806 7.83519 17.3896C7.68034 17.4806 7.52863 17.553 7.3811 17.6047Z" fill="#F5921C"/>
<path d="M7.88892 17.3588C7.90354 17.3494 7.91817 17.34 7.93384 17.3306C7.91817 17.34 7.90354 17.3494 7.88892 17.3588Z" fill="#F5921C"/>
<path d="M7.94312 17.3246C7.95669 17.3152 7.97132 17.3058 7.98594 17.2964C7.97132 17.3058 7.95669 17.3152 7.94312 17.3246Z" fill="#F5921C"/>
<path d="M8.52002 16.8687C8.5293 16.8594 8.53961 16.8501 8.54888 16.8408C8.53961 16.8501 8.5293 16.8594 8.52002 16.8687Z" fill="#F5921C"/>
<path d="M8.84863 16.5326C8.85685 16.5233 8.86403 16.5151 8.87225 16.5059C8.86403 16.5151 8.85582 16.5243 8.84863 16.5326Z" fill="#F5921C"/>
<path d="M8.57422 16.8167C8.58346 16.8075 8.5927 16.7983 8.60194 16.79C8.5927 16.7983 8.58346 16.8075 8.57422 16.8167Z" fill="#F5921C"/>
<path d="M8.79443 16.5916C8.80265 16.5824 8.81086 16.5742 8.81908 16.5649C8.81086 16.5742 8.80265 16.5834 8.79443 16.5916Z" fill="#F5921C"/>
<path d="M8.68262 16.7074C8.69186 16.6982 8.70007 16.6889 8.70931 16.6797C8.70007 16.6889 8.69186 16.6982 8.68262 16.7074Z" fill="#F5921C"/>
<path d="M8.46411 16.9188C8.47436 16.9096 8.4846 16.9004 8.49484 16.8901C8.4846 16.8994 8.47436 16.9096 8.46411 16.9188Z" fill="#F5921C"/>
<path d="M8.40991 16.9663C8.42102 16.9562 8.43213 16.9461 8.44323 16.936C8.43213 16.9461 8.42102 16.9562 8.40991 16.9663Z" fill="#F5921C"/>
<path d="M8.15674 17.1752C8.17046 17.1647 8.18418 17.1541 8.1979 17.1436C8.18418 17.1552 8.17046 17.1647 8.15674 17.1752Z" fill="#F5921C"/>
<path d="M8.20947 17.134C8.22305 17.1225 8.23768 17.1121 8.2523 17.1006C8.23768 17.1121 8.22305 17.1225 8.20947 17.134Z" fill="#F5921C"/>
<path d="M8.96021 16.4037C8.96632 16.3966 8.97244 16.3895 8.97855 16.3823C8.97244 16.3895 8.96632 16.3966 8.96021 16.4037Z" fill="#F5921C"/>
<path d="M8.25537 17.0951C8.3035 17.0568 8.35267 17.0165 8.4008 16.9741C8.35267 17.0165 8.30455 17.0568 8.25537 17.0951Z" fill="#F5921C"/>
<path d="M8.90454 16.4705C8.91173 16.4623 8.91892 16.4541 8.92611 16.4448C8.91892 16.4541 8.91173 16.4623 8.90454 16.4705Z" fill="#F5921C"/>
<path d="M7.69946 13.9038C7.73518 13.9017 7.76985 13.8996 7.80558 13.8975C7.76985 13.8996 7.73518 13.9017 7.69946 13.9038Z" fill="#F5921C"/>
<path d="M7.69116 13.9051C7.69334 13.9051 7.69553 13.9051 7.6988 13.9051C7.69662 13.904 7.69334 13.904 7.69116 13.9051Z" fill="#F5921C"/>
<path d="M25.4863 10.186C24.8005 8.92877 23.7132 8.67236 23.7132 8.67236C23.0064 9.5367 23.4372 11.1289 23.4372 11.1289C21.5616 10.6512 19.6714 12.3313 20.9834 15.0494C20.9834 15.0494 20.9981 12.8204 23.4079 13.085C27.1726 13.4986 25.9913 20.3936 20.2997 20.3936C16.3154 20.3936 13.9171 17.5401 12.3499 15.9799C12.0174 16.5527 11.616 17.0645 11.3149 17.416C12.4586 19.2791 10.7796 21.076 9.07861 20.3027C9.91499 21.717 11.3379 22.326 12.2778 21.6581C13.8878 20.5136 12.9845 18.8986 12.9845 18.8986C22.1 26.2496 28.9165 18.6432 26.674 13.1812C26.6175 13.0437 26.5945 12.9051 26.5694 12.78C26.5276 12.6301 26.5046 12.4719 26.5046 12.3086C26.5046 11.3377 27.3002 10.552 28.2808 10.552C28.6802 10.552 29.0493 10.6823 29.3462 10.9025C28.997 9.05697 26.3436 8.67236 25.4863 10.186Z" fill="#F5921C"/>
<path d="M9.41724 15.8003C9.45909 15.7383 9.4999 15.6752 9.54175 15.6111C9.53861 15.6091 9.53652 15.608 9.53338 15.606C9.46327 15.7249 9.41828 15.7993 9.41724 15.8003Z" fill="#F5921C"/>
<path d="M24.9654 2.98235C24.5869 2.83037 24.1656 2.74249 23.7202 2.72698C22.6288 2.68976 21.3878 3.08884 20.2514 4.05657C20.0339 4.24164 19.8206 4.44738 19.6126 4.67484C19.5885 4.70069 19.5634 4.72653 19.5383 4.75238C19.4495 4.84957 18.7521 5.61775 18.1656 6.40248C18.1667 6.40351 18.1667 6.40351 18.1677 6.40454C17.0501 7.92334 16.0778 9.66545 15.2488 11.3197C15.2488 11.3197 14.4741 9.03891 13.2843 7.8003C11.7809 6.23395 11.8499 3.63991 14.4416 4.70586C14.4416 4.70586 12.9309 2.27827 10.8285 4.42877C10.8285 4.42877 6.9895 3.08471 6.45945 7.00937C10.1583 3.307 12.0841 8.68842 10.5054 13.527C10.4009 13.8496 10.2838 14.1546 10.1573 14.4431C9.96911 14.8721 9.76106 15.2619 9.53942 15.6114C9.49864 15.6755 9.45682 15.7386 9.415 15.8006L9.38468 15.845C9.26864 16.0136 9.1505 16.1718 9.03027 16.3186C9.0125 16.3403 8.99472 16.362 8.97695 16.3827C8.97068 16.3899 8.9644 16.3971 8.95813 16.4044C8.94663 16.4178 8.93513 16.4323 8.92259 16.4457C8.91527 16.454 8.90795 16.4623 8.90063 16.4716C8.89018 16.484 8.87972 16.4954 8.86927 16.5078C8.8609 16.5171 8.85358 16.5253 8.84522 16.5346C8.83476 16.546 8.82536 16.5564 8.8149 16.5677C8.80654 16.577 8.79817 16.5853 8.78981 16.5946C8.7804 16.605 8.77099 16.6153 8.76054 16.6256C8.75217 16.6349 8.74381 16.6442 8.7344 16.6535C8.72499 16.6629 8.71558 16.6732 8.70617 16.6825C8.69781 16.6918 8.6884 16.7011 8.67899 16.7104C8.66958 16.7197 8.66122 16.729 8.65181 16.7383C8.6424 16.7476 8.63403 16.7569 8.62463 16.7652C8.61626 16.7735 8.60685 16.7828 8.59744 16.7911C8.58803 16.8004 8.57862 16.8097 8.56921 16.8179C8.56085 16.8262 8.55249 16.8345 8.54412 16.8428C8.53471 16.8521 8.52426 16.8614 8.51485 16.8707C8.50753 16.8779 8.49917 16.8851 8.49185 16.8924C8.48139 16.9017 8.47094 16.912 8.46048 16.9213C8.45421 16.9275 8.44689 16.9337 8.44062 16.9389C8.42912 16.9492 8.41762 16.9596 8.40612 16.9699C8.40298 16.972 8.40089 16.9741 8.39776 16.9772C8.34966 17.0195 8.30053 17.0599 8.25243 17.0981C8.25034 17.0992 8.2493 17.1012 8.24721 17.1023C8.23257 17.1136 8.21898 17.125 8.20434 17.1353C8.20016 17.1384 8.19703 17.1415 8.19284 17.1446C8.17925 17.155 8.16566 17.1653 8.15207 17.1757C8.14789 17.1788 8.14371 17.1819 8.13952 17.185C8.12593 17.1953 8.11234 17.2046 8.09875 17.215C8.09457 17.2181 8.09039 17.2212 8.08621 17.2243C8.07261 17.2336 8.05902 17.2439 8.04543 17.2532C8.04125 17.2563 8.03707 17.2594 8.03289 17.2615C8.01929 17.2708 8.0057 17.2801 7.99211 17.2894C7.98793 17.2915 7.98479 17.2946 7.98061 17.2966C7.96702 17.3059 7.95238 17.3152 7.93775 17.3245C7.93461 17.3266 7.93148 17.3287 7.92834 17.3307C7.9137 17.3401 7.89906 17.3494 7.88338 17.3587C7.88129 17.3597 7.8792 17.3607 7.87711 17.3618C7.86143 17.3711 7.84575 17.3814 7.82902 17.3907C7.67429 17.4817 7.52269 17.5541 7.37424 17.6058C7.21323 17.6833 7.03237 17.7267 6.84104 17.7267C6.1688 17.7267 5.62411 17.1881 5.62411 16.5233C5.62411 16.1139 5.83112 15.753 6.1458 15.5359C6.17403 15.5163 6.2033 15.4977 6.23362 15.4801C6.52427 15.2971 7.72761 14.9156 8.96754 15.3508C9.29059 14.8711 9.45787 14.4658 9.53942 14.2146C8.70826 13.9603 7.14841 13.6749 5.55302 14.3935C4.64137 14.7708 4.00049 15.661 4.00049 16.7001C4.00049 17.3142 4.22422 17.8766 4.59536 18.3109C4.83582 18.5931 5.13901 18.8216 5.48193 18.9757C5.89071 19.1452 6.3664 19.2124 6.87764 19.1742C8.15939 19.0791 9.66069 18.3202 10.8609 16.8428C11.1892 16.4395 11.4945 15.9825 11.7663 15.4708C12.4992 14.0936 12.9937 12.3195 13.0418 10.1276C13.0418 10.1276 14.8253 12.2709 15.3658 15.2723C15.3658 15.2723 16.4511 11.8118 17.4777 10.1741C17.3617 11.7188 17.4997 13.4381 18.0705 15.0272C18.1217 15.2712 18.1677 15.4563 18.2064 15.5473C18.8389 17.0495 18.2325 18.6686 16.3319 18.3533C16.3319 18.3533 18.8086 19.9196 19.761 17.6668C19.761 17.6668 21.9743 18.5487 23.1337 17.1695C24.2932 15.7902 23.8802 14.3614 23.1494 13.8383C23.1494 13.8383 23.7213 15.7623 21.9513 16.3661C20.726 16.7828 18.4343 15.4304 18.9424 10.4481C19.0041 9.84328 19.1358 9.24569 19.3198 8.67395C19.3941 8.4103 19.5007 8.13322 19.6251 7.86027C19.6722 7.75585 19.7223 7.65142 19.7736 7.54803C20.0412 7.01144 20.3444 6.52241 20.5389 6.22361C20.6445 6.06233 20.7176 5.95687 20.7354 5.93206C20.7385 5.92792 20.7396 5.92585 20.7396 5.92585C20.8985 5.71287 21.0637 5.50919 21.2341 5.31895C21.967 4.53836 22.6162 4.04416 23.1902 3.92837C23.2926 3.90459 23.3982 3.89115 23.508 3.89115C24.2691 3.89115 24.8859 4.50114 24.8859 5.25382C24.8859 5.48955 24.8253 5.7108 24.7187 5.90414C24.4406 6.45417 23.6732 6.86773 22.3068 6.74263C22.3068 6.74263 22.0193 6.70955 21.599 6.59995C21.4526 6.5617 21.2885 6.5131 21.116 6.45417C20.819 6.80053 20.5472 7.33815 20.3413 7.81271C20.3946 7.83442 20.4489 7.85613 20.5033 7.87784C20.7574 7.9864 21.2717 8.17561 21.9252 8.26349C22.68 8.36481 23.6199 8.32966 24.5566 7.87474C24.888 7.71346 25.2069 7.49944 25.4902 7.2482C25.599 7.15205 25.7025 7.0497 25.7997 6.9432C26.1823 6.49656 26.4134 5.91862 26.4134 5.28794C26.4217 4.27369 25.8279 3.39798 24.9654 2.98235Z" fill="#F5921C"/>
<path d="M9.38599 15.8442L9.41629 15.7998C9.40688 15.8143 9.39643 15.8287 9.38599 15.8442Z" fill="#F5921C"/>
</svg>
