<svg width="8" height="8" viewBox="0 0 8 8" fill="none" xmlns="http://www.w3.org/2000/svg">
<path d="M7.37372 7.36212C7.55187 7.17773 7.55187 6.88534 7.37372 6.70095L7.37375 6.70093L7.3707 6.69788L4.67342 4.00058L7.3707 1.30329L7.37073 1.30326C7.55647 1.11746 7.55647 0.816273 7.37073 0.63047L7.37068 0.630414L7.19393 7.18842M7.37372 7.36212L7.19393 7.18842M7.37372 7.36212C7.37373 7.36212 7.37373 7.36211 7.37373 7.36211L7.19393 7.18842M7.37372 7.36212C7.19116 7.5511 6.88996 7.55635 6.70094 7.37375L6.69783 7.37075L6.69786 7.37073L4.00057 4.67343L4.17735 4.49665L6.87464 7.19395C6.96434 7.2806 7.10727 7.27812 7.19393 7.18842M0.801658 1.12095L0.807218 1.12651L3.50451 3.82381L3.32773 4.00058L3.50451 4.17736L0.807218 6.87466C0.717517 6.96131 0.715033 7.10425 0.801686 7.19395C0.888339 7.28365 1.03127 7.28614 1.12098 7.19948L1.12651 7.19395L3.8238 4.49665L4.17735 3.50452L4.00057 3.32774M0.801658 1.12095C0.715033 1.03125 0.717517 0.888284 0.807218 0.801658C0.89692 0.715033 1.03988 0.717517 1.12651 0.807218L3.8238 3.50452L4.00057 3.32774M0.801658 1.12095L0.62088 1.29363C0.621038 1.2938 0.621196 1.29396 0.621353 1.29413M0.801658 1.12095L0.621824 1.29461C0.621667 1.29445 0.62151 1.29429 0.621353 1.29413M4.00057 3.32774L1.30455 0.63171C1.12183 0.444483 0.821941 0.439896 0.633552 0.621825C0.444678 0.804221 0.439311 1.10509 0.621353 1.29413" fill="white" stroke="white" stroke-width="0.5"/>
</svg>
