<svg width="22" height="22" viewBox="0 0 22 22" fill="none" xmlns="http://www.w3.org/2000/svg">
<path fill-rule="evenodd" clip-rule="evenodd" d="M10.0833 3.66683C6.53942 3.66683 3.66659 6.53967 3.66659 10.0835C3.66659 13.6273 6.53942 16.5002 10.0833 16.5002C13.6271 16.5002 16.4999 13.6273 16.4999 10.0835C16.4999 6.53967 13.6271 3.66683 10.0833 3.66683ZM1.83325 10.0835C1.83325 5.52715 5.5269 1.8335 10.0833 1.8335C14.6396 1.8335 18.3333 5.52715 18.3333 10.0835C18.3333 14.6398 14.6396 18.3335 10.0833 18.3335C5.5269 18.3335 1.83325 14.6398 1.83325 10.0835Z" fill="white"/>
<path fill-rule="evenodd" clip-rule="evenodd" d="M14.6144 14.6142C14.9724 14.2562 15.5528 14.2562 15.9108 14.6142L19.8983 18.6017C20.2563 18.9597 20.2563 19.5401 19.8983 19.8981C19.5403 20.256 18.9599 20.256 18.6019 19.8981L14.6144 15.9106C14.2565 15.5526 14.2565 14.9722 14.6144 14.6142Z" fill="white"/>
</svg>
