<svg width="92" height="96" viewBox="0 0 92 96" fill="none" xmlns="http://www.w3.org/2000/svg">
<path fill-rule="evenodd" clip-rule="evenodd" d="M44.9915 9.99994C25.6652 9.99994 9.99811 25.6699 9.99811 44.9998C9.99811 64.3296 25.6652 79.9996 44.9915 79.9996C64.3178 79.9996 79.9849 64.3296 79.9849 44.9998C79.9849 25.6699 64.3178 9.99994 44.9915 9.99994ZM0 44.9998C0 20.1471 20.1434 0 44.9915 0C69.8396 0 89.983 20.1471 89.983 44.9998C89.983 69.8524 69.8396 89.9995 44.9915 89.9995C20.1434 89.9995 0 69.8524 0 44.9998Z" fill="#8D909B"/>
<path fill-rule="evenodd" clip-rule="evenodd" d="M68.4993 72.4957C70.4516 70.5431 73.6168 70.5431 75.5691 72.4957L90.5332 87.4639C92.4854 89.4165 92.4854 92.5823 90.5332 94.5349C88.5809 96.4875 85.4157 96.4875 83.4635 94.5349L68.4993 79.5667C66.5471 77.6141 66.5471 74.4483 68.4993 72.4957Z" fill="#8D909B"/>
</svg>
