<svg width="16" height="15" viewBox="0 0 16 15" fill="none" xmlns="http://www.w3.org/2000/svg">
    <path d="M3.63854 14.3951C3.88405 14.5763 4.1807 14.5194 4.54384 14.2502L8.10368 11.6099L11.6635 14.2502C12.0267 14.5194 12.3284 14.5763 12.5688 14.3951C12.8041 14.2139 12.8604 13.9137 12.7172 13.4788L11.3208 9.24399L14.9063 6.63477C15.2694 6.37074 15.4126 6.09636 15.3154 5.80645C15.2234 5.52689 14.9574 5.37676 14.4971 5.38193L10.0984 5.40782L8.75325 1.15748C8.61516 0.717435 8.40034 0.5 8.10368 0.5C7.80703 0.5 7.59221 0.717435 7.45412 1.15748L6.10895 5.40782L1.71029 5.38193C1.25508 5.37676 0.984005 5.52689 0.89194 5.80645C0.79476 6.09636 0.937972 6.37074 1.30112 6.63477L4.88653 9.24399L3.49533 13.4788C3.347 13.9137 3.40326 14.2139 3.63854 14.3951Z" fill="#EA9400"/>
</svg>
