<svg width="18" height="16" viewBox="0 0 18 16" fill="none" xmlns="http://www.w3.org/2000/svg">
<path fill-rule="evenodd" clip-rule="evenodd" d="M13.2844 15.4794C14.3328 15.9381 14.726 14.977 14.726 14.977L17.5 1.04148C17.4782 0.102245 16.2113 0.670152 16.2113 0.670152L0.681215 6.76423C0.681215 6.76423 -0.0614331 7.02634 0.00409467 7.48504C0.0696224 7.94373 0.659372 8.16216 0.659372 8.16216L4.56919 9.47271C4.56919 9.47271 5.74869 13.3388 5.98896 14.0815C6.20739 14.8023 6.40397 14.8241 6.40397 14.8241C6.6224 14.9115 6.81898 14.7586 6.81898 14.7586L9.35272 12.4651L13.2844 15.4794ZM13.9613 3.50907C13.9613 3.50907 14.5073 3.18143 14.4855 3.50907C14.4855 3.50907 14.5729 3.55275 14.2889 3.85855C14.0268 4.12066 7.84536 9.66867 7.01534 10.4113C6.94981 10.455 6.90613 10.5205 6.90613 10.6079L6.66586 12.6611C6.62217 12.8795 6.33822 12.9014 6.27269 12.7048L5.24609 9.34104C5.2024 9.20998 5.24609 9.05708 5.37715 8.96971L13.9613 3.50907Z" fill="white"/>
</svg>
