<svg width="16" height="15" viewBox="0 0 16 15" fill="none" xmlns="http://www.w3.org/2000/svg">
<g clip-path="url(#clip0)">
<path d="M12.5447 4.82136V3.25332C12.5447 2.24474 11.7122 1.42383 10.6689 1.42383H5.55497C4.51161 1.42383 3.66209 2.24444 3.66209 3.25332V4.82107H1.68588C1.23105 4.82107 0.862305 5.17752 0.862305 5.61719V7.34783C0.862305 7.78779 1.23105 8.14395 1.68588 8.14395H1.9313L2.83119 12.9227C2.90231 13.301 3.24359 13.576 3.64133 13.576H12.5828C12.9809 13.576 13.3215 13.301 13.393 12.9224L14.2922 8.14395H14.5212C14.976 8.14395 15.3448 7.78779 15.3448 7.34783V5.61719C15.3448 5.17752 14.976 4.82107 14.5212 4.82107L12.5447 4.82136ZM5.18775 3.25332C5.18775 3.06092 5.35594 2.89863 5.55497 2.89863H10.6698C10.8685 2.89863 11.0196 3.06092 11.0196 3.25332V4.82107H5.18775V3.25332ZM6.32696 10.7309C6.32696 11.0369 6.0739 11.2848 5.75735 11.2848C5.44111 11.2848 5.18775 11.0369 5.18775 10.7309V7.69041C5.18775 7.38441 5.44111 7.13684 5.75735 7.13684C6.0742 7.13684 6.32696 7.385 6.32696 7.69041V10.7309ZM8.6829 10.7309C8.6829 11.0369 8.42954 11.2848 8.1133 11.2848C7.79706 11.2848 7.54339 11.0369 7.54339 10.7309V7.69041C7.54339 7.38441 7.79706 7.13684 8.1133 7.13684C8.42985 7.13684 8.6829 7.385 8.6829 7.69041V10.7309ZM11.0389 10.7309C11.0389 11.0369 10.7855 11.2848 10.4696 11.2848C10.153 11.2848 9.89964 11.0369 9.89964 10.7309V7.69041C9.89964 7.38441 10.153 7.13684 10.4696 7.13684C10.7855 7.13684 11.0389 7.385 11.0389 7.69041V10.7309Z" fill="white"/>
</g>
<defs>
<clipPath id="clip0">
<rect width="14.4828" height="14.0003" fill="white" transform="translate(0.862305 0.5)"/>
</clipPath>
</defs>
</svg>
