<svg width="30" height="30" viewBox="0 0 30 30" fill="none" xmlns="http://www.w3.org/2000/svg">
<path d="M15.0002 7.48748L24.4127 23.75H5.58765L15.0002 7.48748ZM3.42515 22.5C2.46265 24.1625 3.66265 26.25 5.58765 26.25H24.4127C26.3377 26.25 27.5377 24.1625 26.5752 22.5L17.1627 6.23748C16.2002 4.57498 13.8002 4.57498 12.8377 6.23748L3.42515 22.5ZM13.7502 13.75V16.25C13.7502 16.9375 14.3127 17.5 15.0002 17.5C15.6877 17.5 16.2502 16.9375 16.2502 16.25V13.75C16.2502 13.0625 15.6877 12.5 15.0002 12.5C14.3127 12.5 13.7502 13.0625 13.7502 13.75ZM13.7502 20H16.2502V22.5H13.7502V20Z" fill="#F83333"/>
</svg>
