<svg width="102" height="16" viewBox="0 0 102 16" fill="none" xmlns="http://www.w3.org/2000/svg">
<path d="M3.99621 14.8951C4.26117 15.0763 4.58132 15.0194 4.97324 14.7502L8.81514 12.1099L12.657 14.7502C13.049 15.0194 13.3746 15.0763 13.6341 14.8951C13.888 14.7139 13.9487 14.4137 13.7942 13.9788L12.2872 9.74399L16.1567 7.13477C16.5486 6.87074 16.7032 6.59636 16.5983 6.30645C16.4989 6.02689 16.2119 5.87676 15.7151 5.88193L10.9679 5.90782L9.51618 1.65748C9.36714 1.21743 9.1353 1 8.81514 1C8.49498 1 8.26315 1.21743 8.11411 1.65748L6.66235 5.90782L1.91518 5.88193C1.4239 5.87676 1.13134 6.02689 1.03198 6.30645C0.927104 6.59636 1.08166 6.87074 1.47358 7.13477L5.34308 9.74399L3.84165 13.9788C3.68157 14.4137 3.74229 14.7139 3.99621 14.8951Z" stroke="#D2D2D2"/>
<path d="M25.3798 14.8951C25.6447 15.0763 25.9649 15.0194 26.3568 14.7502L30.1987 12.1099L34.0406 14.7502C34.4325 15.0194 34.7582 15.0763 35.0176 14.8951C35.2715 14.7139 35.3323 14.4137 35.1777 13.9788L33.6707 9.74399L37.5402 7.13477C37.9322 6.87074 38.0867 6.59636 37.9818 6.30645C37.8825 6.02689 37.5954 5.87676 37.0987 5.88193L32.3515 5.90782L30.8997 1.65748C30.7507 1.21743 30.5188 1 30.1987 1C29.8785 1 29.6467 1.21743 29.4977 1.65748L28.0459 5.90782L23.2987 5.88193C22.8074 5.87676 22.5149 6.02689 22.4155 6.30645C22.3106 6.59636 22.4652 6.87074 22.8571 7.13477L26.7266 9.74399L25.2252 13.9788C25.0651 14.4137 25.1258 14.7139 25.3798 14.8951Z" stroke="#D2D2D2"/>
<path d="M51.8654 11.6978L51.5822 11.5032L51.299 11.6978L47.4572 14.338C47.2941 14.4501 47.1873 14.4882 47.1273 14.4975C47.0873 14.5037 47.0701 14.4984 47.0498 14.4853C47.0356 14.4746 47.031 14.4678 47.0299 14.466C47.029 14.4645 47.0257 14.4594 47.0231 14.445C47.0171 14.4108 47.0155 14.3211 47.078 14.1515L47.078 14.1515L47.08 14.1459L48.5814 9.91107L48.7109 9.54599L48.3897 9.32943L44.5202 6.72021L44.52 6.72009C44.3577 6.61074 44.2941 6.5308 44.2734 6.49253C44.2705 6.48722 44.2688 6.48334 44.2678 6.48078C44.2682 6.47966 44.2686 6.47825 44.2693 6.47654L44.2693 6.47654L44.2702 6.47389C44.2704 6.47344 44.2705 6.47296 44.2707 6.47246C44.2728 6.46581 44.2765 6.4546 44.3133 6.43663C44.366 6.41083 44.4769 6.3798 44.677 6.38191L44.6795 6.38192L49.4267 6.40781L49.7864 6.40977L49.9026 6.06943L51.3544 1.8191L51.3548 1.81788C51.4141 1.6426 51.4741 1.56168 51.5096 1.52842C51.5331 1.5064 51.5486 1.5 51.5822 1.5C51.6159 1.5 51.6314 1.5064 51.6549 1.52842C51.6903 1.56168 51.7503 1.6426 51.8097 1.81788L51.8101 1.8191L53.2619 6.06943L53.3781 6.40977L53.7377 6.40781L58.4849 6.38193L58.4874 6.38191C58.6912 6.37978 58.8013 6.41109 58.8524 6.43622C58.8872 6.45329 58.8907 6.46363 58.8937 6.4723C58.8939 6.47283 58.8941 6.47337 58.8943 6.47389L58.8943 6.4739L58.8952 6.47654C58.8958 6.47825 58.8963 6.47966 58.8966 6.48078C58.8956 6.48334 58.8939 6.48722 58.8911 6.49253C58.8704 6.5308 58.8068 6.61074 58.6444 6.72009L58.6443 6.72021L54.7748 9.32943L54.4532 9.54625L54.5832 9.91162L56.0901 14.1462C56.1506 14.3164 56.1489 14.407 56.1424 14.4428C56.1397 14.458 56.1361 14.4637 56.1349 14.4656C56.1335 14.4677 56.1284 14.4752 56.1127 14.4867C56.0972 14.4973 56.0821 14.5041 56.0389 14.4974C55.9776 14.4879 55.8692 14.4493 55.7072 14.338L51.8654 11.6978Z" stroke="#D2D2D2"/>
<path d="M73.1676 11.6992L72.8824 11.5011L72.5972 11.6992L68.7954 14.3394C68.7954 14.3394 68.7954 14.3395 68.7953 14.3395C68.6342 14.4513 68.5296 14.4886 68.4723 14.4976C68.4355 14.5034 68.4207 14.4988 68.4023 14.4867C68.3887 14.4764 68.3843 14.4698 68.3832 14.468C68.3822 14.4664 68.3787 14.4609 68.3761 14.4458C68.3699 14.4104 68.3686 14.3198 68.4305 14.1499L68.4306 14.1499L68.4325 14.1443L69.9183 9.90952L70.0455 9.54709L69.7281 9.3308L65.8989 6.72158L65.8987 6.72146C65.7387 6.61251 65.6759 6.53286 65.6553 6.49445C65.6519 6.48804 65.6501 6.48361 65.6492 6.48097C65.6495 6.47956 65.6501 6.47759 65.6511 6.47497L65.6511 6.47497L65.652 6.47234C65.6522 6.47185 65.6523 6.47135 65.6525 6.47082C65.6549 6.46349 65.6584 6.45294 65.6933 6.43572C65.744 6.41069 65.852 6.37981 66.049 6.38191L66.0516 6.38192L70.7493 6.40781L71.1102 6.4098L71.2257 6.06792L72.6624 1.81759L72.6628 1.81638C72.7217 1.64055 72.7812 1.55959 72.816 1.52663C72.8386 1.50523 72.8521 1.5 72.8824 1.5C72.9128 1.5 72.9263 1.50523 72.9488 1.52663C72.9836 1.55959 73.0431 1.64055 73.1021 1.81638L73.1025 1.81759L74.5391 6.06792L74.6547 6.4098L75.0155 6.40781L79.7133 6.38193L79.7158 6.3819C79.9164 6.37979 80.0237 6.41095 80.0727 6.4353C80.1057 6.45167 80.109 6.46134 80.1123 6.47081C80.1125 6.47132 80.1126 6.47183 80.1128 6.47235L80.1138 6.47497C80.1147 6.47759 80.1153 6.47956 80.1157 6.48097C80.1147 6.48361 80.1129 6.48804 80.1095 6.49445C80.0889 6.53286 80.0262 6.61251 79.8661 6.72146L79.866 6.72158L76.0368 9.3308L75.719 9.54734L75.8467 9.91007L77.3379 14.1447C77.3978 14.3152 77.3965 14.4067 77.3898 14.4437C77.387 14.4596 77.3833 14.4656 77.382 14.4676C77.3806 14.4698 77.3757 14.4771 77.3606 14.4882C77.3468 14.4977 77.3342 14.5038 77.2943 14.4976C77.2356 14.4884 77.1295 14.4505 76.9694 14.3394L73.1676 11.6992Z" stroke="#D2D2D2"/>
<path d="M94.5513 11.6992L94.2661 11.5011L93.9809 11.6992L90.1791 14.3394C90.1791 14.3394 90.179 14.3395 90.179 14.3395C90.0179 14.4513 89.9133 14.4886 89.856 14.4976C89.8191 14.5034 89.8044 14.4988 89.7859 14.4867C89.7724 14.4764 89.768 14.4698 89.7669 14.468C89.7658 14.4664 89.7624 14.4609 89.7597 14.4458C89.7535 14.4104 89.7523 14.3198 89.8142 14.1499L89.8142 14.1499L89.8162 14.1443L91.302 9.90952L91.4292 9.54709L91.1117 9.3308L87.2825 6.72158L87.2824 6.72146C87.1223 6.61251 87.0596 6.53286 87.039 6.49445C87.0356 6.48804 87.0338 6.48361 87.0328 6.48097C87.0332 6.47956 87.0338 6.47759 87.0347 6.47497L87.0348 6.47497L87.0357 6.47234C87.0358 6.47185 87.036 6.47135 87.0362 6.47082C87.0386 6.46349 87.0421 6.45294 87.077 6.43572C87.1277 6.41069 87.2357 6.37981 87.4327 6.38191L87.4352 6.38192L92.133 6.40781L92.4938 6.4098L92.6094 6.06792L94.046 1.81759L94.0464 1.81638C94.1054 1.64055 94.1649 1.55959 94.1997 1.52663C94.2222 1.50523 94.2357 1.5 94.2661 1.5C94.2964 1.5 94.3099 1.50523 94.3325 1.52663C94.3673 1.55959 94.4268 1.64055 94.4857 1.81638L94.4861 1.81759L95.9228 6.06792L96.0383 6.4098L96.3992 6.40781L101.097 6.38193L101.099 6.3819C101.3 6.37979 101.407 6.41095 101.456 6.4353C101.489 6.45167 101.493 6.46134 101.496 6.47081C101.496 6.47132 101.496 6.47183 101.496 6.47235L101.497 6.47497C101.498 6.47759 101.499 6.47956 101.499 6.48097C101.498 6.48361 101.497 6.48804 101.493 6.49445C101.473 6.53286 101.41 6.61251 101.25 6.72146L101.25 6.72158L97.4204 9.3308L97.1026 9.54734L97.2304 9.91007L98.7216 14.1447C98.7815 14.3152 98.7801 14.4067 98.7735 14.4437C98.7706 14.4596 98.7669 14.4656 98.7657 14.4676C98.7643 14.4698 98.7593 14.4771 98.7442 14.4882C98.7305 14.4977 98.7178 14.5038 98.6779 14.4976C98.6192 14.4884 98.5132 14.4505 98.3531 14.3394L94.5513 11.6992Z" stroke="#D2D2D2"/>
</svg>
