<svg width="101" height="16" viewBox="0 0 101 16" fill="none" xmlns="http://www.w3.org/2000/svg">
<path d="M2.99621 14.8951C3.26117 15.0763 3.58132 15.0194 3.97324 14.7502L7.81514 12.1099L11.657 14.7502C12.049 15.0194 12.3746 15.0763 12.6341 14.8951C12.888 14.7139 12.9487 14.4137 12.7942 13.9788L11.2872 9.74399L15.1567 7.13477C15.5486 6.87074 15.7032 6.59636 15.5983 6.30645C15.4989 6.02689 15.2119 5.87676 14.7151 5.88193L9.96793 5.90782L8.51618 1.65748C8.36714 1.21744 8.1353 1 7.81514 1C7.49498 1 7.26314 1.21744 7.11411 1.65748L5.66235 5.90782L0.915179 5.88193C0.423901 5.87676 0.131343 6.02689 0.0319833 6.30645C-0.0728962 6.59636 0.081663 6.87074 0.473581 7.13477L4.34308 9.74399L2.84165 13.9788C2.68157 14.4137 2.74229 14.7139 2.99621 14.8951Z" fill="#F5921C"/>
<path d="M24.3798 14.8951C24.6447 15.0763 24.9649 15.0194 25.3568 14.7502L29.1987 12.1099L33.0406 14.7502C33.4325 15.0194 33.7582 15.0763 34.0176 14.8951C34.2715 14.7139 34.3323 14.4137 34.1777 13.9788L32.6707 9.74399L36.5402 7.13477C36.9322 6.87074 37.0867 6.59636 36.9818 6.30645C36.8825 6.02689 36.5954 5.87676 36.0987 5.88193L31.3515 5.90782L29.8997 1.65748C29.7507 1.21743 29.5188 1 29.1987 1C28.8785 1 28.6467 1.21743 28.4977 1.65748L27.0459 5.90782L22.2987 5.88193C21.8074 5.87676 21.5149 6.02689 21.4155 6.30645C21.3106 6.59636 21.4652 6.87074 21.8571 7.13477L25.7266 9.74399L24.2252 13.9788C24.0651 14.4137 24.1258 14.7139 24.3798 14.8951Z" stroke="#D2D2D2"/>
<path d="M50.8654 11.6978L50.5822 11.5032L50.299 11.6978L46.4572 14.338C46.2941 14.4501 46.1873 14.4882 46.1273 14.4975C46.0873 14.5037 46.0701 14.4984 46.0498 14.4853C46.0356 14.4746 46.031 14.4678 46.0299 14.466C46.029 14.4645 46.0257 14.4594 46.0231 14.445C46.0171 14.4108 46.0155 14.3211 46.078 14.1515L46.078 14.1515L46.08 14.1459L47.5814 9.91107L47.7109 9.54599L47.3897 9.32943L43.5202 6.72021L43.52 6.72009C43.3577 6.61074 43.2941 6.5308 43.2734 6.49253C43.2705 6.48722 43.2688 6.48334 43.2678 6.48078C43.2682 6.47966 43.2686 6.47825 43.2693 6.47654L43.2693 6.47654L43.2702 6.47389C43.2704 6.47344 43.2705 6.47296 43.2707 6.47246C43.2728 6.46581 43.2765 6.4546 43.3133 6.43663C43.366 6.41083 43.4769 6.3798 43.677 6.38191L43.6795 6.38192L48.4267 6.40781L48.7864 6.40977L48.9026 6.06943L50.3544 1.8191L50.3548 1.81788C50.4141 1.6426 50.4741 1.56168 50.5096 1.52842C50.5331 1.5064 50.5486 1.5 50.5822 1.5C50.6159 1.5 50.6314 1.5064 50.6549 1.52842C50.6903 1.56168 50.7503 1.6426 50.8097 1.81788L50.8101 1.8191L52.2619 6.06943L52.3781 6.40977L52.7377 6.40781L57.4849 6.38193L57.4874 6.38191C57.6912 6.37978 57.8013 6.41109 57.8524 6.43622C57.8872 6.45329 57.8907 6.46363 57.8937 6.4723C57.8939 6.47283 57.8941 6.47337 57.8943 6.47389L57.8943 6.4739L57.8952 6.47654C57.8958 6.47825 57.8963 6.47966 57.8966 6.48078C57.8956 6.48334 57.8939 6.48722 57.8911 6.49253C57.8704 6.5308 57.8068 6.61074 57.6444 6.72009L57.6443 6.72021L53.7748 9.32943L53.4532 9.54625L53.5832 9.91162L55.0901 14.1462C55.1506 14.3164 55.1489 14.407 55.1424 14.4428C55.1397 14.458 55.1361 14.4637 55.1349 14.4656C55.1335 14.4677 55.1284 14.4752 55.1127 14.4867C55.0972 14.4973 55.0821 14.5041 55.0389 14.4974C54.9776 14.4879 54.8692 14.4493 54.7072 14.338L50.8654 11.6978Z" stroke="#D2D2D2"/>
<path d="M72.1676 11.6992L71.8824 11.5011L71.5972 11.6992L67.7954 14.3394C67.7954 14.3394 67.7954 14.3395 67.7953 14.3395C67.6342 14.4513 67.5296 14.4886 67.4723 14.4976C67.4355 14.5034 67.4207 14.4988 67.4023 14.4867C67.3887 14.4764 67.3843 14.4698 67.3832 14.468C67.3822 14.4664 67.3787 14.4609 67.3761 14.4458C67.3699 14.4104 67.3686 14.3198 67.4305 14.1499L67.4306 14.1499L67.4325 14.1443L68.9183 9.90952L69.0455 9.54709L68.7281 9.3308L64.8989 6.72158L64.8987 6.72146C64.7387 6.61251 64.6759 6.53286 64.6553 6.49445C64.6519 6.48804 64.6501 6.48361 64.6492 6.48097C64.6495 6.47956 64.6501 6.47759 64.6511 6.47497L64.6511 6.47497L64.652 6.47234C64.6522 6.47185 64.6523 6.47135 64.6525 6.47082C64.6549 6.46349 64.6584 6.45294 64.6933 6.43572C64.744 6.41069 64.852 6.37981 65.049 6.38191L65.0516 6.38192L69.7493 6.40781L70.1102 6.4098L70.2257 6.06792L71.6624 1.81759L71.6628 1.81638C71.7217 1.64055 71.7812 1.55959 71.816 1.52663C71.8386 1.50523 71.8521 1.5 71.8824 1.5C71.9128 1.5 71.9263 1.50523 71.9488 1.52663C71.9836 1.55959 72.0431 1.64055 72.1021 1.81638L72.1025 1.81759L73.5391 6.06792L73.6547 6.4098L74.0155 6.40781L78.7133 6.38193L78.7158 6.3819C78.9164 6.37979 79.0237 6.41095 79.0727 6.4353C79.1057 6.45167 79.109 6.46134 79.1123 6.47081C79.1125 6.47132 79.1126 6.47183 79.1128 6.47235L79.1138 6.47497C79.1147 6.47759 79.1153 6.47956 79.1157 6.48097C79.1147 6.48361 79.1129 6.48804 79.1095 6.49445C79.0889 6.53286 79.0262 6.61251 78.8661 6.72146L78.866 6.72158L75.0368 9.3308L74.719 9.54734L74.8467 9.91007L76.3379 14.1447C76.3978 14.3152 76.3965 14.4067 76.3898 14.4437C76.387 14.4596 76.3833 14.4656 76.382 14.4676C76.3806 14.4698 76.3757 14.4771 76.3606 14.4882C76.3468 14.4977 76.3342 14.5038 76.2943 14.4976C76.2356 14.4884 76.1295 14.4505 75.9694 14.3394L72.1676 11.6992Z" stroke="#D2D2D2"/>
<path d="M93.5513 11.6992L93.2661 11.5011L92.9809 11.6992L89.1791 14.3394C89.1791 14.3394 89.179 14.3395 89.179 14.3395C89.0179 14.4513 88.9133 14.4886 88.856 14.4976C88.8191 14.5034 88.8044 14.4988 88.7859 14.4867C88.7724 14.4764 88.768 14.4698 88.7669 14.468C88.7658 14.4664 88.7624 14.4609 88.7597 14.4458C88.7535 14.4104 88.7523 14.3198 88.8142 14.1499L88.8142 14.1499L88.8162 14.1443L90.302 9.90952L90.4292 9.54709L90.1117 9.3308L86.2825 6.72158L86.2824 6.72146C86.1223 6.61251 86.0596 6.53286 86.039 6.49445C86.0356 6.48804 86.0338 6.48361 86.0328 6.48097C86.0332 6.47956 86.0338 6.47759 86.0347 6.47497L86.0348 6.47497L86.0357 6.47234C86.0358 6.47185 86.036 6.47135 86.0362 6.47082C86.0386 6.46349 86.0421 6.45294 86.077 6.43572C86.1277 6.41069 86.2357 6.37981 86.4327 6.38191L86.4352 6.38192L91.133 6.40781L91.4938 6.4098L91.6094 6.06792L93.046 1.81759L93.0464 1.81638C93.1054 1.64055 93.1649 1.55959 93.1997 1.52663C93.2222 1.50523 93.2357 1.5 93.2661 1.5C93.2964 1.5 93.3099 1.50523 93.3325 1.52663C93.3673 1.55959 93.4268 1.64055 93.4857 1.81638L93.4861 1.81759L94.9228 6.06792L95.0383 6.4098L95.3992 6.40781L100.097 6.38193L100.099 6.3819C100.3 6.37979 100.407 6.41095 100.456 6.4353C100.489 6.45167 100.493 6.46134 100.496 6.47081C100.496 6.47132 100.496 6.47183 100.496 6.47235L100.497 6.47497C100.498 6.47759 100.499 6.47956 100.499 6.48097C100.498 6.48361 100.497 6.48804 100.493 6.49445C100.473 6.53286 100.41 6.61251 100.25 6.72146L100.25 6.72158L96.4204 9.3308L96.1026 9.54734L96.2304 9.91007L97.7216 14.1447C97.7815 14.3152 97.7801 14.4067 97.7735 14.4437C97.7706 14.4596 97.7669 14.4656 97.7657 14.4676C97.7643 14.4698 97.7593 14.4771 97.7442 14.4882C97.7305 14.4977 97.7178 14.5038 97.6779 14.4976C97.6192 14.4884 97.5132 14.4505 97.3531 14.3394L93.5513 11.6992Z" stroke="#D2D2D2"/>
</svg>
