<svg width="101" height="14" viewBox="0 0 101 14" fill="none" xmlns="http://www.w3.org/2000/svg">
<path d="M2.99621 13.8951C3.26117 14.0763 3.58132 14.0194 3.97324 13.7502L7.81514 11.1099L11.657 13.7502C12.049 14.0194 12.3746 14.0763 12.6341 13.8951C12.888 13.7139 12.9487 13.4137 12.7942 12.9788L11.2872 8.74399L15.1567 6.13477C15.5486 5.87074 15.7032 5.59636 15.5983 5.30645C15.4989 5.02689 15.2119 4.87676 14.7151 4.88193L9.96793 4.90782L8.51618 0.657482C8.36714 0.217435 8.1353 0 7.81514 0C7.49498 0 7.26314 0.217435 7.11411 0.657482L5.66235 4.90782L0.915179 4.88193C0.423901 4.87676 0.131343 5.02689 0.0319833 5.30645C-0.0728962 5.59636 0.081663 5.87074 0.473581 6.13477L4.34308 8.74399L2.84165 12.9788C2.68157 13.4137 2.74229 13.7139 2.99621 13.8951Z" fill="#F5921C"/>
<path d="M24.3798 13.8951C24.6447 14.0763 24.9649 14.0194 25.3568 13.7502L29.1987 11.1099L33.0406 13.7502C33.4325 14.0194 33.7582 14.0763 34.0176 13.8951C34.2715 13.7139 34.3323 13.4137 34.1777 12.9788L32.6707 8.74399L36.5402 6.13477C36.9322 5.87074 37.0867 5.59636 36.9818 5.30645C36.8825 5.02689 36.5954 4.87676 36.0987 4.88193L31.3515 4.90782L29.8997 0.657482C29.7507 0.217435 29.5188 0 29.1987 0C28.8785 0 28.6467 0.217435 28.4977 0.657482L27.0459 4.90782L22.2987 4.88193C21.8074 4.87676 21.5149 5.02689 21.4155 5.30645C21.3106 5.59636 21.4652 5.87074 21.8571 6.13477L25.7266 8.74399L24.2252 12.9788C24.0651 13.4137 24.1258 13.7139 24.3798 13.8951Z" fill="#F5921C"/>
<path d="M50.8654 10.6978L50.5822 10.5032L50.299 10.6978L46.4572 13.338C46.2941 13.4501 46.1873 13.4882 46.1273 13.4975C46.0873 13.5037 46.0701 13.4984 46.0498 13.4853C46.0356 13.4746 46.031 13.4678 46.0299 13.466C46.029 13.4645 46.0257 13.4594 46.0231 13.445C46.0171 13.4108 46.0155 13.3211 46.078 13.1515L46.078 13.1515L46.08 13.1459L47.5814 8.91107L47.7109 8.54599L47.3897 8.32943L43.5202 5.72021L43.52 5.72009C43.3577 5.61074 43.2941 5.5308 43.2734 5.49253C43.2705 5.48722 43.2688 5.48334 43.2678 5.48078C43.2682 5.47966 43.2686 5.47825 43.2693 5.47654L43.2693 5.47654L43.2702 5.47389C43.2704 5.47344 43.2705 5.47296 43.2707 5.47246C43.2728 5.46581 43.2765 5.4546 43.3133 5.43663C43.366 5.41083 43.4769 5.3798 43.677 5.38191L43.6795 5.38192L48.4267 5.40781L48.7864 5.40977L48.9026 5.06943L50.3544 0.819096L50.3548 0.817877C50.4141 0.6426 50.4741 0.56168 50.5096 0.528424C50.5331 0.506396 50.5486 0.5 50.5822 0.5C50.6159 0.5 50.6314 0.506396 50.6549 0.528425C50.6903 0.56168 50.7503 0.6426 50.8097 0.817877L50.8101 0.819095L52.2619 5.06943L52.3781 5.40977L52.7377 5.40781L57.4849 5.38193L57.4874 5.38191C57.6912 5.37978 57.8013 5.41109 57.8524 5.43622C57.8872 5.45329 57.8907 5.46363 57.8937 5.4723C57.8939 5.47283 57.8941 5.47337 57.8943 5.47389L57.8943 5.4739L57.8952 5.47654C57.8958 5.47825 57.8963 5.47966 57.8966 5.48078C57.8956 5.48334 57.8939 5.48722 57.8911 5.49253C57.8704 5.5308 57.8068 5.61074 57.6444 5.72009L57.6443 5.72021L53.7748 8.32943L53.4532 8.54625L53.5832 8.91162L55.0901 13.1462C55.1506 13.3164 55.1489 13.407 55.1424 13.4428C55.1397 13.458 55.1361 13.4637 55.1349 13.4656C55.1335 13.4677 55.1284 13.4752 55.1127 13.4867C55.0972 13.4973 55.0821 13.5041 55.0389 13.4974C54.9776 13.4879 54.8692 13.4493 54.7072 13.338L50.8654 10.6978Z" stroke="#D2D2D2"/>
<path d="M72.1676 10.6992L71.8824 10.5011L71.5972 10.6992L67.7954 13.3394C67.7954 13.3394 67.7954 13.3395 67.7953 13.3395C67.6342 13.4513 67.5296 13.4886 67.4723 13.4976C67.4355 13.5034 67.4207 13.4988 67.4023 13.4867C67.3887 13.4764 67.3843 13.4698 67.3832 13.468C67.3822 13.4664 67.3787 13.4609 67.3761 13.4458C67.3699 13.4104 67.3686 13.3198 67.4305 13.1499L67.4306 13.1499L67.4325 13.1443L68.9183 8.90952L69.0455 8.54709L68.7281 8.3308L64.8989 5.72158L64.8987 5.72146C64.7387 5.61251 64.6759 5.53286 64.6553 5.49445C64.6519 5.48804 64.6501 5.48361 64.6492 5.48097C64.6495 5.47956 64.6501 5.47759 64.6511 5.47497L64.6511 5.47497L64.652 5.47234C64.6522 5.47185 64.6523 5.47135 64.6525 5.47082C64.6549 5.46349 64.6584 5.45294 64.6933 5.43572C64.744 5.41069 64.852 5.37981 65.049 5.38191L65.0516 5.38192L69.7493 5.40781L70.1102 5.4098L70.2257 5.06792L71.6624 0.817586L71.6628 0.816375C71.7217 0.640554 71.7812 0.559589 71.816 0.526632C71.8386 0.50523 71.8521 0.5 71.8824 0.5C71.9128 0.5 71.9263 0.50523 71.9488 0.526632C71.9836 0.559589 72.0431 0.640554 72.1021 0.816376L72.1025 0.817585L73.5391 5.06792L73.6547 5.4098L74.0155 5.40781L78.7133 5.38193L78.7158 5.3819C78.9164 5.37979 79.0237 5.41095 79.0727 5.4353C79.1057 5.45167 79.109 5.46134 79.1123 5.47081C79.1125 5.47132 79.1126 5.47183 79.1128 5.47235L79.1138 5.47497C79.1147 5.47759 79.1153 5.47956 79.1157 5.48097C79.1147 5.48361 79.1129 5.48804 79.1095 5.49445C79.0889 5.53286 79.0262 5.61251 78.8661 5.72146L78.866 5.72158L75.0368 8.3308L74.719 8.54734L74.8467 8.91007L76.3379 13.1447C76.3978 13.3152 76.3965 13.4067 76.3898 13.4437C76.387 13.4596 76.3833 13.4656 76.382 13.4676C76.3806 13.4698 76.3757 13.4771 76.3606 13.4882C76.3468 13.4977 76.3342 13.5038 76.2943 13.4976C76.2356 13.4884 76.1295 13.4505 75.9694 13.3394L72.1676 10.6992Z" stroke="#D2D2D2"/>
<path d="M93.5513 10.6992L93.2661 10.5011L92.9809 10.6992L89.1791 13.3394C89.1791 13.3394 89.179 13.3395 89.179 13.3395C89.0179 13.4513 88.9133 13.4886 88.856 13.4976C88.8191 13.5034 88.8044 13.4988 88.7859 13.4867C88.7724 13.4764 88.768 13.4698 88.7669 13.468C88.7658 13.4664 88.7624 13.4609 88.7597 13.4458C88.7535 13.4104 88.7523 13.3198 88.8142 13.1499L88.8142 13.1499L88.8162 13.1443L90.302 8.90952L90.4292 8.54709L90.1117 8.3308L86.2825 5.72158L86.2824 5.72146C86.1223 5.61251 86.0596 5.53286 86.039 5.49445C86.0356 5.48804 86.0338 5.48361 86.0328 5.48097C86.0332 5.47956 86.0338 5.47759 86.0347 5.47497L86.0348 5.47497L86.0357 5.47234C86.0358 5.47185 86.036 5.47135 86.0362 5.47082C86.0386 5.46349 86.0421 5.45294 86.077 5.43572C86.1277 5.41069 86.2357 5.37981 86.4327 5.38191L86.4352 5.38192L91.133 5.40781L91.4938 5.4098L91.6094 5.06792L93.046 0.817586L93.0464 0.816375C93.1054 0.640554 93.1649 0.559589 93.1997 0.526632C93.2222 0.50523 93.2357 0.5 93.2661 0.5C93.2964 0.5 93.3099 0.50523 93.3325 0.526632C93.3673 0.559589 93.4268 0.640554 93.4857 0.816376L93.4861 0.817585L94.9228 5.06792L95.0383 5.4098L95.3992 5.40781L100.097 5.38193L100.099 5.3819C100.3 5.37979 100.407 5.41095 100.456 5.4353C100.489 5.45167 100.493 5.46134 100.496 5.47081C100.496 5.47132 100.496 5.47183 100.496 5.47235L100.497 5.47497C100.498 5.47759 100.499 5.47956 100.499 5.48097C100.498 5.48361 100.497 5.48804 100.493 5.49445C100.473 5.53286 100.41 5.61251 100.25 5.72146L100.25 5.72158L96.4204 8.3308L96.1026 8.54734L96.2304 8.91007L97.7216 13.1447C97.7815 13.3152 97.7801 13.4067 97.7735 13.4437C97.7706 13.4596 97.7669 13.4656 97.7657 13.4676C97.7643 13.4698 97.7593 13.4771 97.7442 13.4882C97.7305 13.4977 97.7178 13.5038 97.6779 13.4976C97.6192 13.4884 97.5132 13.4505 97.3531 13.3394L93.5513 10.6992Z" stroke="#D2D2D2"/>
</svg>
