<svg width="101" height="14" viewBox="0 0 101 14" fill="none" xmlns="http://www.w3.org/2000/svg">
<path d="M2.99621 13.8951C3.26117 14.0763 3.58132 14.0194 3.97324 13.7502L7.81514 11.1099L11.657 13.7502C12.049 14.0194 12.3746 14.0763 12.6341 13.8951C12.888 13.7139 12.9487 13.4137 12.7942 12.9788L11.2872 8.74399L15.1567 6.13477C15.5486 5.87074 15.7032 5.59636 15.5983 5.30645C15.4989 5.02689 15.2119 4.87676 14.7151 4.88193L9.96793 4.90782L8.51618 0.657482C8.36714 0.217435 8.1353 0 7.81514 0C7.49498 0 7.26314 0.217435 7.11411 0.657482L5.66235 4.90782L0.915179 4.88193C0.423901 4.87676 0.131343 5.02689 0.0319833 5.30645C-0.0728962 5.59636 0.081663 5.87074 0.473581 6.13477L4.34308 8.74399L2.84165 12.9788C2.68157 13.4137 2.74229 13.7139 2.99621 13.8951Z" fill="#F5921C"/>
<path d="M24.3798 13.8951C24.6447 14.0763 24.9649 14.0194 25.3568 13.7502L29.1987 11.1099L33.0406 13.7502C33.4325 14.0194 33.7582 14.0763 34.0176 13.8951C34.2715 13.7139 34.3323 13.4137 34.1777 12.9788L32.6707 8.74399L36.5402 6.13477C36.9322 5.87074 37.0867 5.59636 36.9818 5.30645C36.8825 5.02689 36.5954 4.87676 36.0987 4.88193L31.3515 4.90782L29.8997 0.657482C29.7507 0.217435 29.5188 0 29.1987 0C28.8785 0 28.6467 0.217435 28.4977 0.657482L27.0459 4.90782L22.2987 4.88193C21.8074 4.87676 21.5149 5.02689 21.4155 5.30645C21.3106 5.59636 21.4652 5.87074 21.8571 6.13477L25.7266 8.74399L24.2252 12.9788C24.0651 13.4137 24.1258 13.7139 24.3798 13.8951Z" fill="#F5921C"/>
<path d="M45.7633 13.8951C46.0283 14.0763 46.3484 14.0194 46.7403 13.7502L50.5822 11.1099L54.4241 13.7502C54.816 14.0194 55.1417 14.0763 55.4012 13.8951C55.6551 13.7139 55.7158 13.4137 55.5612 12.9788L54.0543 8.74399L57.9238 6.13477C58.3157 5.87074 58.4703 5.59636 58.3654 5.30645C58.266 5.02689 57.979 4.87676 57.4822 4.88193L52.735 4.90782L51.2833 0.657482C51.1342 0.217435 50.9024 0 50.5822 0C50.2621 0 50.0302 0.217435 49.8812 0.657482L48.4294 4.90782L43.6823 4.88193C43.191 4.87676 42.8984 5.02689 42.7991 5.30645C42.6942 5.59636 42.8488 5.87074 43.2407 6.13477L47.1102 8.74399L45.6087 12.9788C45.4487 13.4137 45.5094 13.7139 45.7633 13.8951Z" fill="#F5921C"/>
<path d="M72.1676 10.6992L71.8824 10.5011L71.5972 10.6992L67.7954 13.3394C67.7954 13.3394 67.7954 13.3395 67.7953 13.3395C67.6342 13.4513 67.5296 13.4886 67.4723 13.4976C67.4355 13.5034 67.4207 13.4988 67.4023 13.4867C67.3887 13.4764 67.3843 13.4698 67.3832 13.468C67.3822 13.4664 67.3787 13.4609 67.3761 13.4458C67.3699 13.4104 67.3686 13.3198 67.4305 13.1499L67.4306 13.1499L67.4325 13.1443L68.9183 8.90952L69.0455 8.54709L68.7281 8.3308L64.8989 5.72158L64.8987 5.72146C64.7387 5.61251 64.6759 5.53286 64.6553 5.49445C64.6519 5.48804 64.6501 5.48361 64.6492 5.48097C64.6495 5.47956 64.6501 5.47759 64.6511 5.47497L64.6511 5.47497L64.652 5.47234C64.6522 5.47185 64.6523 5.47135 64.6525 5.47082C64.6549 5.46349 64.6584 5.45294 64.6933 5.43572C64.744 5.41069 64.852 5.37981 65.049 5.38191L65.0516 5.38192L69.7493 5.40781L70.1102 5.4098L70.2257 5.06792L71.6624 0.817586L71.6628 0.816375C71.7217 0.640554 71.7812 0.559589 71.816 0.526632C71.8386 0.50523 71.8521 0.5 71.8824 0.5C71.9128 0.5 71.9263 0.50523 71.9488 0.526632C71.9836 0.559589 72.0431 0.640554 72.1021 0.816376L72.1025 0.817585L73.5391 5.06792L73.6547 5.4098L74.0155 5.40781L78.7133 5.38193L78.7158 5.3819C78.9164 5.37979 79.0237 5.41095 79.0727 5.4353C79.1057 5.45167 79.109 5.46134 79.1123 5.47081C79.1125 5.47132 79.1126 5.47183 79.1128 5.47235L79.1138 5.47497C79.1147 5.47759 79.1153 5.47956 79.1157 5.48097C79.1147 5.48361 79.1129 5.48804 79.1095 5.49445C79.0889 5.53286 79.0262 5.61251 78.8661 5.72146L78.866 5.72158L75.0368 8.3308L74.719 8.54734L74.8467 8.91007L76.3379 13.1447C76.3978 13.3152 76.3965 13.4067 76.3898 13.4437C76.387 13.4596 76.3833 13.4656 76.382 13.4676C76.3806 13.4698 76.3757 13.4771 76.3606 13.4882C76.3468 13.4977 76.3342 13.5038 76.2943 13.4976C76.2356 13.4884 76.1295 13.4505 75.9694 13.3394L72.1676 10.6992Z" stroke="#D2D2D2"/>
<path d="M93.5513 10.6992L93.2661 10.5011L92.9809 10.6992L89.1791 13.3394C89.1791 13.3394 89.179 13.3395 89.179 13.3395C89.0179 13.4513 88.9133 13.4886 88.856 13.4976C88.8191 13.5034 88.8044 13.4988 88.7859 13.4867C88.7724 13.4764 88.768 13.4698 88.7669 13.468C88.7658 13.4664 88.7624 13.4609 88.7597 13.4458C88.7535 13.4104 88.7523 13.3198 88.8142 13.1499L88.8142 13.1499L88.8162 13.1443L90.302 8.90952L90.4292 8.54709L90.1117 8.3308L86.2825 5.72158L86.2824 5.72146C86.1223 5.61251 86.0596 5.53286 86.039 5.49445C86.0356 5.48804 86.0338 5.48361 86.0328 5.48097C86.0332 5.47956 86.0338 5.47759 86.0347 5.47497L86.0348 5.47497L86.0357 5.47234C86.0358 5.47185 86.036 5.47135 86.0362 5.47082C86.0386 5.46349 86.0421 5.45294 86.077 5.43572C86.1277 5.41069 86.2357 5.37981 86.4327 5.38191L86.4352 5.38192L91.133 5.40781L91.4938 5.4098L91.6094 5.06792L93.046 0.817586L93.0464 0.816375C93.1054 0.640554 93.1649 0.559589 93.1997 0.526632C93.2222 0.50523 93.2357 0.5 93.2661 0.5C93.2964 0.5 93.3099 0.50523 93.3325 0.526632C93.3673 0.559589 93.4268 0.640554 93.4857 0.816376L93.4861 0.817585L94.9228 5.06792L95.0383 5.4098L95.3992 5.40781L100.097 5.38193L100.099 5.3819C100.3 5.37979 100.407 5.41095 100.456 5.4353C100.489 5.45167 100.493 5.46134 100.496 5.47081C100.496 5.47132 100.496 5.47183 100.496 5.47235L100.497 5.47497C100.498 5.47759 100.499 5.47956 100.499 5.48097C100.498 5.48361 100.497 5.48804 100.493 5.49445C100.473 5.53286 100.41 5.61251 100.25 5.72146L100.25 5.72158L96.4204 8.3308L96.1026 8.54734L96.2304 8.91007L97.7216 13.1447C97.7815 13.3152 97.7801 13.4067 97.7735 13.4437C97.7706 13.4596 97.7669 13.4656 97.7657 13.4676C97.7643 13.4698 97.7593 13.4771 97.7442 13.4882C97.7305 13.4977 97.7178 13.5038 97.6779 13.4976C97.6192 13.4884 97.5132 13.4505 97.3531 13.3394L93.5513 10.6992Z" stroke="#D2D2D2"/>
</svg>
