<svg width="101" height="14" viewBox="0 0 101 14" fill="none" xmlns="http://www.w3.org/2000/svg">
<path d="M2.99621 13.8951C3.26117 14.0763 3.58132 14.0194 3.97324 13.7502L7.81514 11.1099L11.657 13.7502C12.049 14.0194 12.3746 14.0763 12.6341 13.8951C12.888 13.7139 12.9487 13.4137 12.7942 12.9788L11.2872 8.74399L15.1567 6.13477C15.5486 5.87074 15.7032 5.59636 15.5983 5.30645C15.4989 5.02689 15.2119 4.87676 14.7151 4.88193L9.96793 4.90782L8.51618 0.657482C8.36714 0.217435 8.1353 0 7.81514 0C7.49498 0 7.26314 0.217435 7.11411 0.657482L5.66235 4.90782L0.915179 4.88193C0.423901 4.87676 0.131343 5.02689 0.0319833 5.30645C-0.0728962 5.59636 0.081663 5.87074 0.473581 6.13477L4.34308 8.74399L2.84165 12.9788C2.68157 13.4137 2.74229 13.7139 2.99621 13.8951Z" fill="#F5921C"/>
<path d="M24.3798 13.8951C24.6447 14.0763 24.9649 14.0194 25.3568 13.7502L29.1987 11.1099L33.0406 13.7502C33.4325 14.0194 33.7582 14.0763 34.0176 13.8951C34.2715 13.7139 34.3323 13.4137 34.1777 12.9788L32.6707 8.74399L36.5402 6.13477C36.9322 5.87074 37.0867 5.59636 36.9818 5.30645C36.8825 5.02689 36.5954 4.87676 36.0987 4.88193L31.3515 4.90782L29.8997 0.657482C29.7507 0.217435 29.5188 0 29.1987 0C28.8785 0 28.6467 0.217435 28.4977 0.657482L27.0459 4.90782L22.2987 4.88193C21.8074 4.87676 21.5149 5.02689 21.4155 5.30645C21.3106 5.59636 21.4652 5.87074 21.8571 6.13477L25.7266 8.74399L24.2252 12.9788C24.0651 13.4137 24.1258 13.7139 24.3798 13.8951Z" fill="#F5921C"/>
<path d="M45.7633 13.8951C46.0283 14.0763 46.3484 14.0194 46.7403 13.7502L50.5822 11.1099L54.4241 13.7502C54.816 14.0194 55.1417 14.0763 55.4012 13.8951C55.6551 13.7139 55.7158 13.4137 55.5612 12.9788L54.0543 8.74399L57.9238 6.13477C58.3157 5.87074 58.4703 5.59636 58.3654 5.30645C58.266 5.02689 57.979 4.87676 57.4822 4.88193L52.735 4.90782L51.2833 0.657482C51.1342 0.217435 50.9024 0 50.5822 0C50.2621 0 50.0302 0.217435 49.8812 0.657482L48.4294 4.90782L43.6823 4.88193C43.191 4.87676 42.8984 5.02689 42.7991 5.30645C42.6942 5.59636 42.8488 5.87074 43.2407 6.13477L47.1102 8.74399L45.6087 12.9788C45.4487 13.4137 45.5094 13.7139 45.7633 13.8951Z" fill="#F5921C"/>
<path d="M67.1137 13.8951C67.3759 14.0763 67.6927 14.0194 68.0805 13.7502L71.8824 11.1099L75.6843 13.7502C76.0721 14.0194 76.3944 14.0763 76.6512 13.8951C76.9024 13.7139 76.9625 13.4137 76.8096 12.9788L75.3183 8.74399L79.1475 6.13477C79.5353 5.87074 79.6883 5.59636 79.5845 5.30645C79.4862 5.02689 79.2021 4.87676 78.7105 4.88193L74.0128 4.90782L72.5761 0.657482C72.4287 0.217435 72.1992 0 71.8824 0C71.5656 0 71.3362 0.217435 71.1887 0.657482L69.7521 4.90782L65.0543 4.88193C64.5682 4.87676 64.2787 5.02689 64.1803 5.30645C64.0765 5.59636 64.2295 5.87074 64.6173 6.13477L68.4465 8.74399L66.9607 12.9788C66.8023 13.4137 66.8624 13.7139 67.1137 13.8951Z" fill="#F5921C"/>
<path d="M88.4973 13.8951C88.7595 14.0763 89.0764 14.0194 89.4642 13.7502L93.2661 11.1099L97.068 13.7502C97.4558 14.0194 97.7781 14.0763 98.0348 13.8951C98.2861 13.7139 98.3462 13.4137 98.1932 12.9788L96.702 8.74399L100.531 6.13477C100.919 5.87074 101.072 5.59636 100.968 5.30645C100.87 5.02689 100.586 4.87676 100.094 4.88193L95.3964 4.90782L93.9598 0.657482C93.8123 0.217435 93.5829 0 93.2661 0C92.9493 0 92.7198 0.217435 92.5723 0.657482L91.1357 4.90782L86.438 4.88193C85.9518 4.87676 85.6623 5.02689 85.564 5.30645C85.4602 5.59636 85.6132 5.87074 86.001 6.13477L89.8302 8.74399L88.3444 12.9788C88.186 13.4137 88.2461 13.7139 88.4973 13.8951Z" fill="#F5921C"/>
</svg>
