<svg width="46" height="27" viewBox="0 0 46 27" fill="none" xmlns="http://www.w3.org/2000/svg">
<path d="M24.2607 26.6842H1.99959C1.41575 26.6842 0.942383 26.2108 0.942383 25.6271V1.46312C0.942383 0.879224 1.41575 0.405907 1.99959 0.405907H37.4098C37.4098 0.405907 39.9595 6.42416 36.0405 15.448C31.4494 26.0197 24.2607 26.6842 24.2607 26.6842Z" fill="#414E5D"/>
<path fill-rule="evenodd" clip-rule="evenodd" d="M27.7038 26.2289H27.7038C27.9364 26.1178 28.1991 25.9824 28.4869 25.8191C29.0709 25.4878 29.7584 25.0405 30.5084 24.4442C30.7251 24.2719 30.9471 24.0867 31.1732 23.8887C31.9051 23.2477 32.6812 22.4672 33.4678 21.5212H33.4678V21.5212C33.7855 21.139 34.1049 20.73 34.4238 20.2919H34.4239V20.2918C34.8454 19.7127 35.2659 19.0822 35.6805 18.3979H35.6805V18.3978C35.9694 17.9211 36.2552 17.4176 36.5364 16.8863V16.8863C36.5522 16.8566 36.568 16.8277 36.5837 16.7978C36.6049 16.7575 36.6248 16.7172 36.6457 16.6769V16.6769C37.3709 15.2748 37.8997 13.885 38.2756 12.5429C38.418 12.0346 38.5385 11.5332 38.6399 11.0404V11.0403C38.9308 9.6266 39.0626 8.2854 39.0952 7.06119V7.06083C39.1262 5.89396 39.0668 4.83402 38.9677 3.91992V3.91967H38.9677C38.7327 1.75226 38.2751 0.405905 38.2751 0.405905C38.2751 0.405905 38.4023 0.375697 38.6109 0.368423H38.7908C38.973 0.374637 39.1927 0.401005 39.4321 0.468138V0.468592H39.4336C39.4632 0.476876 39.493 0.485717 39.5231 0.495365V0.49587H39.5248C39.5333 0.498598 39.5419 0.501477 39.5505 0.504306V0.505013H39.5525C39.5609 0.507791 39.5693 0.510469 39.5778 0.513348V0.514105H39.5799C39.5883 0.516985 39.5967 0.520066 39.6051 0.523046V0.523198H39.6055C39.6295 0.531685 39.6537 0.540626 39.678 0.550021V0.550526H39.6793C39.694 0.556183 39.7087 0.562094 39.7235 0.568155V0.568711H39.7249C39.7786 0.590635 39.8328 0.61468 39.8874 0.641301V0.641603H39.888L39.9056 0.650342V0.650696H39.9063L39.9238 0.659384V0.659788H39.9246L39.9421 0.668578V0.668881H39.9427C39.9757 0.685905 40.0089 0.704039 40.0422 0.722931V0.723537H40.0433C40.0974 0.7543 40.1517 0.787538 40.2061 0.823504V0.823707H40.2063L40.2334 0.841842V0.841892H40.2336C40.279 0.872756 40.3245 0.905388 40.37 0.940192V0.942061H40.3725C40.3839 0.950749 40.3951 0.959842 40.4064 0.968732V0.96939H40.4072C40.4404 0.995657 40.4736 1.02278 40.5066 1.05132V1.05137H40.5066L40.5157 1.05931V1.06042H40.517L40.5248 1.06734V1.06956H40.5273C40.5508 1.09017 40.5742 1.11143 40.5976 1.13321V1.13331H40.5977C40.6343 1.1674 40.6707 1.20302 40.7069 1.24009V1.24257H40.7093L40.716 1.24949V1.25166H40.7182L40.7251 1.25889V1.26075H40.7269L40.7342 1.26828V1.26985H40.7358L40.7433 1.27768V1.27899H40.7446L40.7525 1.28738V1.28808H40.7531C40.7803 1.31718 40.8074 1.34734 40.8344 1.3782V1.37916H40.8352C40.8502 1.39623 40.8651 1.41351 40.88 1.43119V1.43377H40.8821L40.889 1.4422V1.44291H40.8896C40.923 1.48302 40.9563 1.52439 40.9892 1.56748V1.57036H40.9913C40.9998 1.58147 41.0082 1.59288 41.0165 1.60415V1.60678H41.0185C41.0269 1.61814 41.0354 1.62926 41.0438 1.64082V1.6432H41.0456C41.0542 1.65502 41.0626 1.66734 41.0711 1.67937V1.67962H41.0713C41.1019 1.72281 41.1323 1.76701 41.1622 1.81298V1.81621H41.1643C41.1697 1.82454 41.1751 1.83323 41.1804 1.84167V1.84354H41.1816L41.1986 1.87031V1.87086H41.199C41.2265 1.91461 41.2537 1.95947 41.2806 2.00569V2.00745H41.2816C41.2935 2.02786 41.3053 2.04857 41.317 2.06954V2.0712H41.318L41.3261 2.0855V2.08939H41.3282C41.3397 2.1102 41.3511 2.13162 41.3625 2.15294V2.15314H41.3626L41.3717 2.16981V2.17132H41.3725C41.3968 2.21734 41.4208 2.26462 41.4445 2.31291V2.31706H41.4465L41.4536 2.33175V2.33524H41.4553L41.4627 2.35065V2.35348H41.4641L41.4718 2.36944V2.37166H41.4729L41.4809 2.38828V2.3899H41.4817L41.49 2.40793V2.40808H41.4901C41.5054 2.44092 41.5206 2.4741 41.5355 2.508V2.50825H41.5357C41.5448 2.52901 41.5538 2.55033 41.5628 2.57144V2.572H41.5631C41.5691 2.58594 41.5751 2.59963 41.5811 2.61378V2.61751H41.5827C41.5883 2.6309 41.5937 2.64479 41.5993 2.65833V2.66308H41.6012L41.6084 2.68076V2.68126H41.6086C41.6146 2.69611 41.6207 2.71066 41.6266 2.72566V2.72683H41.6271C41.6423 2.76532 41.6573 2.80447 41.6722 2.84417V2.84518H41.6725C41.6847 2.87786 41.6967 2.9112 41.7086 2.94474V2.94535H41.7088L41.7176 2.97005V2.97268H41.7186L41.7268 2.99617V3.00001H41.728L41.7359 3.02319V3.02728H41.7372L41.745 3.05022V3.05461H41.7465C41.7614 3.09906 41.7761 3.14427 41.7905 3.19014V3.1912H41.7909C41.7999 3.2201 41.809 3.24904 41.8178 3.27854V3.28228H41.819L41.8269 3.30941V3.30956H41.827L41.836 3.34027V3.34603H41.8377L41.8451 3.37108V3.37331H41.8458L41.8543 3.40296V3.40973H41.8561L41.8634 3.43604V3.43705H41.8637C41.8759 3.48115 41.888 3.52586 41.8998 3.57122V3.57364H41.9004L41.9089 3.60678V3.61007H41.9097L41.918 3.64234V3.64649H41.9191C41.9217 3.65704 41.9245 3.66725 41.9271 3.67785V3.68291H41.9283C41.931 3.69387 41.9335 3.70513 41.9362 3.7162V3.71933H41.937L41.9453 3.75448V3.7558H41.9456C41.9516 3.7809 41.9577 3.80571 41.9635 3.83117V3.83773H41.9649C41.9676 3.8492 41.97 3.86107 41.9726 3.87264V3.87415H41.973C41.979 3.90108 41.985 3.92815 41.9909 3.95553V3.95609H41.991L41.9999 3.99796V4.00165H42.0007C42.0035 4.01519 42.0063 4.02918 42.009 4.04282V4.04711H42.0099L42.0181 4.08783V4.09268H42.0191C42.0218 4.10611 42.0247 4.1193 42.0273 4.13284V4.13819H42.0283C42.0311 4.15218 42.0337 4.16653 42.0364 4.18062V4.18375H42.0369L42.0455 4.22957V4.23836H42.0471L42.0546 4.27857V4.28392H42.0556L42.0637 4.32913V4.32944H42.0637C42.07 4.3648 42.0759 4.40076 42.0819 4.43678V4.4387H42.0822C42.0852 4.45623 42.0881 4.47355 42.091 4.49123V4.50245H42.0927C42.0953 4.51826 42.0976 4.53457 42.1001 4.55054V4.55705H42.1011L42.1092 4.60979V4.6208H42.1109L42.1183 4.67041V4.67546H42.119C42.1219 4.69536 42.1246 4.71587 42.1274 4.73602V4.73921H42.1279L42.1365 4.80179V4.8029H42.1367C42.1382 4.81417 42.1399 4.82523 42.1413 4.8366C42.6196 8.48584 41.8075 11.9776 40.6978 14.8102V14.8103C40.1825 16.1255 39.6032 17.2989 39.0588 18.2795C38.3772 19.5071 37.7512 20.4315 37.3742 20.9566H37.3742V20.9567C37.3204 21.0316 37.2717 21.0985 37.2285 21.1569H37.2285V21.157C37.0874 21.3482 37.0066 21.4493 37.0066 21.4493C37.0066 21.4493 38.8181 21.0954 41.8393 14.3814C43.4705 10.7569 43.4705 5.80324 43.4705 5.80324C43.4705 5.80324 43.6085 5.89113 43.812 6.08657V6.08687H43.8123C43.8468 6.12006 43.8833 6.15648 43.9212 6.19598V6.19613H43.9214C43.9566 6.23271 43.993 6.27201 44.0305 6.31419V6.31449H44.0308C44.0663 6.35445 44.1026 6.39662 44.1398 6.44173V6.44199H44.14C44.152 6.45648 44.1641 6.47154 44.1762 6.48664V6.4875H44.177C44.1888 6.50225 44.2007 6.51735 44.2127 6.53261V6.53306H44.213C44.2489 6.57893 44.2853 6.62677 44.3219 6.67743V6.6787H44.3228C44.3798 6.75745 44.4374 6.84236 44.4949 6.93303V6.93369H44.4953C44.5104 6.95743 44.5254 6.98173 44.5405 7.00628V7.00653H44.5406C44.5497 7.02133 44.5587 7.03588 44.5678 7.05098V7.05205H44.5684C44.5773 7.06695 44.5862 7.0823 44.5951 7.09751V7.09761H44.5952C44.6226 7.14454 44.6499 7.19298 44.677 7.24279V7.24329H44.6773L44.6861 7.25941V7.26148H44.6873C44.7395 7.35821 44.7909 7.4603 44.841 7.568V7.57108H44.8423L44.8501 7.58795V7.58931H44.8507C44.8658 7.6221 44.8808 7.65508 44.8956 7.68893V7.68948H44.8958C44.905 7.71029 44.9139 7.73156 44.9229 7.75278V7.75323H44.9231C44.9291 7.76733 44.9352 7.78106 44.9411 7.79541V7.79875H44.9425C44.9669 7.85744 44.9906 7.91801 45.014 7.97964V7.98085H45.0144C45.0235 8.00479 45.0324 8.02904 45.0413 8.05344V8.05369H45.0414C45.0443 8.06187 45.0474 8.0698 45.0504 8.07804V8.08102H45.0515L45.0595 8.10324V8.10835H45.0613C45.089 8.18674 45.1156 8.26797 45.1414 8.35097V8.3542H45.1424L45.1506 8.37996V8.38153H45.1511C45.157 8.40107 45.1629 8.42073 45.1687 8.44053V8.44522H45.1701L45.1778 8.47225V8.47255H45.1779C45.1841 8.49352 45.1901 8.51448 45.1961 8.5357V8.5363H45.1963C45.2087 8.5807 45.2207 8.62596 45.2325 8.67163V8.67289H45.2329L45.2416 8.70653V8.70931H45.2423C45.2451 8.72017 45.248 8.73063 45.2507 8.74154V8.74573H45.2518C45.2546 8.757 45.2571 8.76872 45.2598 8.77998V8.78216H45.2603C45.276 8.84727 45.291 8.91379 45.3053 8.98138V8.98249H45.3056C45.3086 8.99669 45.3115 9.01103 45.3145 9.02528V9.02801H45.315C45.3178 9.04175 45.3208 9.05523 45.3235 9.06907V9.07357H45.3245C45.3272 9.08706 45.33 9.10029 45.3327 9.11388V9.11908H45.3336C45.3365 9.13383 45.339 9.14914 45.3418 9.16399V9.16465H45.3419C45.3449 9.18101 45.3479 9.19758 45.3509 9.21415V9.21925H45.3518C45.3545 9.23431 45.3574 9.24905 45.36 9.26421V9.26476H45.3601C45.3697 9.32028 45.3787 9.37681 45.3873 9.43389V9.43778H45.3879C45.3907 9.45611 45.3937 9.47389 45.3964 9.49238V9.50152H45.3976C45.4004 9.52128 45.4028 9.54168 45.4055 9.56164V9.56527H45.406C45.4158 9.63822 45.4247 9.71252 45.4328 9.78794V9.79289H45.4333C45.4362 9.81976 45.4393 9.84638 45.4419 9.87356V9.89306H45.444C45.4466 9.92044 45.4486 9.94863 45.451 9.97631V9.99323H45.4524C45.459 10.0719 45.4646 10.1519 45.4693 10.2333V10.2573H45.4707C45.4738 10.3138 45.4762 10.3711 45.4783 10.4289V10.4577H45.4794C45.4865 10.6734 45.4867 10.8979 45.4791 11.1315H45.4783V11.1516C45.4764 11.2082 45.4743 11.265 45.4714 11.3227H45.4693V11.3603C45.4665 11.4112 45.4639 11.4622 45.4604 11.5139H45.4602V11.5179C45.4576 11.5556 45.4544 11.5941 45.4514 11.6323H45.451V11.6368C45.4486 11.6686 45.4461 11.7004 45.4433 11.7324H45.4419V11.7501C45.4396 11.7775 45.4371 11.805 45.4346 11.8326H45.4328V11.8494C45.4305 11.874 45.4278 11.8989 45.4253 11.9237H45.4237V11.9387C45.4208 11.9671 45.4182 11.9952 45.415 12.0238H45.4146V12.0279C45.4118 12.0538 45.4088 12.0798 45.4058 12.1058H45.4055V12.1079C45.4028 12.1313 45.3996 12.1551 45.3968 12.1786H45.3964V12.1813L45.3888 12.2424H45.3873V12.2549C45.3847 12.2751 45.3825 12.2949 45.3798 12.3152H45.3782V12.3285C45.376 12.3452 45.3734 12.3622 45.3711 12.379H45.3691V12.3928C45.3668 12.4093 45.3642 12.4261 45.3618 12.4427H45.36V12.4553L45.3513 12.5155H45.3509V12.5181C45.3479 12.5385 45.3451 12.5587 45.342 12.5793H45.3418V12.5808C45.3336 12.6344 45.3245 12.6889 45.3156 12.7432H45.3145V12.7499L45.3065 12.7978H45.3053V12.8047C45.3027 12.8207 45.3001 12.8364 45.2974 12.8525H45.2962V12.8595C45.294 12.8724 45.2922 12.885 45.2898 12.898H45.2871V12.9135C45.2848 12.9264 45.2821 12.9397 45.2798 12.9526H45.2781V12.962C45.2753 12.977 45.2724 12.9923 45.2696 13.0073H45.2689V13.0107L45.261 13.0528H45.2598V13.0593L45.2508 13.1074H45.2507V13.108C45.2393 13.1681 45.2273 13.2286 45.2149 13.2895H45.2143V13.2927L45.2055 13.3351H45.2052V13.3365C45.1997 13.3633 45.1942 13.3901 45.1884 13.417H45.187V13.424C45.1843 13.4369 45.1818 13.4496 45.179 13.4625H45.1778V13.4679C45.1756 13.4783 45.1737 13.4885 45.1714 13.499H45.1687V13.5112C45.1664 13.5221 45.1635 13.5335 45.1611 13.5445H45.1597V13.5511C45.1575 13.5609 45.155 13.571 45.1528 13.5809H45.1506V13.5909L45.1424 13.6265H45.1414V13.6308L45.1237 13.7084H45.1232V13.7106C45.1088 13.7732 45.0938 13.8361 45.0784 13.8996H45.0777V13.9024L45.0693 13.9361H45.0686V13.939L45.0603 13.9725H45.0595V13.9757L45.0513 14.0089H45.0504V14.0124L45.0422 14.0453H45.0413V14.0491L45.0331 14.0817H45.0322V14.0856C45.0294 14.0966 45.0269 14.1073 45.0241 14.1182H45.0231V14.1224L45.0146 14.1546H45.014V14.1571L45.0073 14.1819H45.0048V14.1911L44.9976 14.2183H44.9957V14.225L44.9878 14.2548H44.9866V14.2589L44.978 14.2912H44.9776V14.2928C44.9655 14.3378 44.9539 14.3824 44.9413 14.4278H44.9411V14.4286C44.9296 14.4704 44.9172 14.513 44.9052 14.5553H44.9047V14.557C44.8989 14.5776 44.8928 14.5983 44.8869 14.619H44.8865V14.6203L44.879 14.6463H44.8774V14.6519L44.8685 14.6827H44.8683V14.6835L44.8607 14.71H44.8591V14.7152L44.8528 14.7374H44.8501V14.7468L44.8423 14.7738H44.841V14.7785L44.8342 14.8011H44.8318V14.8088C44.829 14.8183 44.8259 14.828 44.823 14.8375H44.8227V14.8384L44.8146 14.8648H44.8136V14.868L44.8062 14.8922H44.8045V14.8976C44.7987 14.917 44.7926 14.9365 44.7866 14.9559H44.7863V14.9568L44.7782 14.9832H44.7772V14.9865C44.7682 15.0158 44.7594 15.0448 44.7502 15.0743H44.7499V15.0755C44.7237 15.1591 44.6958 15.2442 44.6681 15.3292H44.668V15.3295L44.6591 15.3566H44.6589V15.3574L44.6502 15.3839H44.6497V15.3853L44.6413 15.4112H44.6406V15.4132L44.6323 15.4385H44.6315V15.4411L44.6235 15.4658H44.6224V15.4689L44.6142 15.4932H44.6133V15.4957L44.6048 15.5204H44.6042V15.5221L44.5953 15.5478H44.5951V15.5485C44.5687 15.6265 44.5413 15.7053 44.5135 15.7845H44.5131V15.7857L44.5041 15.8118H44.504V15.8121L44.4974 15.8312C44.4877 15.8585 44.4776 15.8849 44.4678 15.912H44.4676V15.9125C44.4589 15.9368 44.4499 15.9607 44.4411 15.9849H44.4403V15.9871L44.4244 16.0304H44.4221V16.0368L44.4144 16.0577H44.413V16.0616L44.4044 16.085H44.4039V16.0864L44.3978 16.1032H44.3948V16.1113L44.3877 16.1305H44.3856V16.1362C44.383 16.1433 44.3804 16.1507 44.3777 16.1579H44.3766V16.161L44.371 16.1761H44.3674V16.1854L44.3604 16.2034H44.3584V16.2087L44.3498 16.2307H44.3492V16.2321L44.3426 16.2489H44.3401V16.2555L44.332 16.2762H44.331V16.2787L44.3143 16.3218H44.3128V16.3254L44.2858 16.3946H44.2855V16.3954L44.268 16.4401H44.2673V16.4421C44.2494 16.4872 44.2314 16.5321 44.2133 16.5767H44.2127V16.5782C44.198 16.6145 44.1829 16.6501 44.168 16.686H44.1671V16.6882L44.1492 16.7316H44.1489V16.7322L44.1416 16.7497H44.1398V16.7541C44.1341 16.7678 44.1285 16.7817 44.1228 16.7953H44.1216V16.7981L44.1152 16.8135H44.1125V16.8201L44.1039 16.8408H44.1034V16.8421L44.096 16.859H44.0943V16.863L44.0881 16.8772H44.0852V16.8837C44.0795 16.8968 44.0738 16.9097 44.068 16.9228H44.0669V16.9252L44.0601 16.941H44.0578V16.946L44.0401 16.9865H44.0397V16.9875L44.0321 17.0047H44.0305V17.0083C44.0217 17.0283 44.013 17.0485 44.0041 17.0684H44.0032V17.0705C43.9941 17.091 43.9853 17.1118 43.9762 17.1322H43.9759V17.1328C43.9609 17.1662 43.9457 17.1992 43.9305 17.2324H43.9303V17.2328L43.9221 17.2505H43.9212V17.2524C43.9034 17.2915 43.8853 17.3302 43.8672 17.3689H43.8666V17.3702L43.8588 17.3871H43.8575V17.3898L43.8503 17.4054H43.8484V17.4095L43.8419 17.4236H43.8393V17.4291L43.8334 17.4418H43.8302V17.4487C43.8242 17.4615 43.8182 17.4746 43.8121 17.4873H43.812V17.4876L43.8032 17.5055H43.8029V17.5061L43.7943 17.5238H43.7938V17.5247L43.7854 17.542H43.7847V17.5433L43.7764 17.5602H43.7756V17.562L43.7675 17.5784H43.7665V17.5806L43.7586 17.5966H43.7574V17.5991L43.7497 17.6148H43.7482V17.6178L43.7408 17.633H43.7391V17.6364C43.6945 17.7274 43.6495 17.8174 43.6039 17.9062H43.6026V17.9088L43.5945 17.9244H43.5935V17.9264L43.5851 17.9426H43.5844V17.9441L43.5757 17.9608H43.5752V17.9618L43.5663 17.979H43.5661V17.9795C43.552 18.0065 43.5383 18.0341 43.5241 18.061H43.5206V18.0678L43.5147 18.0792H43.5115V18.0852L43.5049 18.0974H43.5024V18.102L43.495 18.1156H43.4933V18.1188L43.4852 18.1338H43.4842V18.1356L43.4753 18.152H43.4751V18.1524C43.4637 18.1737 43.4522 18.1946 43.4407 18.2158H43.4386V18.2197L43.4309 18.234H43.4295V18.2364L43.421 18.2522H43.4205V18.2532C43.3873 18.314 43.3541 18.3746 43.3205 18.4343H43.3203V18.4347C43.3083 18.456 43.2962 18.4769 43.2842 18.4981H43.2839V18.4987L43.2583 18.5436H43.2565V18.5467L43.2479 18.5618H43.2474V18.5627C43.239 18.5775 43.2306 18.5926 43.222 18.6073H43.2201V18.6107L43.2117 18.6255H43.211V18.6267L43.196 18.6529H43.1928V18.6583L43.1852 18.6711H43.1837V18.6735C43.1752 18.688 43.1665 18.7021 43.158 18.7166H43.1564V18.7193L43.1308 18.7621H43.129V18.7651L43.0928 18.8259H43.0926V18.8261C43.0836 18.8411 43.0746 18.8564 43.0656 18.8714H43.0653V18.8718C43.0413 18.9114 43.0172 18.9507 42.9931 18.9898H42.9925V18.9907C42.9776 19.0148 42.9625 19.0386 42.9475 19.0626H42.9469V19.0635L42.9304 19.0899H42.9288V19.0926L42.9133 19.1172H42.9105V19.1218L42.902 19.1355H42.9014V19.1363C42.8959 19.1451 42.8904 19.1541 42.8849 19.1628H42.8832V19.1655L42.8677 19.1901H42.865V19.1943C42.86 19.2021 42.8548 19.2096 42.8498 19.2174H42.8468V19.2221L42.8379 19.2356H42.8377V19.236C42.8318 19.2451 42.8259 19.2539 42.82 19.2629H42.8195V19.2639L42.8022 19.2903H42.8013V19.2917L42.7843 19.3176H42.783V19.3196C42.7352 19.3927 42.6871 19.4649 42.6387 19.5361H42.6373V19.5381L42.62 19.5634H42.6191V19.5648L42.6014 19.5908H42.6009V19.5914L42.5827 19.6181H42.5827C42.5744 19.6302 42.5662 19.6425 42.5578 19.6545H42.5554V19.658C42.5499 19.6659 42.5446 19.674 42.5391 19.6818H42.5372V19.6847L42.52 19.7091H42.519V19.7106C42.5107 19.7224 42.5023 19.7338 42.494 19.7455H42.4917V19.7489L42.4745 19.7729H42.4734V19.7744C42.4587 19.7952 42.4439 19.816 42.4291 19.8366H42.4279V19.8383C42.3977 19.8804 42.3676 19.9227 42.3373 19.9641H42.3368V19.9647C42.328 19.9768 42.319 19.9885 42.3102 20.0005H42.3095V20.0013L42.283 20.0369H42.2822V20.0381L42.256 20.0734H42.2549V20.0748L42.2288 20.1098H42.2276V20.1115C42.2189 20.123 42.2104 20.1347 42.2017 20.1462H42.2003V20.1482L42.1742 20.1826H42.173V20.1843C42.164 20.1961 42.1549 20.2074 42.146 20.2191H42.1456V20.2195L42.1389 20.2282H42.1365V20.2313L42.1107 20.2646H42.1092V20.2665L42.0824 20.301H42.0819V20.3017C42.0367 20.3598 41.9913 20.4173 41.9458 20.474H41.9453V20.4747L41.9091 20.5195H41.9089V20.5198L41.9017 20.5287H41.8998V20.5311C41.8882 20.5454 41.8766 20.56 41.865 20.5742H41.8634V20.5762C41.8516 20.5905 41.8399 20.6054 41.8282 20.6197H41.8269V20.6211L41.8205 20.6288H41.8178V20.632C41.806 20.6463 41.7941 20.6601 41.7822 20.6743H41.7814V20.6753L41.7746 20.6834H41.7723V20.6862L41.7363 20.729H41.7359V20.7295C41.7207 20.7476 41.7056 20.7658 41.6904 20.7836H41.6903V20.7837C41.6512 20.8298 41.6119 20.8751 41.5727 20.9202H41.5719V20.921C41.551 20.9451 41.53 20.9692 41.509 20.993H41.5082V20.9939L41.5011 21.0022H41.4991V21.0044C41.4781 21.0281 41.4572 21.0516 41.4362 21.075H41.4354V21.0759L41.4279 21.0841H41.4263V21.0859L41.4196 21.0932H41.4172V21.0959C41.396 21.1195 41.3747 21.1428 41.3535 21.1661H41.3534L41.3452 21.1751H41.3443V21.1761C41.311 21.2125 41.2777 21.2487 41.2444 21.2844H41.2442V21.2846L41.2357 21.2935H41.2351V21.2943C41.1805 21.3525 41.126 21.4101 41.0713 21.4665H41.0711V21.4667L41.0624 21.4756H41.0621V21.476L41.0535 21.4848H41.053V21.4853L41.0446 21.4939H41.0438V21.4946L41.0356 21.503H41.0347V21.5039L41.0267 21.5121H41.0256V21.5132L41.0178 21.5212H41.0165V21.5225L41.0089 21.5303H41.0074V21.5318C40.9443 21.5962 40.8811 21.6595 40.8178 21.7215H40.8162V21.7232L40.8086 21.7306H40.8071V21.7321L40.7993 21.7397H40.798V21.741L40.7901 21.7488H40.7889V21.75L40.7808 21.7579H40.7797V21.759L40.7715 21.7671H40.7707V21.7679L40.7623 21.7761H40.7615V21.7769L40.7531 21.7852H40.7525V21.7859L40.7438 21.7943H40.7433V21.7948L40.7344 21.8035H40.7342V21.8036C40.6435 21.8911 40.5529 21.9756 40.4624 22.0584H40.461V22.0596L40.4524 22.0676H40.4519V22.068C40.4256 22.0921 40.3992 22.1167 40.3728 22.1404H40.37V22.1429L40.3625 22.1495H40.3609V22.1509L40.3522 22.1586H40.3518V22.1589C40.3279 22.1804 40.304 22.2012 40.28 22.2223H40.2789V22.2233C40.2305 22.2661 40.1821 22.3083 40.1338 22.3498H40.1332V22.3503L40.0804 22.3954H40.0786V22.3969L40.0698 22.4044H40.0695V22.4046C40.0518 22.4197 40.0341 22.4352 40.0164 22.45H40.0149V22.4513C39.997 22.4663 39.9792 22.4807 39.9613 22.4955H39.9602V22.4964C39.9422 22.5114 39.9241 22.5262 39.9061 22.541H39.9056V22.5414C39.8723 22.5688 39.839 22.5962 39.8058 22.623H39.8054V22.6233C39.7903 22.6355 39.7752 22.6473 39.7601 22.6594H39.7599V22.6595C39.7332 22.6808 39.7066 22.7023 39.68 22.7231H39.678V22.7248L39.6337 22.7596H39.6324V22.7605C39.6209 22.7695 39.6096 22.778 39.5982 22.7869H39.596V22.7886L39.5509 22.8233H39.5505V22.8236C39.49 22.87 39.4298 22.9154 39.3699 22.9599H39.3684V22.9611L39.3332 22.9872H39.3319V22.9881C39.3202 22.9968 39.3082 23.0059 39.2964 23.0146H39.2955V23.0152C39.2747 23.0305 39.254 23.045 39.2332 23.0601H39.2318V23.0611C39.1677 23.1074 39.104 23.1526 39.0407 23.1967H39.0406V23.1967L39.0145 23.2149H39.0132V23.2158C38.9736 23.2432 38.9342 23.2703 38.8949 23.2968H38.8948V23.2969L38.8679 23.315H38.8675V23.3153L38.8408 23.3332H38.8402V23.3337C38.8037 23.3582 38.7673 23.3823 38.7311 23.4061H38.7309V23.4062C38.6888 23.4338 38.6468 23.4614 38.6052 23.488H38.6035V23.4891C38.5943 23.495 38.5853 23.5004 38.5763 23.5063H38.5762V23.5064C38.552 23.5217 38.5281 23.5367 38.5041 23.5518H38.5033V23.5522C38.4235 23.6023 38.3446 23.6509 38.2669 23.6975H38.2666V23.6976C38.1929 23.7418 38.1205 23.7839 38.0487 23.825H38.048V23.8254C38.027 23.8374 38.0059 23.8496 37.985 23.8614H37.9843V23.8618C37.9572 23.8771 37.9303 23.892 37.9035 23.9069H37.9023V23.9075C37.8348 23.9451 37.7682 23.9813 37.7028 24.0162H37.702V24.0166L37.6858 24.0253H37.6838V24.0264C37.6128 24.064 37.5432 24.1 37.475 24.1346H37.4743V24.1349L37.4569 24.1436H37.4562V24.1441L37.4388 24.1528H37.4379V24.1532L37.4206 24.1619H37.4197V24.1623L37.4026 24.171H37.4015V24.1715L37.3844 24.1801H37.3833V24.1806L37.3661 24.1892H37.3651V24.1897L37.3474 24.1983H37.3469V24.1986L37.3288 24.2074H37.3287V24.2074C37.2638 24.2392 37.2005 24.2695 37.1387 24.2985H37.1374V24.2991L37.1194 24.3076H37.1192V24.3076C36.9384 24.3919 36.771 24.4645 36.62 24.5261H36.6184V24.5267C36.4984 24.5757 36.3893 24.6175 36.291 24.6536H36.2906V24.6537C36.1513 24.7049 36.0347 24.7439 35.9454 24.772H35.9446V24.7722C35.8108 24.8143 35.738 24.8323 35.738 24.8323C35.738 24.8323 39.1813 24.2886 40.9332 23.02C42.6339 21.7885 44.0446 19.0038 44.3674 18.3342V18.3341C44.413 18.2397 44.4369 18.1872 44.4369 18.1872C44.4369 18.1872 44.4677 18.2317 44.5131 18.3159V18.3159H44.5132C44.5606 18.4038 44.6241 18.5352 44.6861 18.7061V18.7075H44.6866C44.7285 18.8229 44.7696 18.9562 44.8045 19.1062V19.1081H44.8049C44.8144 19.149 44.8234 19.1913 44.8318 19.2346V19.2356H44.832C44.8553 19.3549 44.8742 19.4832 44.8865 19.62V19.6272H44.887C44.8905 19.6666 44.8933 19.7069 44.8956 19.7479V19.7547H44.896C44.9032 19.8872 44.9039 20.0269 44.8964 20.1735H44.8956V20.191C44.8918 20.2596 44.8861 20.3297 44.8784 20.4012H44.8774V20.412C44.8748 20.4355 44.8718 20.4593 44.8687 20.4831H44.8683V20.4871C44.8631 20.5278 44.8572 20.569 44.8507 20.6106H44.8501V20.6148C44.8474 20.6316 44.845 20.6483 44.8421 20.6652H44.841V20.6713C44.8382 20.6874 44.8351 20.7037 44.8321 20.7199H44.8318V20.7213C44.8236 20.7659 44.8147 20.8109 44.8049 20.8564H44.8045V20.8583C44.7988 20.8848 44.7928 20.9116 44.7865 20.9384H44.7863V20.9389L44.7777 20.9748H44.7772V20.977C44.7635 21.0333 44.7488 21.0902 44.7324 21.1479H44.7317V21.1504C44.7259 21.1706 44.7196 21.1912 44.7135 21.2116V21.2117C44.6841 21.3101 44.651 21.4101 44.6134 21.5121H44.6133V21.5125C44.5989 21.5516 44.5837 21.5909 44.568 21.6305H44.5678V21.6311C44.5619 21.646 44.556 21.661 44.5499 21.676H44.5495V21.6767C44.5349 21.7127 44.5198 21.7489 44.5041 21.7852H44.504V21.7855C44.4897 21.8186 44.4745 21.852 44.4593 21.8854H44.4585V21.8871L44.4511 21.9036H44.4494V21.9074C44.4319 21.9454 44.4136 21.9836 44.3949 22.022H44.3948V22.0223C44.3801 22.0524 44.365 22.0827 44.3495 22.1131H44.3492V22.1136L44.3402 22.1313H44.3401V22.1314C44.32 22.1706 44.2993 22.21 44.2779 22.2497H44.2764V22.2524L44.2679 22.2679H44.2673V22.2691C44.2412 22.3169 44.2141 22.3651 44.1861 22.4135H44.1853V22.4149C44.1768 22.4296 44.1684 22.4443 44.1597 22.4591H44.158V22.4619C44.155 22.467 44.1522 22.4722 44.1491 22.4773H44.1489V22.4776L44.1328 22.5046H44.1307V22.508L44.1216 22.5229H44.1216C44.0979 22.5622 44.0739 22.6015 44.0488 22.6412H44.0487V22.6413C44.043 22.6502 44.0369 22.6594 44.0311 22.6685H44.0305V22.6694C43.9524 22.7918 43.8676 22.9161 43.7762 23.0419H43.7756V23.0428C43.7669 23.0546 43.7588 23.0664 43.7501 23.0783H43.7482V23.0808C43.74 23.092 43.7311 23.1034 43.7227 23.1147H43.721V23.117C43.6856 23.1646 43.6492 23.2124 43.6118 23.2604H43.6116V23.2606C43.5999 23.2757 43.5878 23.2908 43.5758 23.3059H43.5752V23.3067C43.5635 23.3216 43.5518 23.3365 43.5399 23.3514H43.5388V23.3528C43.527 23.3675 43.5154 23.3822 43.5034 23.397H43.5024V23.3983C43.488 23.416 43.4729 23.4338 43.4582 23.4516H43.4569V23.4533C43.4448 23.4679 43.4328 23.4825 43.4206 23.4972H43.4205V23.4973C43.3851 23.5396 43.3487 23.582 43.3119 23.6246H43.3112V23.6255C43.2931 23.6464 43.2754 23.6673 43.2568 23.6884H43.2565V23.6887L43.2488 23.6975H43.2474V23.699L43.2406 23.7066H43.2383V23.7091C43.2176 23.7325 43.196 23.756 43.1749 23.7794H43.1746V23.7797L43.1666 23.7885H43.1655V23.7898C43.1357 23.8227 43.1054 23.8557 43.0748 23.8887H43.0744V23.8891L43.0662 23.8978H43.0653V23.8988C43.0038 23.9648 42.9397 24.0314 42.8741 24.0981H42.8741V24.0982L42.8653 24.1072H42.865V24.1075L42.8563 24.1164H42.8559V24.1168L42.8474 24.1254H42.8468V24.1261C42.8333 24.1399 42.8198 24.1538 42.8059 24.1677C42.7955 24.1781 42.7849 24.1881 42.7745 24.1983H42.7739V24.1988L42.7651 24.2074H42.7648V24.2076C42.7175 24.2539 42.6692 24.2994 42.62 24.344H42.6191V24.3447C42.5923 24.369 42.5651 24.393 42.5377 24.4168H42.5372V24.4172C42.5198 24.4323 42.5027 24.4475 42.4851 24.4623H42.4826V24.4646L42.4745 24.4715H42.4734V24.4723C42.4555 24.4874 42.4372 24.5021 42.4191 24.517H42.4188V24.5172C42.3624 24.5635 42.3052 24.6092 42.2469 24.6536H42.2458V24.6544C42.234 24.6634 42.2221 24.6721 42.2102 24.6809H42.2094V24.6815L42.1733 24.7082H42.173V24.7085C42.1312 24.7392 42.0892 24.7695 42.0466 24.7993H42.0455V24.8001C41.9563 24.8625 41.8654 24.923 41.7729 24.9814H41.7723V24.9818C41.7482 24.997 41.724 25.012 41.6997 25.0269H41.6994V25.0271C41.6544 25.0548 41.609 25.082 41.5633 25.1089H41.5628V25.1091C41.5422 25.1212 41.5216 25.1334 41.5008 25.1453H41.4991V25.1462C41.4783 25.1582 41.4573 25.1699 41.4363 25.1817H41.4354V25.1823C41.3693 25.2193 41.3027 25.2557 41.2355 25.291H41.2351V25.2912L41.2184 25.3001H41.2168V25.3009L41.2007 25.3092H41.1986V25.3103C41.115 25.3538 41.0307 25.3959 40.9458 25.4367H40.9436V25.4377L40.9266 25.4458H40.9255V25.4463C40.8472 25.4837 40.7684 25.5199 40.6892 25.5551H40.6887V25.5553C40.6682 25.5644 40.6477 25.5734 40.6271 25.5824H40.625V25.5833C40.5615 25.611 40.4979 25.638 40.434 25.6643H40.4338V25.6644C40.4192 25.6704 40.4047 25.6766 40.3902 25.6825H40.3882V25.6834C40.3737 25.6892 40.3592 25.6949 40.3448 25.7007H40.3427V25.7016C40.2973 25.7198 40.2519 25.7378 40.2064 25.7554H40.2061V25.7555C40.1824 25.7646 40.1588 25.7737 40.1352 25.7827H40.1332V25.7834C40.1097 25.7924 40.086 25.8012 40.0624 25.81H40.0604V25.8108C39.9939 25.8355 39.9274 25.8595 39.861 25.8829H39.8601V25.8832C39.7327 25.928 39.6056 25.9703 39.4792 26.0103H39.4776V26.0108C39.4291 26.0262 39.3808 26.0412 39.3326 26.0559H39.3319V26.0561C39.3019 26.0652 39.2719 26.0743 39.242 26.0832H39.2409V26.0835C39.1561 26.1087 39.0718 26.1329 38.9881 26.156H38.9859V26.1567C38.9066 26.1786 38.8281 26.1996 38.75 26.2198H38.7492V26.22L38.7152 26.2289H38.7127V26.2295C38.6394 26.2483 38.567 26.2662 38.4952 26.2835H38.4942V26.2838C38.2968 26.3314 38.1051 26.3736 37.9217 26.411H37.9205V26.4112C37.8746 26.4206 37.8294 26.4296 37.7845 26.4383H37.7839V26.4384C37.6648 26.4616 37.5496 26.4828 37.4389 26.502H37.4379V26.5023C37.2256 26.5391 37.03 26.5691 36.8564 26.5931H36.8551V26.5933C36.3416 26.6644 36.0205 26.6842 36.0205 26.6842H26.5557C26.5557 26.6842 26.9869 26.5711 27.7038 26.2289Z" fill="url(#paint0_linear)"/>
<path d="M13.9654 15.6082C13.5347 15.1856 13.3193 14.5679 13.3193 13.7551V11.13C13.3193 10.9078 13.3856 10.7305 13.5184 10.5977C13.6511 10.4649 13.8285 10.3985 14.0507 10.3985C14.2728 10.3985 14.4502 10.4649 14.5831 10.5977C14.7158 10.7305 14.7823 10.9078 14.7823 11.13V13.812C14.7823 14.2238 14.8742 14.5408 15.0585 14.763C15.2427 14.9851 15.5082 15.0961 15.855 15.0961C16.2017 15.0961 16.4672 14.9851 16.6515 14.763C16.8356 14.5408 16.9279 14.2238 16.9279 13.812V11.13C16.9279 10.9078 16.9942 10.7305 17.127 10.5977C17.2597 10.4649 17.437 10.3985 17.6594 10.3985C17.8814 10.3985 18.0602 10.4649 18.1957 10.5977C18.331 10.7305 18.3989 10.9078 18.3989 11.13V13.7551C18.3989 14.5625 18.1807 15.1788 17.7446 15.6041C17.3084 16.0295 16.6785 16.2421 15.855 16.2421C15.026 16.2421 14.3961 16.0308 13.9654 15.6082Z" fill="#FEFEFE"/>
<path d="M25.0002 10.6017C25.1303 10.7372 25.1953 10.9133 25.1953 11.13V15.5512C25.1953 15.7572 25.1356 15.9197 25.0165 16.0388C24.8972 16.1582 24.7402 16.2177 24.5451 16.2177C24.3554 16.2177 24.1997 16.1582 24.0778 16.0388C23.9559 15.9197 23.8948 15.7572 23.8948 15.5512V13.1618L22.9684 14.8686C22.8762 15.0421 22.7786 15.1653 22.6758 15.2383C22.5728 15.3115 22.451 15.3481 22.3101 15.3481C22.1691 15.3481 22.0472 15.3115 21.9443 15.2383C21.8414 15.1653 21.7439 15.0421 21.6518 14.8686L20.7334 13.2106V15.5512C20.7334 15.7518 20.6724 15.9129 20.5505 16.0349C20.4285 16.1567 20.2701 16.2177 20.075 16.2177C19.8854 16.2177 19.7297 16.1582 19.6078 16.0388C19.4858 15.9197 19.4248 15.7572 19.4248 15.5512V11.13C19.4248 10.9133 19.4911 10.7372 19.6239 10.6017C19.7567 10.4664 19.926 10.3985 20.132 10.3985C20.2783 10.3985 20.4109 10.4406 20.5302 10.5245C20.6493 10.6085 20.7496 10.7291 20.8309 10.8862L22.3264 13.6982L23.8137 10.8862C23.9814 10.5611 24.2091 10.3985 24.4964 10.3985C24.7023 10.3985 24.8702 10.4664 25.0002 10.6017Z" fill="#FEFEFE"/>
<path d="M29.9884 14.6368C30.2322 14.3308 30.3541 13.8851 30.3541 13.2999C30.3541 12.7148 30.2308 12.2705 29.9843 11.967C29.7378 11.6636 29.4005 11.5119 28.9725 11.5119C28.539 11.5119 28.2004 11.6623 27.9566 11.9629C27.7128 12.2637 27.5909 12.7094 27.5909 13.2999C27.5909 13.8905 27.7128 14.3375 27.9566 14.6409C28.2004 14.9444 28.539 15.096 28.9725 15.096C29.4058 15.096 29.7446 14.9431 29.9884 14.6368ZM27.4486 15.8803C27.0178 15.6393 26.6858 15.298 26.453 14.8563C26.22 14.4147 26.1035 13.896 26.1035 13.2999C26.1035 12.704 26.22 12.1852 26.453 11.7435C26.6858 11.302 27.0178 10.962 27.4486 10.7235C27.8793 10.4851 28.3874 10.366 28.9725 10.366C29.5576 10.366 30.0655 10.4851 30.4963 10.7235C30.9271 10.962 31.2575 11.302 31.488 11.7435C31.7182 12.1852 31.8333 12.704 31.8333 13.2999C31.8333 13.896 31.7167 14.4147 31.4839 14.8563C31.2508 15.298 30.9189 15.6393 30.4882 15.8803C30.0576 16.1216 29.5523 16.242 28.9725 16.242C28.3874 16.242 27.8793 16.1216 27.4486 15.8803Z" fill="#FEFEFE"/>
<path fill-rule="evenodd" clip-rule="evenodd" d="M7.41952 13.2099C7.41952 15.3704 8.62554 16.0233 8.95055 16.16C8.98232 16.1734 9.0147 16.1432 9.0041 16.1105C8.9107 15.8223 8.60084 14.8143 8.60084 14.1268C8.60084 13.7684 8.61428 13.4918 8.61428 13.4918H10.977V15.8277C10.977 15.8277 11.0979 16.0559 11.6751 16.0559C12.2523 16.0559 12.2523 15.8277 12.2523 15.8277V10.8606C12.2523 10.8606 12.306 10.3506 11.5409 10.3506C10.6003 10.3506 10.7704 10.6793 10.9325 10.8089C10.9768 10.8444 11.0038 10.8972 11.0038 10.9539V12.4984H8.61428C8.61428 12.4984 8.62772 11.8547 8.62772 11.6393C8.62772 11.2655 8.70121 10.74 8.73354 10.5266C8.74147 10.4741 8.69682 10.4292 8.64418 10.4363C8.33079 10.4788 7.41952 10.8088 7.41952 13.2099ZM7.22484 14.2536C7.94982 16.1687 8.60534 16.3813 8.80901 16.4442C8.82841 16.4502 8.85649 16.4594 8.87726 16.4664C8.8917 16.4711 8.89731 16.4883 8.88852 16.5007C8.84952 16.5553 8.76537 16.6556 8.57422 16.7003C8.43258 16.7333 8.19981 16.7475 8.00013 16.7003C7.81131 16.6556 7.39603 16.66 6.64089 15.9653C5.66991 15.072 6.31872 14.0422 6.31872 14.0422C6.31872 14.0422 6.6711 15.0793 6.99328 15.5424C7.52272 16.3035 7.93971 16.3579 7.93971 16.3579C7.93971 16.3579 7.15437 15.8747 6.66105 14.012C6.21834 12.3406 7.23489 11.505 7.23489 11.505C7.23489 11.505 6.79986 13.1309 7.22484 14.2536Z" fill="url(#paint1_linear)"/>
<defs>
<linearGradient id="paint0_linear" x1="23.626" y1="20.38" x2="45.9546" y2="9.96196" gradientUnits="userSpaceOnUse">
<stop stop-color="#F9B340"/>
<stop offset="0.34902" stop-color="#F9B340"/>
<stop offset="0.65098" stop-color="#F9F5C7"/>
<stop offset="0.839216" stop-color="#F9B340"/>
<stop offset="1" stop-color="#F9B340"/>
</linearGradient>
<linearGradient id="paint1_linear" x1="12.6305" y1="14.6275" x2="7.0591" y2="12.3246" gradientUnits="userSpaceOnUse">
<stop stop-color="#F9B340"/>
<stop offset="0.639216" stop-color="#F9B340"/>
<stop offset="0.760784" stop-color="#F9F5C7"/>
<stop offset="0.890196" stop-color="#F9B340"/>
<stop offset="1" stop-color="#F9B340"/>
</linearGradient>
</defs>
</svg>
