<svg width="42" height="26" viewBox="0 0 42 26" fill="none" xmlns="http://www.w3.org/2000/svg">
<path d="M26.4833 22.8288H15.4316V3.17403H26.4833V22.8288Z" fill="#FF5F00"/>
<path d="M16.1362 13C16.1362 9.01293 18.0226 5.46137 20.9603 3.1726C18.8121 1.49894 16.1009 0.499993 13.1544 0.499993C6.17887 0.499993 0.524414 6.09634 0.524414 13C0.524414 19.9036 6.17887 25.5 13.1544 25.5C16.1009 25.5 18.8121 24.501 20.9603 22.8274C18.0226 20.5386 16.1362 16.9871 16.1362 13Z" fill="#EB001B"/>
<path d="M41.383 13C41.383 19.9036 35.7285 25.5 28.753 25.5C25.8065 25.5 23.0953 24.501 20.9463 22.8274C23.8847 20.5386 25.7712 16.9871 25.7712 13C25.7712 9.01293 23.8847 5.46137 20.9463 3.1726C23.0953 1.49894 25.8065 0.499993 28.753 0.499993C35.7285 0.499993 41.383 6.09634 41.383 13Z" fill="#F79E1B"/>
<path d="M10.0261 13.0788C10.0261 12.5328 10.3877 12.0842 10.9785 12.0842C11.5431 12.0842 11.9242 12.5134 11.9242 13.0788C11.9242 13.6441 11.5431 14.0733 10.9785 14.0733C10.3877 14.0733 10.0261 13.6248 10.0261 13.0788ZM12.5676 13.0788V11.5256H11.8851V11.9027C11.6686 11.623 11.3401 11.4475 10.8936 11.4475C10.0134 11.4475 9.3233 12.1303 9.3233 13.0788C9.3233 14.0279 10.0134 14.7101 10.8936 14.7101C11.3401 14.7101 11.6686 14.5345 11.8851 14.2548V14.6319H12.5676V13.0788ZM35.6326 13.0788C35.6326 12.5328 35.9942 12.0842 36.585 12.0842C37.1503 12.0842 37.5306 12.5134 37.5306 13.0788C37.5306 13.6441 37.1503 14.0733 36.585 14.0733C35.9942 14.0733 35.6326 13.6248 35.6326 13.0788ZM38.1748 13.0788V10.2781H37.4916V11.9027C37.2751 11.623 36.9466 11.4475 36.5001 11.4475C35.6198 11.4475 34.9298 12.1303 34.9298 13.0788C34.9298 14.0279 35.6198 14.7101 36.5001 14.7101C36.9466 14.7101 37.2751 14.5345 37.4916 14.2548V14.6319H38.1748V13.0788ZM21.04 12.0522C21.4797 12.0522 21.7623 12.3252 21.8345 12.8058H20.2056C20.2785 12.3572 20.5536 12.0522 21.04 12.0522ZM21.0535 11.4475C20.1334 11.4475 19.49 12.1102 19.49 13.0788C19.49 14.0666 20.1597 14.7101 21.0993 14.7101C21.5722 14.7101 22.0051 14.5933 22.3862 14.2749L22.0517 13.7743C21.7887 13.9818 21.4534 14.0993 21.1384 14.0993C20.6987 14.0993 20.298 13.8978 20.1996 13.3384H22.5306C22.5373 13.2543 22.5441 13.1695 22.5441 13.0788C22.5373 12.1102 21.933 11.4475 21.0535 11.4475ZM29.2951 13.0788C29.2951 12.5328 29.6566 12.0842 30.2475 12.0842C30.812 12.0842 31.1931 12.5134 31.1931 13.0788C31.1931 13.6441 30.812 14.0733 30.2475 14.0733C29.6566 14.0733 29.2951 13.6248 29.2951 13.0788ZM31.8366 13.0788V11.5256H31.154V11.9027C30.9368 11.623 30.609 11.4475 30.1625 11.4475C29.2823 11.4475 28.5922 12.1303 28.5922 13.0788C28.5922 14.0279 29.2823 14.7101 30.1625 14.7101C30.609 14.7101 30.9368 14.5345 31.154 14.2548V14.6319H31.8366V13.0788ZM25.4404 13.0788C25.4404 14.0212 26.1034 14.7101 27.1152 14.7101C27.588 14.7101 27.9029 14.6059 28.2442 14.3396L27.9165 13.7936C27.6601 13.9759 27.391 14.0733 27.0949 14.0733C26.5499 14.0666 26.1492 13.6768 26.1492 13.0788C26.1492 12.4807 26.5499 12.0909 27.0949 12.0842C27.391 12.0842 27.6601 12.1817 27.9165 12.3639L28.2442 11.8179C27.9029 11.5516 27.588 11.4475 27.1152 11.4475C26.1034 11.4475 25.4404 12.1363 25.4404 13.0788ZM34.2405 11.4475C33.8466 11.4475 33.5903 11.6297 33.4129 11.9027V11.5256H32.7363V14.6319H33.4196V12.8906C33.4196 12.3765 33.6429 12.0909 34.0894 12.0909C34.2277 12.0909 34.372 12.1102 34.5163 12.169L34.7268 11.5323C34.5757 11.4735 34.3788 11.4475 34.2405 11.4475ZM15.9435 11.7725C15.615 11.5583 15.1625 11.4475 14.6633 11.4475C13.868 11.4475 13.3561 11.8246 13.3561 12.442C13.3561 12.9486 13.7372 13.261 14.4393 13.3585L14.7618 13.4038C15.1362 13.4559 15.3128 13.5533 15.3128 13.7289C15.3128 13.9692 15.0632 14.106 14.5972 14.106C14.1244 14.106 13.7831 13.9565 13.5531 13.781L13.2314 14.3069C13.6057 14.5799 14.0785 14.7101 14.5904 14.7101C15.497 14.7101 16.0224 14.2875 16.0224 13.6962C16.0224 13.1502 15.609 12.8645 14.9257 12.7671L14.604 12.721C14.3085 12.6823 14.0718 12.6243 14.0718 12.416C14.0718 12.1884 14.295 12.0522 14.6693 12.0522C15.07 12.0522 15.4579 12.2017 15.6481 12.3185L15.9435 11.7725ZM24.7503 11.4475C24.3564 11.4475 24.1001 11.6297 23.9235 11.9027V11.5256H23.2469V14.6319H23.9295V12.8906C23.9295 12.3765 24.1527 12.0909 24.5992 12.0909C24.7376 12.0909 24.8819 12.1102 25.0262 12.169L25.2367 11.5323C25.0856 11.4735 24.8886 11.4475 24.7503 11.4475ZM18.9254 11.5256H17.8092V10.5831H17.1191V11.5256H16.4824V12.143H17.1191V13.56C17.1191 14.2808 17.4018 14.7101 18.2091 14.7101C18.5052 14.7101 18.8465 14.6193 19.063 14.4698L18.8661 13.8911C18.6624 14.0078 18.4391 14.0666 18.2617 14.0666C17.9204 14.0666 17.8092 13.8583 17.8092 13.5466V12.143H18.9254V11.5256ZM8.71969 14.6319V12.6823C8.71969 11.9481 8.24687 11.4542 7.48465 11.4475C7.084 11.4408 6.67057 11.5642 6.38116 12.0002C6.16468 11.6557 5.82341 11.4475 5.34382 11.4475C5.00857 11.4475 4.68083 11.5449 4.4245 11.9087V11.5256H3.74121V14.6319H4.43051V12.9099C4.43051 12.3706 4.7327 12.0842 5.1995 12.0842C5.65277 12.0842 5.88204 12.3765 5.88204 12.9032V14.6319H6.57209V12.9099C6.57209 12.3706 6.88705 12.0842 7.34032 12.0842C7.80638 12.0842 8.02963 12.3765 8.02963 12.9032V14.6319H8.71969Z" fill="white"/>
</svg>
