<svg width="41" height="30" viewBox="0 0 41 30" fill="none" xmlns="http://www.w3.org/2000/svg">
<path fill-rule="evenodd" clip-rule="evenodd" d="M27.4656 10.6776C27.4656 13.8276 26.7325 16.175 25.2676 17.7045C23.8026 19.2341 21.5391 19.9985 18.4875 19.9985C15.6364 19.9985 13.4733 19.2338 11.9984 17.7045C10.5234 16.1752 9.78596 13.8688 9.78613 10.7851V0.439548C9.78647 0.323118 9.83371 0.211551 9.91753 0.129199C10.0014 0.0468465 10.115 0.000400773 10.2335 0H15.4032C15.5218 0.000334023 15.6355 0.0467504 15.7194 0.12911C15.8032 0.211469 15.8505 0.323074 15.8508 0.439548V11.0113C15.8508 12.2704 16.0881 13.2394 16.5708 13.923C16.8104 14.2349 17.1194 14.489 17.4741 14.6658C17.8288 14.8426 18.22 14.9376 18.6178 14.9434C19.0156 14.9493 19.4096 14.8659 19.7695 14.6996C20.1295 14.5333 20.4461 14.2885 20.6951 13.9838C21.167 13.3424 21.4021 12.3971 21.4006 11.148V9.16825H27.4656V10.6776Z" fill="#204079"/>
<path fill-rule="evenodd" clip-rule="evenodd" d="M27.0116 8.23467H21.5742V0.47311C21.5746 0.347738 21.6227 0.227602 21.708 0.13895C21.7934 0.0502987 21.9091 0.000343391 22.0298 0H22.8436C22.8445 1.27268 23.3319 2.49293 24.1987 3.39253C25.0655 4.29213 26.2407 4.79748 27.4661 4.79748H27.4674V8.23467H27.0116Z" fill="#204079"/>
<path fill-rule="evenodd" clip-rule="evenodd" d="M23.9404 0H27.0116C27.1347 0.000336329 27.2527 0.0492643 27.3398 0.136092C27.4269 0.222921 27.476 0.340587 27.4763 0.46338V3.52915C26.5385 3.52915 25.6392 3.15772 24.9761 2.4966C24.313 1.83547 23.9404 0.938796 23.9404 0.00382313V0Z" fill="#FF9233"/>
<path fill-rule="evenodd" clip-rule="evenodd" d="M3.2525 28.2772C4.80662 28.2772 5.55735 27.4748 5.55735 26.2966V23.4572H4.44474V26.2684C4.44474 26.5631 4.31848 26.8457 4.09373 27.0541C3.86897 27.2624 3.56421 27.3795 3.24636 27.3795C2.92855 27.3795 2.62374 27.2624 2.39899 27.0541C2.17424 26.8457 2.04798 26.5631 2.04798 26.2684V23.4572H0.945312V26.3054C0.945312 27.4694 1.69544 28.2788 3.25016 28.2788L3.2525 28.2772ZM11.5457 28.1919V27.3049H9.08042L11.4924 24.2645V23.455H7.65626V24.3427H10.0683L7.65626 27.3738V28.1881L11.5457 28.1919ZM16.0174 28.2772C16.4551 28.2866 16.8869 28.1826 17.2643 27.9769C17.6417 27.7711 17.9497 27.4719 18.1536 27.1127L17.2167 26.6941C17.1026 26.8993 16.9305 27.0718 16.7187 27.1931C16.5069 27.3144 16.2634 27.3799 16.0145 27.3825C15.5841 27.3628 15.1784 27.1903 14.8813 26.901C14.5842 26.6116 14.4186 26.2274 14.4186 25.8278C14.4186 25.4283 14.5842 25.0441 14.8813 24.7547C15.1784 24.4653 15.5841 24.293 16.0145 24.2732C16.263 24.2773 16.5059 24.3434 16.7174 24.4645C16.929 24.5856 17.1014 24.7573 17.2167 24.9616L18.1536 24.5354C17.9498 24.1767 17.6417 23.8781 17.264 23.6736C16.8864 23.4691 16.4545 23.3668 16.0174 23.3785C15.6639 23.3687 15.3119 23.4249 14.9822 23.5435C14.6525 23.6622 14.3518 23.8411 14.098 24.0694C13.8443 24.2978 13.6426 24.5711 13.5048 24.8731C13.367 25.1751 13.296 25.4997 13.296 25.8276C13.296 26.1555 13.367 26.48 13.5048 26.7821C13.6426 27.084 13.8443 27.3573 14.098 27.5857C14.3518 27.8141 14.6525 27.9929 14.9822 28.1116C15.3119 28.2303 15.6639 28.2864 16.0174 28.2766V28.2772ZM24.7919 28.1919L22.8244 23.4572H21.4617L19.486 28.1919H20.7263L21.0477 27.3895H23.2378L23.5517 28.1919H24.7919ZM22.9391 26.5024H21.3464L22.1428 24.4649L22.9391 26.5024ZM31.4081 29.3798L29.5342 26.3901C29.8691 26.3152 30.1645 26.1332 30.3695 25.8761C30.5738 25.619 30.6738 25.3032 30.6521 24.9845C30.6608 24.7764 30.6217 24.569 30.5374 24.3759C30.4532 24.1829 30.326 24.0085 30.164 23.8643C30.002 23.7202 29.8089 23.6095 29.5973 23.5395C29.3858 23.4695 29.1607 23.4418 28.9369 23.4583H26.5471V28.193H27.6345V26.51H28.4309L30.1597 29.3788L31.4081 29.3798ZM28.7758 25.6234H27.6351V24.346H28.7723C28.8689 24.3365 28.9665 24.346 29.0588 24.3738C29.1512 24.4016 29.2362 24.4471 29.3083 24.5074C29.3805 24.5676 29.4382 24.6412 29.4777 24.7234C29.5171 24.8057 29.5376 24.8947 29.5376 24.9847C29.5376 25.0747 29.5171 25.1637 29.4777 25.2459C29.4382 25.3282 29.3805 25.4018 29.3083 25.4621C29.2362 25.5223 29.1512 25.5678 29.0588 25.5956C28.9665 25.6234 28.8689 25.6329 28.7723 25.6234H28.7758ZM34.7634 28.193C36.3641 28.193 37.474 27.256 37.474 25.8292C37.474 24.4024 36.3614 23.4583 34.7634 23.4583H32.7496V28.193H34.7634ZM34.7634 27.3059H33.8372V24.346H34.7634C34.9775 24.3313 35.1928 24.3596 35.3939 24.429C35.5955 24.4983 35.7781 24.6071 35.9303 24.7478C36.082 24.8886 36.1994 25.058 36.2744 25.2447C36.3489 25.4313 36.3798 25.6306 36.3641 25.8292C36.3728 26.0262 36.3374 26.2226 36.2597 26.4061C36.1825 26.5897 36.0646 26.7562 35.9135 26.895C35.7629 27.0339 35.5825 27.1421 35.3835 27.2126C35.1852 27.2832 34.9732 27.3146 34.7607 27.3049L34.7634 27.3059Z" fill="#204079"/>
<path fill-rule="evenodd" clip-rule="evenodd" d="M40.1039 23.3681V23.3795C40.1039 23.5539 40.0485 23.7244 39.9441 23.8695C39.8398 24.0145 39.6914 24.1276 39.5174 24.1945C39.3435 24.2613 39.1522 24.2788 38.9679 24.2448C38.7831 24.2109 38.6141 24.127 38.4809 24.0037C38.3478 23.8804 38.257 23.7233 38.2206 23.5522C38.1836 23.3812 38.2026 23.2039 38.2744 23.0427C38.3461 22.8816 38.4684 22.7439 38.6244 22.647C38.7809 22.5501 38.9647 22.4983 39.1533 22.4983H40.1034L40.1039 23.3681Z" fill="#204079"/>
</svg>
