<svg width="58" height="18" viewBox="0 0 58 18" fill="none" xmlns="http://www.w3.org/2000/svg">
<path d="M25.1305 17.249H20.4316L23.3706 0.403793H28.0692L25.1305 17.249Z" fill="#00579F"/>
<path d="M42.1616 0.816495C41.2348 0.475656 39.7648 0.0993271 37.9472 0.0993271C33.3069 0.0993271 30.0393 2.39302 30.0192 5.67232C29.9807 8.09178 32.3587 9.4356 34.1374 10.2423C35.9553 11.0667 36.5732 11.6047 36.5732 12.3395C36.5547 13.468 35.1043 13.9882 33.7514 13.9882C31.8754 13.9882 30.8702 13.72 29.3427 13.0922L28.7239 12.823L28.0664 16.6044C29.1685 17.0698 31.1989 17.4828 33.3069 17.5009C38.2372 17.5009 41.4471 15.2427 41.4851 11.7481C41.5038 9.83051 40.2481 8.36116 37.5409 7.16048C35.8975 6.38973 34.891 5.87001 34.891 5.08139C34.9103 4.36446 35.7423 3.63014 37.5974 3.63014C39.125 3.59418 40.2474 3.93454 41.0976 4.27514L41.5226 4.45402L42.1616 0.816495Z" fill="#00579F"/>
<path d="M48.4095 11.2813C48.7965 10.3136 50.2855 6.56819 50.2855 6.56819C50.266 6.60416 50.6717 5.58259 50.9037 4.95546L51.2321 6.40694C51.2321 6.40694 52.1219 10.4391 52.3152 11.2813C51.5808 11.2813 49.3376 11.2813 48.4095 11.2813ZM54.2097 0.403793H50.5751C49.4543 0.403793 48.6028 0.70819 48.1192 1.80145L41.1396 17.2488H46.07C46.07 17.2488 46.8817 15.1697 47.0562 14.7219C47.5971 14.7219 52.3933 14.7219 53.0891 14.7219C53.224 15.3133 53.6498 17.2488 53.6498 17.2488H58.0004L54.2097 0.403793Z" fill="#00579F"/>
<path d="M16.5122 0.403793L11.9104 11.8906L11.4076 9.56095C10.5568 6.87283 7.88867 3.95224 4.91113 2.50004L9.12614 17.2311H14.095L21.4808 0.403793H16.5122Z" fill="#00579F"/>
<path d="M7.63634 0.403793H0.076365L-0.000976562 0.744156C5.89628 2.14205 9.80191 5.51161 11.4066 9.56167L9.76311 1.81979C9.49254 0.743918 8.66105 0.439283 7.63634 0.403793Z" fill="#FAA61A"/>
</svg>
