<svg width="63" height="40" viewBox="0 0 63 40" fill="none" xmlns="http://www.w3.org/2000/svg">
<rect width="63" height="40" rx="3" fill="#00579F"/>
<path d="M28.3083 26.9194H24.4297L26.8556 13.125H30.7341L28.3083 26.9194Z" fill="white"/>
<path d="M42.3672 13.4623C41.6022 13.1832 40.3888 12.875 38.8884 12.875C35.0581 12.875 32.3609 14.7533 32.3444 17.4387C32.3125 19.4199 34.2755 20.5204 35.7436 21.181C37.2442 21.856 37.7543 22.2967 37.7543 22.8984C37.739 23.8225 36.5418 24.2485 35.4251 24.2485C33.8765 24.2485 33.0468 24.0289 31.7859 23.5147L31.2752 23.2943L30.7324 26.3908C31.6421 26.772 33.3181 27.1102 35.0581 27.125C39.1278 27.125 41.7774 25.2758 41.8088 22.4141C41.8242 20.8438 40.7877 19.6405 38.5531 18.6573C37.1965 18.0261 36.3657 17.6006 36.3657 16.9548C36.3816 16.3677 37.0684 15.7663 38.5997 15.7663C39.8606 15.7369 40.7871 16.0156 41.4889 16.2945L41.8397 16.441L42.3672 13.4623Z" fill="white"/>
<path d="M47.5223 22.0325C47.8418 21.24 49.0709 18.173 49.0709 18.173C49.0547 18.2024 49.3896 17.3659 49.5812 16.8523L49.8522 18.0409C49.8522 18.0409 50.5867 21.3428 50.7462 22.0325C50.14 22.0325 48.2884 22.0325 47.5223 22.0325ZM52.31 13.125H49.3099C48.3847 13.125 47.6818 13.3743 47.2827 14.2695L41.5215 26.9192H45.5912C45.5912 26.9192 46.2612 25.2166 46.4052 24.8499C46.8517 24.8499 50.8107 24.8499 51.385 24.8499C51.4964 25.3342 51.8478 26.9192 51.8478 26.9192H55.4391L52.31 13.125Z" fill="white"/>
<path d="M21.1912 13.125L17.3928 22.5314L16.9777 20.6237C16.2754 18.4224 14.073 16.0308 11.6152 14.8416L15.0945 26.9047H19.196L25.2925 13.125H21.1912Z" fill="white"/>
<path d="M13.8647 13.125H7.62439L7.56055 13.4037C12.4284 14.5484 15.6523 17.3077 16.9768 20.6243L15.6202 14.2845C15.3969 13.4035 14.7105 13.1541 13.8647 13.125Z" fill="#FAA61A"/>
</svg>
