<svg width="101" height="14" viewBox="0 0 101 14" fill="none" xmlns="http://www.w3.org/2000/svg">
<path d="M2.99621 13.8951C3.26117 14.0763 3.58132 14.0194 3.97324 13.7502L7.81514 11.1099L11.657 13.7502C12.049 14.0194 12.3746 14.0763 12.6341 13.8951C12.888 13.7139 12.9487 13.4137 12.7942 12.9788L11.2872 8.74399L15.1567 6.13477C15.5486 5.87074 15.7032 5.59636 15.5983 5.30645C15.4989 5.02689 15.2119 4.87676 14.7151 4.88193L9.96793 4.90782L8.51618 0.657482C8.36714 0.217435 8.1353 0 7.81514 0C7.49498 0 7.26314 0.217435 7.11411 0.657482L5.66235 4.90782L0.915179 4.88193C0.423901 4.87676 0.131343 5.02689 0.0319833 5.30645C-0.0728962 5.59636 0.081663 5.87074 0.473581 6.13477L4.34308 8.74399L2.84165 12.9788C2.68157 13.4137 2.74229 13.7139 2.99621 13.8951Z" fill="#F5921C"/>
<path d="M24.38 13.8951C24.645 14.0763 24.9651 14.0194 25.357 13.7502L29.1989 11.1099L33.0408 13.7502C33.4327 14.0194 33.7584 14.0763 34.0179 13.8951C34.2718 13.7139 34.3325 13.4137 34.1779 12.9788L32.671 8.74399L36.5405 6.13477C36.9324 5.87074 37.087 5.59636 36.9821 5.30645C36.8827 5.02689 36.5957 4.87676 36.0989 4.88193L31.3517 4.90782L29.9 0.657482C29.7509 0.217435 29.5191 0 29.1989 0C28.8788 0 28.6469 0.217435 28.4979 0.657482L27.0461 4.90782L22.299 4.88193C21.8077 4.87676 21.5151 5.02689 21.4158 5.30645C21.3109 5.59636 21.4655 5.87074 21.8574 6.13477L25.7269 8.74399L24.2254 12.9788C24.0654 13.4137 24.1261 13.7139 24.38 13.8951Z" fill="#F5921C"/>
<path d="M51.0189 10.6992L50.7337 10.5011L50.4485 10.6992L46.6467 13.3394C46.6467 13.3394 46.6467 13.3395 46.6467 13.3395C46.4855 13.4513 46.3809 13.4886 46.3236 13.4976C46.2868 13.5034 46.272 13.4988 46.2536 13.4867C46.2401 13.4764 46.2356 13.4698 46.2345 13.468C46.2335 13.4664 46.23 13.4609 46.2274 13.4458C46.2212 13.4104 46.22 13.3198 46.2818 13.1499L46.2819 13.1499L46.2839 13.1443L47.7696 8.90952L47.8968 8.54709L47.5794 8.3308L43.7502 5.72158L43.75 5.72146C43.59 5.61251 43.5272 5.53286 43.5067 5.49445C43.5032 5.48804 43.5014 5.48361 43.5005 5.48097C43.5009 5.47956 43.5015 5.47759 43.5024 5.47497L43.5024 5.47497L43.5033 5.47234C43.5035 5.47185 43.5037 5.47135 43.5038 5.47082C43.5063 5.46349 43.5097 5.45294 43.5446 5.43572C43.5953 5.41069 43.7033 5.37981 43.9003 5.38191L43.9029 5.38192L48.6006 5.40781L48.9615 5.4098L49.077 5.06792L50.5137 0.817586L50.5141 0.816375C50.573 0.640554 50.6325 0.559589 50.6673 0.526632C50.6899 0.50523 50.7034 0.5 50.7337 0.5C50.7641 0.5 50.7776 0.50523 50.8002 0.526632C50.8349 0.559589 50.8945 0.640554 50.9534 0.816376L50.9538 0.817585L52.3904 5.06792L52.506 5.4098L52.8669 5.40781L57.5646 5.38193L57.5671 5.3819C57.7677 5.37979 57.875 5.41095 57.9241 5.4353C57.957 5.45167 57.9604 5.46134 57.9636 5.47081C57.9638 5.47132 57.964 5.47183 57.9641 5.47235L57.9651 5.47497C57.966 5.47759 57.9666 5.47956 57.967 5.48097C57.9661 5.48361 57.9642 5.48804 57.9608 5.49445C57.9403 5.53286 57.8775 5.61251 57.7174 5.72146L57.7173 5.72158L53.8881 8.3308L53.5703 8.54734L53.698 8.91007L55.1892 13.1447C55.2492 13.3152 55.2478 13.4067 55.2411 13.4437C55.2383 13.4596 55.2346 13.4656 55.2333 13.4676C55.2319 13.4698 55.227 13.4771 55.2119 13.4882C55.1981 13.4977 55.1855 13.5038 55.1456 13.4976C55.0869 13.4884 54.9808 13.4505 54.8207 13.3394L51.0189 10.6992Z" stroke="#D2D2D2"/>
<path d="M72.0189 10.6992L71.7337 10.5011L71.4485 10.6992L67.6467 13.3394C67.6467 13.3394 67.6467 13.3395 67.6467 13.3395C67.4855 13.4513 67.3809 13.4886 67.3236 13.4976C67.2868 13.5034 67.272 13.4988 67.2536 13.4867C67.2401 13.4764 67.2356 13.4698 67.2345 13.468C67.2335 13.4664 67.23 13.4609 67.2274 13.4458C67.2212 13.4104 67.22 13.3198 67.2818 13.1499L67.2819 13.1499L67.2839 13.1443L68.7696 8.90952L68.8968 8.54709L68.5794 8.3308L64.7502 5.72158L64.75 5.72146C64.59 5.61251 64.5272 5.53286 64.5067 5.49445C64.5032 5.48804 64.5014 5.48361 64.5005 5.48097C64.5009 5.47956 64.5015 5.47759 64.5024 5.47497L64.5024 5.47497L64.5033 5.47234C64.5035 5.47185 64.5037 5.47135 64.5038 5.47082C64.5063 5.46349 64.5097 5.45294 64.5446 5.43572C64.5953 5.41069 64.7033 5.37981 64.9003 5.38191L64.9029 5.38192L69.6006 5.40781L69.9615 5.4098L70.077 5.06792L71.5137 0.817586L71.5141 0.816375C71.573 0.640554 71.6325 0.559589 71.6673 0.526632C71.6899 0.50523 71.7034 0.5 71.7337 0.5C71.7641 0.5 71.7776 0.50523 71.8002 0.526632C71.8349 0.559589 71.8945 0.640554 71.9534 0.816376L71.9538 0.817585L73.3904 5.06792L73.506 5.4098L73.8669 5.40781L78.5646 5.38193L78.5671 5.3819C78.7677 5.37979 78.875 5.41095 78.9241 5.4353C78.957 5.45167 78.9604 5.46134 78.9636 5.47081C78.9638 5.47132 78.964 5.47183 78.9641 5.47235L78.9651 5.47497C78.966 5.47759 78.9666 5.47956 78.967 5.48097C78.9661 5.48361 78.9642 5.48804 78.9608 5.49445C78.9403 5.53286 78.8775 5.61251 78.7174 5.72146L78.7173 5.72158L74.8881 8.3308L74.5703 8.54734L74.698 8.91007L76.1892 13.1447C76.2492 13.3152 76.2478 13.4067 76.2411 13.4437C76.2383 13.4596 76.2346 13.4656 76.2333 13.4676C76.2319 13.4698 76.227 13.4771 76.2119 13.4882C76.1981 13.4977 76.1855 13.5038 76.1456 13.4976C76.0869 13.4884 75.9808 13.4505 75.8207 13.3394L72.0189 10.6992Z" stroke="#D2D2D2"/>
<path d="M93.5512 10.6992L93.266 10.5011L92.9808 10.6992L89.179 13.3394C89.1789 13.3394 89.1789 13.3395 89.1789 13.3395C89.0177 13.4513 88.9132 13.4886 88.8559 13.4976C88.819 13.5034 88.8043 13.4988 88.7858 13.4867C88.7723 13.4764 88.7679 13.4698 88.7667 13.468C88.7657 13.4664 88.7623 13.4609 88.7596 13.4458C88.7534 13.4104 88.7522 13.3198 88.8141 13.1499L88.8141 13.1499L88.8161 13.1443L90.3019 8.90952L90.429 8.54709L90.1116 8.3308L86.2824 5.72158L86.2822 5.72146C86.1222 5.61251 86.0594 5.53286 86.0389 5.49445C86.0355 5.48804 86.0336 5.48361 86.0327 5.48097C86.0331 5.47956 86.0337 5.47759 86.0346 5.47497L86.0346 5.47497L86.0356 5.47234C86.0357 5.47185 86.0359 5.47135 86.0361 5.47082C86.0385 5.46349 86.042 5.45294 86.0769 5.43572C86.1275 5.41069 86.2355 5.37981 86.4325 5.38191L86.4351 5.38192L91.1328 5.40781L91.4937 5.4098L91.6093 5.06792L93.0459 0.817586L93.0463 0.816375C93.1052 0.640554 93.1648 0.559589 93.1995 0.526632C93.2221 0.50523 93.2356 0.5 93.266 0.5C93.2963 0.5 93.3098 0.50523 93.3324 0.526632C93.3672 0.559589 93.4267 0.640554 93.4856 0.816376L93.486 0.817585L94.9226 5.06792L95.0382 5.4098L95.3991 5.40781L100.097 5.38193L100.099 5.3819C100.3 5.37979 100.407 5.41095 100.456 5.4353C100.489 5.45167 100.493 5.46134 100.496 5.47081C100.496 5.47132 100.496 5.47183 100.496 5.47235L100.497 5.47497C100.498 5.47759 100.499 5.47956 100.499 5.48097C100.498 5.48361 100.496 5.48804 100.493 5.49445C100.472 5.53286 100.41 5.61251 100.25 5.72146L100.249 5.72158L96.4203 8.3308L96.1025 8.54734L96.2302 8.91007L97.7214 13.1447C97.7814 13.3152 97.78 13.4067 97.7734 13.4437C97.7705 13.4596 97.7668 13.4656 97.7655 13.4676C97.7641 13.4698 97.7592 13.4771 97.7441 13.4882C97.7303 13.4977 97.7177 13.5038 97.6778 13.4976C97.6191 13.4884 97.513 13.4505 97.3529 13.3394L93.5512 10.6992Z" stroke="#D2D2D2"/>
</svg>
